<?xml version="1.0" encoding="utf-8"?>
<svg viewBox="0.019 11.381 195.006 163.177" xmlns="http://www.w3.org/2000/svg" xmlns:xlink="http://www.w3.org/1999/xlink">
  <defs>
    <linearGradient id="linear-gradient" x1="128.18" y1="114.2" x2="195.02" y2="114.2" gradientUnits="userSpaceOnUse">
      <stop offset="0" stop-color="#00a4e8"/>
      <stop offset="0.54" stop-color="#00c8cf"/>
      <stop offset="0.74" stop-color="#00dfe3"/>
      <stop offset="0.96" stop-color="aqua"/>
    </linearGradient>
    <linearGradient id="linear-gradient-2" x1="0" y1="92.96" x2="194.79" y2="92.96" xlink:href="#linear-gradient"/>
    <style>.cls-1{fill:#fff;}.cls-2,.cls-3{opacity:0.91;}.cls-2{fill:url(#linear-gradient);}.cls-3{fill:url(#linear-gradient-2);}.cls-4{fill:#4651d5;}.cls-5{fill:#121e5a;}.cls-6{fill:#ff6e00;}.cls-7{fill:url(#linear-gradient-3);}.cls-8{fill:#d600ff;}.cls-9{fill:#6ae2af;stroke:#6ae2af;}.cls-10,.cls-12,.cls-9{stroke-miterlimit:10;}.cls-10,.cls-12{fill:none;}.cls-10{stroke:#fff;stroke-width:1.11px;}.cls-11{fill:#df643a;}.cls-12{stroke:#4651d5;stroke-width:2px;}</style>
  </defs>
  <path class="cls-2" d="M129.26,166.35A94.75,94.75,0,0,0,153.8,152.8a105.12,105.12,0,0,0,17.95-17.7A107,107,0,0,0,192.8,90.74a101.61,101.61,0,0,0,2-27.89c-.08-1.14-1.87-1.15-1.8,0a101.56,101.56,0,0,1-8.4,47.59,105.88,105.88,0,0,1-28.78,38.45,93,93,0,0,1-27,15.73c-1.07.4-.6,2.14.48,1.73Z"/>
  <path class="cls-3" d="M194.79,62.85c-1.1-15.13-7.11-30.49-18.61-40.73-12-10.7-29.87-14.06-44.61-7.08-7.11,3.37-12.92,8.84-18.59,14.19-2.87,2.7-5.74,5.42-8.81,7.9A97.78,97.78,0,0,1,93.1,44.79,142.74,142.74,0,0,1,68.81,56.05C62,58.53,55,60.56,48.12,62.74c-12.58,4-25.82,8.61-35.59,17.86A39.16,39.16,0,0,0,1.77,98.25a49.46,49.46,0,0,0,0,26.09,59.78,59.78,0,0,0,17.57,29.2c8.49,7.74,19,13,29.93,16.31a118,118,0,0,0,36,4.67,134.94,134.94,0,0,0,36-5.47c2.71-.8,5.4-1.71,8.06-2.7,1.07-.41.6-2.14-.48-1.73a129,129,0,0,1-34.14,7.61,125.44,125.44,0,0,1-35.71-1.8c-11.1-2.25-22-6.24-31.35-12.63a59,59,0,0,1-21-24.8C.48,119.14-.53,102,8,88.83c7.17-11.08,19.79-17.09,31.81-21.4,6-2.18,12.23-4,18.37-5.91a204.69,204.69,0,0,0,23-8.53A112.68,112.68,0,0,0,103.4,40c6.15-4.7,11.44-10.34,17.28-15.39s12.58-9.3,20.41-10.78a39.81,39.81,0,0,1,23.93,3C178.94,23.3,187.78,37.43,191.3,52A65.77,65.77,0,0,1,193,62.85c.09,1.15,1.88,1.16,1.8,0Z"/>
</svg>