<svg xmlns="http://www.w3.org/2000/svg" xmlns:xlink="http://www.w3.org/1999/xlink" viewBox="0 0 590.68 493.44"><defs><style>.cls-1{fill:none;}.cls-2{fill:#32323f;opacity:0.23;}.cls-3{fill:#2f3fba;}.cls-4{fill:url(#linear-gradient);}.cls-5{fill:url(#linear-gradient-2);}.cls-6{fill:url(#linear-gradient-3);}.cls-7{fill:url(#linear-gradient-4);}.cls-8{fill:url(#linear-gradient-5);}.cls-9{fill:url(#linear-gradient-6);}.cls-10{fill:url(#linear-gradient-7);}.cls-11{fill:url(#linear-gradient-8);}.cls-12{fill:url(#linear-gradient-9);}.cls-13{opacity:0.91;}.cls-14{fill:url(#linear-gradient-10);}.cls-15{fill:url(#linear-gradient-11);}.cls-16{fill:url(#linear-gradient-12);}.cls-17{fill:url(#linear-gradient-13);}.cls-18{fill:url(#linear-gradient-14);}.cls-19{fill:url(#linear-gradient-15);}.cls-20{fill:url(#linear-gradient-16);}.cls-21{fill:url(#linear-gradient-17);}.cls-22{fill:#e46339;}.cls-23{fill:#36b8c9;}.cls-24{fill:#00395e;}.cls-25{fill:#fff5d9;}.cls-26{fill:#0edddd;}.cls-27{fill:#6be3b0;}.cls-28{fill:#4651d5;}.cls-29{fill:#52d2eb;}.cls-30{fill:#ffa700;}.cls-31{fill:#bae7ec;}.cls-32{fill:#ffaa7e;}.cls-33{fill:#226878;}.cls-34{fill:#efb6af;}.cls-35{fill:#5c4f4f;}.cls-36{fill:#265364;}.cls-37{fill:#35a2a8;}.cls-38{fill:#8dc5df;}.cls-39{clip-path:url(#clip-path);}</style><linearGradient id="linear-gradient" x1="52.71" y1="165.58" x2="76.29" y2="165.58" gradientUnits="userSpaceOnUse"><stop offset="0" stop-color="#00a4e8"/><stop offset="0.54" stop-color="#00c8cf"/><stop offset="0.74" stop-color="#00dfe3"/><stop offset="0.96" stop-color="aqua"/></linearGradient><linearGradient id="linear-gradient-2" x1="81.59" y1="200.8" x2="113.63" y2="200.8" xlink:href="#linear-gradient"/><linearGradient id="linear-gradient-3" x1="31.33" y1="205.02" x2="72.03" y2="205.02" xlink:href="#linear-gradient"/><linearGradient id="linear-gradient-4" x1="30.93" y1="246.66" x2="81.64" y2="246.66" xlink:href="#linear-gradient"/><linearGradient id="linear-gradient-5" x1="97.44" y1="235.38" x2="128.55" y2="235.38" xlink:href="#linear-gradient"/><linearGradient id="linear-gradient-6" x1="52.95" y1="279.48" x2="98.47" y2="279.48" xlink:href="#linear-gradient"/><linearGradient id="linear-gradient-7" x1="89.7" y1="309.43" x2="135.22" y2="309.43" xlink:href="#linear-gradient"/><linearGradient id="linear-gradient-8" x1="113.7" y1="271.15" x2="135.01" y2="271.15" xlink:href="#linear-gradient"/><linearGradient id="linear-gradient-9" x1="70.39" y1="259.58" x2="183.1" y2="259.58" xlink:href="#linear-gradient"/><linearGradient id="linear-gradient-10" x1="554.18" y1="427.42" x2="590.68" y2="427.42" xlink:href="#linear-gradient"/><linearGradient id="linear-gradient-11" x1="517.36" y1="419.09" x2="545.66" y2="419.09" xlink:href="#linear-gradient"/><linearGradient id="linear-gradient-12" x1="533.74" y1="387.51" x2="576.35" y2="387.51" xlink:href="#linear-gradient"/><linearGradient id="linear-gradient-13" x1="511.15" y1="364.79" x2="548.02" y2="364.79" xlink:href="#linear-gradient"/><linearGradient id="linear-gradient-14" x1="488.27" y1="407.64" x2="511.94" y2="407.64" xlink:href="#linear-gradient"/><linearGradient id="linear-gradient-15" x1="481.29" y1="356.24" x2="511.73" y2="356.24" xlink:href="#linear-gradient"/><linearGradient id="linear-gradient-16" x1="462.73" y1="393.28" x2="479.55" y2="393.28" xlink:href="#linear-gradient"/><linearGradient id="linear-gradient-17" x1="395.73" y1="394.2" x2="552.84" y2="394.2" xlink:href="#linear-gradient"/><clipPath id="clip-path"><path class="cls-1" d="M271.86,48.05c-2.76,1.15-5.1,3.66-5.34,6.64a16.84,16.84,0,0,0,.34,3.81,28.22,28.22,0,0,1,.17,6.81,10.25,10.25,0,0,0,0,2.82,5.75,5.75,0,0,0,3.76,4,14.93,14.93,0,0,0,5.69.65c5.44-.13,11.1-.85,15.64-3.85a6.51,6.51,0,0,0,2-1.87,6.3,6.3,0,0,0,.79-3.26c.11-5.65-3-10.87-6.49-15.31a8.12,8.12,0,0,0-3.6-3c-2.31-.76-3,1.27-4.76,1.73-1.07.29-2.79-.21-3.95-.12A13.26,13.26,0,0,0,271.86,48.05Z"/></clipPath></defs><g id="Layer_2" data-name="Layer 2"><g id="Layer_3" data-name="Layer 3"><ellipse class="cls-2" cx="273.05" cy="469.8" rx="235.13" ry="23.64"/><path class="cls-3" d="M149.48,414.59a.78.78,0,0,0,.09-.4c-.26-12.64-11.37-25.62-21.51-30.4-6.41-3-13.34-4.86-20-6.64-4.48-1.2-9.11-2.43-13.53-4-27-9.58-48.48-33.79-54.84-61.69a.87.87,0,1,0-1.7.39c6.48,28.47,28.45,53.17,56,62.95,4.48,1.59,9.15,2.83,13.66,4,6.63,1.77,13.49,3.59,19.76,6.54,9.66,4.56,20.25,16.88,20.51,28.85a.87.87,0,0,0,1.65.37Z"/><path class="cls-3" d="M40.71,295.36c-.76-5.93-4.4-14.17-9.43-17.41a11.57,11.57,0,0,0-7.23-2A7.43,7.43,0,0,0,18,280c-1.14,2.57-.4,5.58.7,8.17a31.89,31.89,0,0,0,11.85,14.14c2.95,1.92,6.35,3.68,7.76,7.11C40.07,304.45,41.38,300.62,40.71,295.36Z"/><path class="cls-3" d="M22.82,321.26c-5.86-.7-12.17-.08-16.93,3.41s-7.4,10.22-5,15.6c2.34,5.18,8.56,7.69,14.24,7.39s11-2.84,16.07-5.35c4.08-2,14.89-6.47,14.89-6.47S31.87,322.34,22.82,321.26Z"/><path class="cls-3" d="M36.73,353.2A18,18,0,0,0,27.26,361a12.49,12.49,0,0,0-.44,12c2.81,5.07,9.62,6.92,15.22,5.38s8.13-4.53,13.57-10.38c1.91-2.06,10-9.56,10-9.56S47.4,349.36,36.73,353.2Z"/><path class="cls-3" d="M78.19,334.47a15.79,15.79,0,0,1,9.56-4.91,10.91,10.91,0,0,1,9.77,3.79c3.11,4,2.24,10.13-.94,14.09s-6.45,5-13,7.32c-2.32.82-11.15,4.75-11.15,4.75S71.41,341.72,78.19,334.47Z"/><path class="cls-3" d="M90.07,375s-21.82-1.89-28.84,13.52c-3.68,7.39-.83,15.66,4.91,18.47a10,10,0,0,0,2.15.77c5.73,1.35,11.32-2.81,12.34-8.61C82.15,390.6,85.5,375.23,90.07,375Z"/><path class="cls-3" d="M116,381.23s-17-1.46-22.43,10.52c-2.86,5.74-.64,12.17,3.82,14.35A7.85,7.85,0,0,0,108.7,400C109.88,393.34,112.49,381.39,116,381.23Z"/><path class="cls-3" d="M55.16,342.2s-1.85-14,1.45-25.07c2-6.81,7.84-12.09,14.94-12.55,3.79-.25,8.46,1.36,9.43,6.67.83,4.52-2.54,11.14-6.49,13.49C65.24,330.24,58,338.05,55.16,342.2Z"/><path class="cls-3" d="M99.64,373s0-27.17,16.27-29.69a8.09,8.09,0,0,1,9.19,6.1c.52,2.59,0,5.59-3.58,8a12.75,12.75,0,0,1-5.64,2C111.39,360,100.75,362.47,99.64,373Z"/><path class="cls-4" d="M58,173.63c-2.71-4.58-4.93-9.61-5.23-14.92s1.58-11,5.81-14.21,10.91-3.32,14.55.56c2.87,3.06,3.35,7.63,3.15,11.82A255.42,255.42,0,0,1,72.86,186c-1,5.77-3.57,2.26-6.36-.79A70.72,70.72,0,0,1,58,173.63Z"/><path class="cls-5" d="M86.5,188.86c2.65-4.78,6.68-9.59,12.13-10,4.27-.32,8.34,2.28,11,5.68a19.73,19.73,0,0,1-8.18,30.27c-4.4,1.79-15.18,7.25-19.81,7.95C81.59,222.76,82.57,195.92,86.5,188.86Z"/><path class="cls-6" d="M44,215.54c-4.58-3.26-9.85-6.19-11.86-11.43s-.14-12.23,5.07-14.35a11.35,11.35,0,0,1,9.06.68,28.24,28.24,0,0,1,7.36,5.71,111,111,0,0,1,10.06,11.61c2,2.63,8.36,13.18,8.36,13.18C60.24,221,47.14,217.8,44,215.54Z"/><path class="cls-7" d="M81.64,247s-34.17,27.2-50.21,5.16c0,0-6.27-26.76,25.58-17.77C57,234.39,75.47,241.59,81.64,247Z"/><path class="cls-8" d="M97.7,254.93s-4.13-38,20.62-39.11c0,0,11.49.79,10.12,14.47a17.88,17.88,0,0,1-7.3,12.46C116.64,246.09,109.15,250.66,97.7,254.93Z"/><path class="cls-9" d="M86.38,284.42c-4.28,2.71-8.31,5.89-13,7.83s-10.31,2.46-14.63-.17c-4.48-2.72-6.62-8.54-5.55-13.67A16.89,16.89,0,0,1,63,266.85c6.63-3,14.49-2,21.12,1,3,1.35,14.2,9.32,14.2,9.32C99.78,277,89.13,282.68,86.38,284.42Z"/><path class="cls-10" d="M123.13,314.38c-4.28,2.7-8.31,5.89-13,7.83s-10.31,2.46-14.63-.17C91,319.31,88.9,313.5,90,308.36a16.91,16.91,0,0,1,9.79-11.56c6.63-2.95,14.49-1.95,21.12,1,3,1.35,14.2,9.32,14.2,9.32C136.53,307,125.88,312.64,123.13,314.38Z"/><path class="cls-11" d="M124.2,279.31c2.63-2.2,5.51-4.14,7.72-6.76s3.69-6.12,2.85-9.45a9,9,0,0,0-7.78-6.37,11.51,11.51,0,0,0-9.51,3.94c-3.26,3.67-4.2,8.93-3.61,13.8.26,2.22,3.19,11,3.19,11C116.65,286.41,122.51,280.72,124.2,279.31Z"/><path class="cls-12" d="M183.1,326.4a.62.62,0,0,1,0,.19,1.1,1.1,0,0,1-1.27.9C180.87,327.32,88,309.9,70.4,192.92a1.1,1.1,0,0,1,2.18-.33C89.94,308,181.27,325.16,182.19,325.32A1.09,1.09,0,0,1,183.1,326.4Z"/><path class="cls-3" d="M390.85,390.57a1,1,0,0,1-.24-.41c-4.18-13.71,3.21-31.62,12.45-40.35,5.84-5.52,12.66-9.95,19.26-14.24,4.41-2.87,9-5.83,13.17-9.08,25.67-19.85,40.31-53.54,37.31-85.85a1,1,0,1,1,2-.19c3.07,33-11.87,67.36-38.07,87.6-4.27,3.3-8.86,6.29-13.3,9.18-6.52,4.24-13.27,8.63-19,14-8.81,8.32-15.87,25.35-11.91,38.34a1,1,0,0,1-.66,1.23A1,1,0,0,1,390.85,390.57Z"/><path class="cls-3" d="M466,223.66c-1.28-6.65-.26-16.82,4-22.09a13,13,0,0,1,7.09-4.72,8.39,8.39,0,0,1,8,2.25c2.14,2.36,2.4,5.86,2.13,9a36.24,36.24,0,0,1-7.77,19.43c-2.5,3.11-5.55,6.2-5.85,10.4C469.87,233.23,467.11,229.57,466,223.66Z"/><path class="cls-3" d="M494.39,245.26c6.07-2.83,13.09-4.39,19.45-2.31s11.58,8.4,10.86,15.06c-.69,6.4-6.51,11.31-12.73,13s-12.82.81-19.2-.09c-5.11-.71-18.34-1.72-18.34-1.72S485,249.61,494.39,245.26Z"/><path class="cls-3" d="M490.68,284.59a20.37,20.37,0,0,1,13,5.09c3.5,3.17,5.58,8.09,4.7,12.74-1.24,6.46-7.93,10.85-14.5,11.16s-10.37-2-18.29-6.39c-2.79-1.55-14.18-6.75-14.18-6.75S477.83,284.21,490.68,284.59Z"/><path class="cls-3" d="M439.38,279.05a17.76,17.76,0,0,0-12-1.91,12.34,12.34,0,0,0-9.19,7.53c-1.93,5.42,1.17,11.7,6,14.85s8.72,3.08,16.64,3.28c2.79.07,13.69,1.19,13.69,1.19S449.25,284.46,439.38,279.05Z"/><path class="cls-3" d="M440.9,326.94s22.85-9.74,35.86,4.39c6.57,6.65,6.42,16.58,1.23,21.63a11.19,11.19,0,0,1-2,1.59c-5.7,3.48-13.2,1-16.35-4.91C454.94,340.93,445.9,325.55,440.9,326.94Z"/><path class="cls-3" d="M415.11,342.8s17.76-7.56,27.88,3.42c5.11,5.17,5,12.89,1,16.82a9,9,0,0,1-1.59,1.23c-4.43,2.71-10.26.76-12.71-3.82C426,353.68,419,341.73,415.11,342.8Z"/><path class="cls-3" d="M466.94,279.25s-3-15.79-10.42-26.51c-4.6-6.62-12.72-10.26-20.53-8.25-4.17,1.07-8.64,4.46-7.81,10.52.7,5.16,6.67,11.11,11.75,12.25C451.85,269.92,462.45,275.76,466.94,279.25Z"/><path class="cls-3" d="M429.87,328.11s-9.61-29.27-28-26.25a9.16,9.16,0,0,0-7.75,9.82c.35,3,2,6,6.7,7.4a14.56,14.56,0,0,0,6.79.2C412.63,318.3,425,317.18,429.87,328.11Z"/><g class="cls-13"><path class="cls-14" d="M572.57,414.57c4.63,1.23,9.22,3.06,12.77,6.28s5.9,8,5.23,12.77-4.91,9-9.69,8.82c-3.77-.16-7-2.79-9.47-5.6a228,228,0,0,1-16.15-20.79c-3-4.31.87-3.7,4.58-3.5A63,63,0,0,1,572.57,414.57Z"/><path class="cls-15" d="M544.68,422.78c1.3,4.74,1.76,10.36-1.48,14.06-2.54,2.9-6.79,3.8-10.61,3.26a17.73,17.73,0,0,1-13.82-24.57c1.68-3.93,5.16-14.23,7.69-17.59C526.46,397.94,542.75,415.78,544.68,422.78Z"/><path class="cls-16" d="M555.14,378.86c5-.79,10.22-2.23,14.81-.13s7.8,7.76,5.79,12.39a10.18,10.18,0,0,1-6.24,5.28,25,25,0,0,1-8.32,1,99.22,99.22,0,0,1-13.77-1.11c-2.93-.44-13.67-3.18-13.67-3.18C541.29,385.63,551.68,379.41,555.14,378.86Z"/><path class="cls-17" d="M511.15,382.41s4.78-39,29-35c0,0,20.9,13.21-5.2,27.53C534.9,375,518.52,382,511.15,382.41Z"/><path class="cls-18" d="M495.85,387.45s26.58,21.76,11.42,38.09c0,0-7.87,6.74-15.62-2.91A16.06,16.06,0,0,1,488.49,410,85,85,0,0,1,495.85,387.45Z"/><path class="cls-19" d="M484.52,361.4c1-4.43,1.62-9,3.4-13.21s5.06-8.07,9.49-9.11c4.59-1.08,9.63,1.31,12.18,5.27a15.17,15.17,0,0,1,1,13.59c-2.4,6.08-8.07,10.39-14.18,12.67-2.79,1-15,3-15,3C480.6,374.61,483.85,364.25,484.52,361.4Z"/><path class="cls-20" d="M463.48,388.51c-.3,3.07-.93,6.14-.7,9.21s1.5,6.25,4.13,7.86a8.11,8.11,0,0,0,9-.82,10.33,10.33,0,0,0,3.62-8.52c-.22-4.41-2.93-8.37-6.38-11.13-1.57-1.26-9-5.08-9-5.08C463.84,379.2,463.67,386.54,463.48,388.51Z"/><path class="cls-21" d="M396,395.43a.69.69,0,0,1-.11-.13,1,1,0,0,1,.25-1.38c.71-.49,71.28-47.84,156.29,16.11a1,1,0,0,1-1.19,1.59c-83.88-63.11-153.28-16.55-154-16.07A1,1,0,0,1,396,395.43Z"/></g><rect class="cls-22" x="97.19" y="419.83" width="338.59" height="50.06" rx="7.71"/><rect class="cls-23" x="121.59" y="294.72" width="281.39" height="53.08"/><rect class="cls-24" x="107.28" y="222.69" width="309.61" height="72.03"/><rect class="cls-25" x="121.59" y="236.39" width="295.3" height="45.7"/><polygon class="cls-26" points="169.2 259.23 197 259.23 197 311.15 183.1 294.72 169.2 311.15 169.2 259.23"/><rect class="cls-27" x="107.28" y="347.8" width="309.61" height="72.03"/><rect class="cls-25" x="121.59" y="361.49" width="295.3" height="45.7"/><polygon class="cls-28" points="229.23 384.34 257.03 384.34 257.03 436.26 243.13 419.83 229.23 436.26 229.23 384.34"/><rect class="cls-29" x="274.01" y="294.72" width="128.98" height="53.08"/><rect class="cls-30" x="285.38" y="419.83" width="53.08" height="50.06"/><rect class="cls-28" x="121.59" y="361.49" width="4.98" height="45.7"/><rect class="cls-25" x="118.22" y="419.83" width="6.74" height="50.06"/><rect class="cls-25" x="133.31" y="419.83" width="6.74" height="50.06"/><circle class="cls-22" cx="312.14" cy="445.91" r="11.94" transform="translate(-223.88 351.32) rotate(-45)"/><path class="cls-22" d="M453.88,147.85A22.07,22.07,0,0,0,434,130.05,25.92,25.92,0,0,0,415,135V119.11h-83v80.72a22.82,22.82,0,0,0,22.81,22.82h37.41a22.8,22.8,0,0,0,22.74-21.3l30.39-27.78A27.56,27.56,0,0,0,453.88,147.85Zm-16,17.66-22.93,21v-33.7c1-2.8,5.67-13.3,17.94-11.85l.35,0a11,11,0,0,1,9.92,9.11A16.59,16.59,0,0,1,437.9,165.51Z"/><path class="cls-31" d="M377.67,107.8a26.45,26.45,0,0,1-15.73-13.7,28.59,28.59,0,0,1-2-5.39,27.72,27.72,0,0,1-.74-5.85,29,29,0,0,1,2.34-11.65,31.9,31.9,0,0,1,6.64-9.95,33,33,0,0,1,4.6-4,36.76,36.76,0,0,1,5.15-3,68.42,68.42,0,0,1,10.15-3.86c3.23-1,6.28-1.86,9-2.82a30.77,30.77,0,0,0,7.09-3.35A15.61,15.61,0,0,0,409,39.48a19.66,19.66,0,0,0,2.61-6.6,22.27,22.27,0,0,0,0-7.51c-.09-.63-.3-1.23-.41-1.88s-.35-1.22-.6-1.85a27.2,27.2,0,0,0-1.76-3.71A33.42,33.42,0,0,0,403.5,11,58.52,58.52,0,0,0,387.82,0,38.51,38.51,0,0,1,398,1.28a40.58,40.58,0,0,1,9.82,4,35.19,35.19,0,0,1,8.66,6.9,29.67,29.67,0,0,1,3.5,4.62c.53.83,1,1.74,1.47,2.63s.84,1.84,1.16,2.79A30,30,0,0,1,421,46.31,28,28,0,0,1,412.55,56,40.66,40.66,0,0,1,402,61.36c-6.92,2.38-13.28,3.47-18.33,5.52-.65.23-1.25.51-1.83.78s-1.14.58-1.71.86A25.16,25.16,0,0,0,377,70.64a21.23,21.23,0,0,0-2.8,2.65,20.4,20.4,0,0,0-2.38,3.08,20.85,20.85,0,0,0-3.11,15.39A29.9,29.9,0,0,0,377.67,107.8Z"/><rect class="cls-24" x="368.55" y="195.47" width="3.9" height="290.79" transform="translate(-50.3 64.48) rotate(-9.32)"/><rect class="cls-24" x="412.5" y="194.17" width="3.9" height="290.79" transform="translate(-49.51 71.58) rotate(-9.32)"/><rect class="cls-24" x="348.2" y="207.01" width="46.23" height="3.9"/><rect class="cls-24" x="352.16" y="235.49" width="44.93" height="3.9"/><rect class="cls-24" x="356.64" y="261.79" width="46.23" height="3.9"/><rect class="cls-24" x="361.12" y="288.08" width="46.23" height="3.9"/><polygon class="cls-24" points="410.53 318.27 365.6 318.27 364.31 314.37 410.53 314.37 410.53 318.27"/><rect class="cls-24" x="370.09" y="340.66" width="46.23" height="3.9"/><rect class="cls-24" x="374.57" y="366.95" width="46.23" height="3.9"/><polygon class="cls-24" points="425.28 397.14 380.35 397.14 379.05 393.24 423.98 393.24 425.28 397.14"/><polygon class="cls-24" points="429.76 423.43 383.53 423.43 383.53 419.54 428.46 419.54 429.76 423.43"/><polygon class="cls-24" points="434.24 449.72 388.01 449.72 388.01 445.83 432.94 445.83 434.24 449.72"/><polygon class="cls-24" points="438.73 476.01 392.5 476.01 392.5 472.12 437.43 472.12 438.73 476.01"/><path class="cls-32" d="M279,46.49c-4.28.34-8.67,2.53-10.43,6.44-1.84,4.07-.49,9-2,13.19-.66,1.84-1.78,4.08-.47,5.53.69.76,1.81.94,2.62,1.56,2.57,2,.31,6.4,1.85,9.26s5.27,2.64,8.34,2.37S285,86.06,285.73,89c5.18-2.65,11.75-5.42,17.5-6.32-2.84-2.63-2.61-7.19-1.5-10.89s2.91-7.39,2.48-11.23C303,49.44,288.14,45.75,279,46.49Z"/><path class="cls-3" d="M307.19,58.51a19,19,0,0,0-9.53-15.1,22.23,22.23,0,0,0-18-1.55c-6.27,2.12-12.35,6.88-18.76,5.23,3.24,4.44,7.35,9.34,12.85,9.26,3.35-.05,6.94-2,9.85-.32,3.14,1.8,3,6.44,1.63,9.8s-3.46,6.75-2.83,10.31c-2.7-1.72-5.52-3.49-8.7-3.82s-6.81,1.28-7.68,4.36c-1,3.48,1.78,6.81,2.59,10.33.4,1.72.33,3.53.88,5.2s2,3.27,3.77,3.11a5.49,5.49,0,0,0,2.44-1.12l9.16-6.27c2.75-1.87,5.62-3.89,7.07-6.88,2.44-5,.14-11-2.16-16.07a3.86,3.86,0,1,1,5.29,5.59c1.63,1.46,2.7,3.17,4.89,2.55,1.56-.44,3.27-2.82,4.15-4.07A17.82,17.82,0,0,0,307.19,58.51Z"/><path class="cls-33" d="M322.64,186.3c-2.61-2.87-10.9-.1-14.1.51-5.09,1-10.49,2-15.5.08-3.63-1.37-6.55-4.1-10-5.95-4.53-2.47-7.15-7.19-12.25-8-16.16-2.51-32.32-6.32-48.48-8.83a54.27,54.27,0,0,0-20.47,1.15c-6.83,2-17.2,10.22-23.12,14.16-18.88,12.57-38.29,30.49-39.47,31.35l26,5.54c5.51-4.61,38.2-23.95,42.17-25.15,4.76-1.44,12.43,1.82,16.95,3.91,13.13,6.09,20.43,17.53,34.06,22.4s29,6.87,42.47,1.61A37.09,37.09,0,0,0,314,210.36a34.22,34.22,0,0,0,7.56-11.74C322.58,195.88,325,188.88,322.64,186.3Z"/><path class="cls-34" d="M125.35,214.65c-2.16.89-4.41,2.72-4.12,5a4.3,4.3,0,0,0,3.12,3.26,12.53,12.53,0,0,0,4.73.24l23.3-1.79a9.44,9.44,0,0,0,4.46-1.1c2.83-1.83,2.87-5.93,2.2-9.24s.33-6.07,1.59-9.35c-4.23-.13-14,1.95-14,1.95-.75,2.88.11.91-2,3.35C139.73,212.74,131.81,212,125.35,214.65Z"/><path class="cls-35" d="M135.2,214.13a12,12,0,0,0-4.46-1.12c-1.05,0-6.91,1.19-9.61,4.24-.84,1-1.81,2.07-1.45,3.29a3.3,3.3,0,0,0,1.77,1.79,13.46,13.46,0,0,0,5.52,1.16c9.83.47,19.65-1.8,29.44-.88a3.4,3.4,0,0,0,1.88-.16,2.88,2.88,0,0,0,1.2-2.2,24.82,24.82,0,0,0,.24-7.2c-.16-1.42-.33-1.7-1.64-1-1,.52-1.9,1-2.91,1.46a27.82,27.82,0,0,1-12.8,2.12A26.79,26.79,0,0,1,135.2,214.13Z"/><path class="cls-32" d="M97.23,186.06c-1.52-2.35-4.14-4.6-6.8-3.76a5.12,5.12,0,0,0-3.17,4.36,15.1,15.1,0,0,0,.74,5.6l7.08,27a11.34,11.34,0,0,0,2.25,5c2.75,2.93,7.58,2.1,11.31.6s8.45-2.71,12.57-1.93c-.75-5-.44-15.35-.44-15.35-3.54-.27-7.14,1.44-10.45-.49C102.55,202.52,101.76,193.06,97.23,186.06Z"/><path class="cls-24" d="M99.94,197.5a14.29,14.29,0,0,0,.37-5.47c-.28-1.22-2.88-7.86-7-10.37-1.31-.79-2.82-1.69-4.17-1a4,4,0,0,0-1.73,2.46,16.05,16.05,0,0,0-.18,6.73c.85,6.37,2.66,12.55,4.29,18.76.83,3.16,1.62,6.33,2.21,9.55s-.58,8.38,3.67,9.31c2.86.64,6.38-.58,9.1-1.4,1.64-.49,1.92-.75.82-2.14-.81-1-1.62-2-2.34-3.1a33.18,33.18,0,0,1-5.22-14.57A31.74,31.74,0,0,1,99.94,197.5Z"/><path class="cls-36" d="M322.44,173.83c-3.43-1.79-10.27,3.66-13.06,5.33-4.45,2.67-9.17,5.48-14.53,5.42-3.87,0-7.56-1.6-11.39-2.17-5.11-.76-10.29.26-15.35,1.27-13.9,2.77-49.27,7-63.17,9.75-32.39,3.22-51.41,11-84.54,13.78-2.3.19,0,13.68.74,16.61,31,0,48.06,0,88.25-6.54,12,1.18,30.2,5.88,44,6.08,15.79.23,18.67-.52,34.55,0,19.26.63,28.41-7.3,34.68-21.36,1.9-4.27,3-11.53,3.05-16.22C325.68,182.85,325.53,175.45,322.44,173.83Z"/><path class="cls-37" d="M325.28,188.58S336.49,149,329,123.88c-9.23-30.83-23-38.71-25.92-41.49,0,0-18.19,0-26.45,16.46,0,0-7.29,58-3.6,81.6C273,180.45,292.56,202.52,325.28,188.58Z"/><path class="cls-32" d="M279.15,97.23a11.27,11.27,0,0,0-5.65,6.89,33.07,33.07,0,0,0-1.26,9q-.92,19.89-1.84,39.8l-24.46-5.6c-5.82-1.33-11.73-2.69-17-5.51-3.89-2.08-7.62-5-12-5.14-5-.16-9.28,3.29-12.92,6.7-2.91,2.74-5.68,4.33-8.45,7.2-1.38,1.43,0,2.41.53,2.35,4.34-.49,7.73-6.88,12.3-6,3.14.63,4.7,4.45,7.73,5.51s6.07-.86,9.19-1c3.62-.2,6.9,1.94,9.93,3.93,10,6.51,20.48,12.27,31.74,16.09,5.13,1.74,10.84,3,15.85,1a17.17,17.17,0,0,0,8.35-8.25,50.77,50.77,0,0,0,3.8-11.34c3.9-15.61,10.58-38.64-2.82-51.95C288.87,97.7,283.73,95.17,279.15,97.23Z"/><path class="cls-38" d="M250.06,165h0a2.86,2.86,0,0,0-2.77-2.9L180,160.44,165.43,94.6a2.83,2.83,0,1,0-5.53,1.22l14.94,67.75a3.45,3.45,0,0,0,3,2.48l69.36,1.71A2.86,2.86,0,0,0,250.06,165Z"/><path class="cls-24" d="M179.84,160.5h0a1.21,1.21,0,0,0,.94-1.44l-13.2-62.77a1.23,1.23,0,0,0-1.44-.94h0a1.22,1.22,0,0,0-.94,1.45l13.2,62.76A1.22,1.22,0,0,0,179.84,160.5Z"/><g class="cls-39"><path class="cls-22" d="M259.38,69.47a6,6,0,1,1,5.92-7.34.23.23,0,0,1,0,.16c-.12.14-.4.22-3.35.17h-.52v-.33h.52a29.16,29.16,0,0,0,3-.06,5.73,5.73,0,1,0,.16,1.34h.32A6.05,6.05,0,0,1,259.38,69.47Z"/><path class="cls-22" d="M265.11,63.51a1.29,1.29,0,0,1,.31-1,1.51,1.51,0,0,1,1.31-.33l0,.33a1.19,1.19,0,0,0-1,.22,1,1,0,0,0-.23.75Z"/><path class="cls-22" d="M273.53,69.47a6.06,6.06,0,0,1-6-6h.33a5.74,5.74,0,1,0,.16-1.34c.54.1,3,.07,3.79.05h.54v.33h-.54c-3.64,0-4,0-4.1-.17a.2.2,0,0,1,0-.16,6,6,0,1,1,5.91,7.34Z"/><path class="cls-22" d="M267.81,63.48l-.33,0,.16,0-.16,0a1,1,0,0,0-.23-.74,1.21,1.21,0,0,0-1-.23l0-.32a1.49,1.49,0,0,1,1.32.32A1.35,1.35,0,0,1,267.81,63.48Z"/><path class="cls-22" d="M263.29,62.11c0,.69-1.23,1.25-2.75,1.25s-2.75-.56-2.75-1.25"/><path class="cls-22" d="M275.7,62.11c0,.69-1.23,1.25-2.75,1.25s-2.74-.56-2.74-1.25"/><path class="cls-22" d="M259.38,69.47a6,6,0,1,1,5.92-7.34.23.23,0,0,1,0,.16c-.12.14-.4.22-3.35.17h-.52v-.33h.52a29.16,29.16,0,0,0,3-.06,5.73,5.73,0,1,0,.16,1.34h.32A6.05,6.05,0,0,1,259.38,69.47Z"/><path class="cls-22" d="M265.11,63.51a1.29,1.29,0,0,1,.31-1,1.51,1.51,0,0,1,1.31-.33l0,.33a1.19,1.19,0,0,0-1,.22,1,1,0,0,0-.23.75Z"/><path class="cls-22" d="M273.53,69.47a6.06,6.06,0,0,1-6-6h.33a5.74,5.74,0,1,0,.16-1.34c.54.1,3,.07,3.79.05h.54v.33h-.54c-3.64,0-4,0-4.1-.17a.2.2,0,0,1,0-.16,6,6,0,1,1,5.91,7.34Z"/><path class="cls-22" d="M267.81,63.48l-.33,0,.16,0-.16,0a1,1,0,0,0-.23-.74,1.21,1.21,0,0,0-1-.23l0-.32a1.49,1.49,0,0,1,1.32.32A1.35,1.35,0,0,1,267.81,63.48Z"/><path class="cls-22" d="M263.29,62.11c0,.69-1.23,1.25-2.75,1.25s-2.75-.56-2.75-1.25"/><path class="cls-22" d="M275.7,62.11c0,.69-1.23,1.25-2.75,1.25s-2.74-.56-2.74-1.25"/></g></g></g></svg>