<?xml version="1.0" encoding="utf-8"?>
<svg viewBox="378.36 477.277 241.71 273.543" xmlns="http://www.w3.org/2000/svg">
  <defs>
    <linearGradient id="linear-gradient-3" x1="16098.81" y1="-9274.67" x2="16057.87" y2="-9274.06" gradientTransform="translate(17701.1 -6395.35) rotate(-171.91)" gradientUnits="userSpaceOnUse">
      <stop offset="0" stop-color="#0041ff"/>
      <stop offset="0.22" stop-color="#3b2cf6"/>
      <stop offset="0.44" stop-color="#7119ed"/>
      <stop offset="0.64" stop-color="#980ce7"/>
      <stop offset="0.79" stop-color="#b003e3"/>
      <stop offset="0.89" stop-color="#b900e2"/>
    </linearGradient>
    <style>.cls-1{fill:#fff;}.cls-2,.cls-3{opacity:0.91;}.cls-2{fill:url(#linear-gradient);}.cls-3{fill:url(#linear-gradient-2);}.cls-4{fill:#4651d5;}.cls-5{fill:#121e5a;}.cls-6{fill:#ff6e00;}.cls-7{fill:url(#linear-gradient-3);}.cls-8{fill:#d600ff;}.cls-9{fill:#6ae2af;stroke:#6ae2af;}.cls-10,.cls-12,.cls-9{stroke-miterlimit:10;}.cls-10,.cls-12{fill:none;}.cls-10{stroke:#fff;stroke-width:1.11px;}.cls-11{fill:#df643a;}.cls-12{stroke:#4651d5;stroke-width:2px;}</style>
  </defs>
  <g id="Layer_3" data-name="Layer 3">
    <path class="cls-6" d="M538,714.83a2.52,2.52,0,1,0-2.51-2.54A2.52,2.52,0,0,0,538,714.83Z"/>
    <path class="cls-6" d="M545.66,609.94a2.53,2.53,0,1,0-2.51-2.54A2.53,2.53,0,0,0,545.66,609.94Z"/>
    <circle class="cls-6" cx="538.7" cy="647.74" r="2.52"/>
    <path class="cls-6" d="M537.76,747.12a2.53,2.53,0,1,0-2.51-2.54A2.52,2.52,0,0,0,537.76,747.12Z"/>
    <path class="cls-6" d="M538.59,666.4a2.52,2.52,0,1,0-2.51-2.54A2.52,2.52,0,0,0,538.59,666.4Z"/>
    <path class="cls-6" d="M538.06,698.69a2.53,2.53,0,1,0-2.51-2.54A2.52,2.52,0,0,0,538.06,698.69Z"/>
    <path class="cls-6" d="M538.15,682.54a2.52,2.52,0,1,0-2.5-2.53A2.52,2.52,0,0,0,538.15,682.54Z"/>
    <path class="cls-6" d="M537.86,731a2.53,2.53,0,1,0-2.51-2.54A2.54,2.54,0,0,0,537.86,731Z"/>
    <path class="cls-6" d="M545.07,706.8a2.52,2.52,0,1,0-2.51-2.54A2.52,2.52,0,0,0,545.07,706.8Z"/>
    <path class="cls-6" d="M545.17,690.66a2.53,2.53,0,1,0-2.51-2.54A2.53,2.53,0,0,0,545.17,690.66Z"/>
    <path class="cls-6" d="M545.37,658.37a2.52,2.52,0,1,0-2.51-2.54A2.52,2.52,0,0,0,545.37,658.37Z"/>
    <path class="cls-6" d="M545.76,593.79a2.52,2.52,0,1,0-2.51-2.53A2.52,2.52,0,0,0,545.76,593.79Z"/>
    <path class="cls-6" d="M545.56,626.08a2.52,2.52,0,1,0-2.51-2.54A2.52,2.52,0,0,0,545.56,626.08Z"/>
    <path class="cls-6" d="M545.46,642.23a2.53,2.53,0,1,0-2.5-2.54A2.52,2.52,0,0,0,545.46,642.23Z"/>
    <path class="cls-6" d="M545.27,674.51a2.52,2.52,0,1,0-2.51-2.53A2.51,2.51,0,0,0,545.27,674.51Z"/>
    <path class="cls-6" d="M529.22,658.27a2.52,2.52,0,1,0-2.51-2.54A2.52,2.52,0,0,0,529.22,658.27Z"/>
    <path class="cls-6" d="M529.32,642.13a2.53,2.53,0,1,0-2.51-2.54A2.53,2.53,0,0,0,529.32,642.13Z"/>
    <path class="cls-6" d="M529.12,674.42a2.53,2.53,0,1,0-2.5-2.54A2.53,2.53,0,0,0,529.12,674.42Z"/>
    <path class="cls-6" d="M529.72,576a2.53,2.53,0,1,0-2.5-2.54A2.52,2.52,0,0,0,529.72,576Z"/>
    <path class="cls-6" d="M529.42,626a2.52,2.52,0,1,0-2.51-2.53A2.52,2.52,0,0,0,529.42,626Z"/>
    <path class="cls-6" d="M529,690.56a2.52,2.52,0,1,0-2.5-2.54A2.52,2.52,0,0,0,529,690.56Z"/>
    <path class="cls-6" d="M529.52,609.84A2.52,2.52,0,1,0,527,607.3,2.51,2.51,0,0,0,529.52,609.84Z"/>
    <path class="cls-6" d="M538.79,634.11a2.52,2.52,0,1,0-2.51-2.53A2.51,2.51,0,0,0,538.79,634.11Z"/>
    <path class="cls-6" d="M528.93,706.7a2.52,2.52,0,1,0-2.51-2.53A2.51,2.51,0,0,0,528.93,706.7Z"/>
    <circle class="cls-6" cx="539.1" cy="583.16" r="2.52" transform="translate(-252.74 643.94) rotate(-51.64)"/>
    <path class="cls-6" d="M538.88,618a2.53,2.53,0,1,0-2.5-2.54A2.52,2.52,0,0,0,538.88,618Z"/>
    <circle class="cls-6" cx="539" cy="599.3" r="2.52" transform="matrix(1, -0.04, 0.04, 1, -23.33, 21.83)"/>
    <path class="cls-6" d="M528.73,739a2.52,2.52,0,1,0-2.51-2.54A2.52,2.52,0,0,0,528.73,739Z"/>
    <path class="cls-6" d="M528.83,722.85a2.53,2.53,0,1,0-2.51-2.54A2.53,2.53,0,0,0,528.83,722.85Z"/>
    <path class="cls-6" d="M561.21,706.9a2.52,2.52,0,1,0-2.5-2.54A2.52,2.52,0,0,0,561.21,706.9Z"/>
    <path class="cls-6" d="M529.61,593.7a2.53,2.53,0,1,0-2.5-2.54A2.53,2.53,0,0,0,529.61,593.7Z"/>
    <path class="cls-6" d="M561.31,690.76a2.53,2.53,0,1,0-2.5-2.54A2.52,2.52,0,0,0,561.31,690.76Z"/>
    <path class="cls-6" d="M561.12,723.05a2.53,2.53,0,1,0-2.51-2.54A2.53,2.53,0,0,0,561.12,723.05Z"/>
    <path class="cls-6" d="M561.51,658.47a2.53,2.53,0,1,0-2.51-2.54A2.52,2.52,0,0,0,561.51,658.47Z"/>
    <path class="cls-6" d="M545,723a2.53,2.53,0,1,0-2.51-2.54A2.53,2.53,0,0,0,545,723Z"/>
    <path class="cls-6" d="M561.71,626.18a2.52,2.52,0,1,0-2.51-2.54A2.51,2.51,0,0,0,561.71,626.18Z"/>
    <path class="cls-6" d="M561.41,674.61a2.52,2.52,0,1,0-2.51-2.53A2.52,2.52,0,0,0,561.41,674.61Z"/>
    <path class="cls-6" d="M561,739.19a2.53,2.53,0,1,0-2.51-2.54A2.51,2.51,0,0,0,561,739.19Z"/>
    <path class="cls-6" d="M571,650.45a2.52,2.52,0,1,0-2.51-2.53A2.51,2.51,0,0,0,571,650.45Z"/>
    <path class="cls-6" d="M571.07,634.31a2.52,2.52,0,1,0-2.5-2.54A2.52,2.52,0,0,0,571.07,634.31Z"/>
    <path class="cls-6" d="M561,750.29a2.43,2.43,0,0,0-1.56.53c.94-.05,1.88-.11,2.81-.19A2.51,2.51,0,0,0,561,750.29Z"/>
    <path class="cls-6" d="M570.88,666.6a2.53,2.53,0,1,0-2.51-2.54A2.53,2.53,0,0,0,570.88,666.6Z"/>
    <path class="cls-6" d="M571.27,602a2.52,2.52,0,1,0-2.51-2.54A2.52,2.52,0,0,0,571.27,602Z"/>
    <path class="cls-6" d="M571.17,618.17a2.53,2.53,0,1,0-2.5-2.54A2.52,2.52,0,0,0,571.17,618.17Z"/>
    <path class="cls-6" d="M561.61,642.33a2.53,2.53,0,1,0-2.51-2.54A2.54,2.54,0,0,0,561.61,642.33Z"/>
    <path class="cls-6" d="M555,618.07a2.53,2.53,0,1,0-2.51-2.54A2.53,2.53,0,0,0,555,618.07Z"/>
    <path class="cls-6" d="M554.93,634.21a2.52,2.52,0,1,0-2.51-2.54A2.52,2.52,0,0,0,554.93,634.21Z"/>
    <path class="cls-6" d="M555.23,585.78a2.52,2.52,0,1,0-2.51-2.54A2.52,2.52,0,0,0,555.23,585.78Z"/>
    <path class="cls-6" d="M554.83,650.36a2.53,2.53,0,1,0-2.51-2.54A2.54,2.54,0,0,0,554.83,650.36Z"/>
    <path class="cls-6" d="M544.87,739.09a2.52,2.52,0,1,0-2.5-2.54A2.52,2.52,0,0,0,544.87,739.09Z"/>
    <path class="cls-6" d="M553.94,742.17a2.53,2.53,0,1,0,2.5,2.54A2.52,2.52,0,0,0,553.94,742.17Z"/>
    <path class="cls-6" d="M555.13,601.92a2.52,2.52,0,1,0-2.51-2.53A2.51,2.51,0,0,0,555.13,601.92Z"/>
    <path class="cls-6" d="M561.9,593.89a2.52,2.52,0,1,0-2.5-2.53A2.52,2.52,0,0,0,561.9,593.89Z"/>
    <path class="cls-6" d="M554.1,714.93a2.52,2.52,0,1,0-2.51-2.54A2.52,2.52,0,0,0,554.1,714.93Z"/>
    <path class="cls-6" d="M554,731.07a2.52,2.52,0,1,0-2.5-2.53A2.52,2.52,0,0,0,554,731.07Z"/>
    <path class="cls-6" d="M554.73,666.5a2.52,2.52,0,1,0-2.5-2.54A2.52,2.52,0,0,0,554.73,666.5Z"/>
    <path class="cls-6" d="M561.8,610a2.53,2.53,0,1,0-2.5-2.54A2.52,2.52,0,0,0,561.8,610Z"/>
    <path class="cls-6" d="M554.3,682.64a2.52,2.52,0,1,0-2.51-2.54A2.52,2.52,0,0,0,554.3,682.64Z"/>
    <path class="cls-6" d="M554.2,698.79a2.53,2.53,0,1,0-2.51-2.54A2.54,2.54,0,0,0,554.2,698.79Z"/>
    <path class="cls-6" d="M594,626.38a2.53,2.53,0,1,0-2.5-2.54A2.52,2.52,0,0,0,594,626.38Z"/>
    <path class="cls-6" d="M593.3,739.39a2.53,2.53,0,1,0-2.5-2.54A2.53,2.53,0,0,0,593.3,739.39Z"/>
    <path class="cls-6" d="M602,634.5a2.53,2.53,0,1,0-2.51-2.54A2.51,2.51,0,0,0,602,634.5Z"/>
    <path class="cls-6" d="M601.92,650.64a2.52,2.52,0,1,0-2.51-2.53A2.52,2.52,0,0,0,601.92,650.64Z"/>
    <path class="cls-6" d="M593.4,723.24a2.52,2.52,0,1,0-2.5-2.54A2.52,2.52,0,0,0,593.4,723.24Z"/>
    <path class="cls-6" d="M593.7,674.81a2.52,2.52,0,1,0-2.51-2.54A2.52,2.52,0,0,0,593.7,674.81Z"/>
    <path class="cls-6" d="M593.6,691a2.52,2.52,0,1,0-2.51-2.53A2.52,2.52,0,0,0,593.6,691Z"/>
    <path class="cls-6" d="M593.5,707.1a2.53,2.53,0,1,0-2.51-2.54A2.53,2.53,0,0,0,593.5,707.1Z"/>
    <path class="cls-6" d="M593.8,658.67a2.53,2.53,0,1,0-2.51-2.54A2.54,2.54,0,0,0,593.8,658.67Z"/>
    <path class="cls-6" d="M601.09,731.36a2.52,2.52,0,1,0-2.51-2.54A2.52,2.52,0,0,0,601.09,731.36Z"/>
    <path class="cls-6" d="M601.19,715.22a2.53,2.53,0,1,0-2.51-2.54A2.53,2.53,0,0,0,601.19,715.22Z"/>
    <path class="cls-6" d="M608.5,674.9a2.52,2.52,0,1,0-2.51-2.54A2.52,2.52,0,0,0,608.5,674.9Z"/>
    <path class="cls-6" d="M601.29,699.07a2.52,2.52,0,1,0-2.51-2.53A2.51,2.51,0,0,0,601.29,699.07Z"/>
    <path class="cls-6" d="M601.39,682.93a2.53,2.53,0,1,0-2.51-2.54A2.52,2.52,0,0,0,601.39,682.93Z"/>
    <path class="cls-6" d="M601.82,666.79a2.53,2.53,0,1,0-2.51-2.54A2.53,2.53,0,0,0,601.82,666.79Z"/>
    <path class="cls-6" d="M587.12,650.55a2.52,2.52,0,1,0-2.51-2.53A2.52,2.52,0,0,0,587.12,650.55Z"/>
    <path class="cls-6" d="M586.22,742.37a2.51,2.51,0,0,0-2.53,2.51,2.32,2.32,0,0,0,.06.59c1.53-.64,3-1.32,4.49-2.07A2.54,2.54,0,0,0,586.22,742.37Z"/>
    <path class="cls-6" d="M608.6,658.76a2.53,2.53,0,1,0-2.51-2.54A2.52,2.52,0,0,0,608.6,658.76Z"/>
    <path class="cls-6" d="M587.32,618.27a2.53,2.53,0,1,0-2.51-2.54A2.52,2.52,0,0,0,587.32,618.27Z"/>
    <path class="cls-6" d="M587.22,634.41a2.53,2.53,0,1,0-2.51-2.54A2.52,2.52,0,0,0,587.22,634.41Z"/>
    <path class="cls-6" d="M504.4,563.78a2.53,2.53,0,1,0,4.79-1.1h0c-1.39-.18-2.79-.33-4.19-.46A2.52,2.52,0,0,0,504.4,563.78Z"/>
    <path class="cls-6" d="M426.07,585a2.52,2.52,0,0,0,1.54-4.53c-1.2.73-2.54,1.57-4,2.52A2.51,2.51,0,0,0,426.07,585Z"/>
    <path class="cls-6" d="M488.26,563.68a2.52,2.52,0,1,0,5,0,2.49,2.49,0,0,0-.94-2c-1.09,0-2.17,0-3.26.09A2.5,2.5,0,0,0,488.26,563.68Z"/>
    <path class="cls-6" d="M587,666.7a2.53,2.53,0,1,0-2.51-2.54A2.53,2.53,0,0,0,587,666.7Z"/>
    <path class="cls-6" d="M570.44,682.74a2.52,2.52,0,1,0-2.5-2.54A2.52,2.52,0,0,0,570.44,682.74Z"/>
    <path class="cls-6" d="M593.9,642.52a2.52,2.52,0,1,0-2.51-2.54A2.51,2.51,0,0,0,593.9,642.52Z"/>
    <path class="cls-6" d="M586.39,715.13a2.53,2.53,0,1,0-2.51-2.54A2.53,2.53,0,0,0,586.39,715.13Z"/>
    <path class="cls-6" d="M586.29,731.27a2.52,2.52,0,1,0-2.51-2.54A2.52,2.52,0,0,0,586.29,731.27Z"/>
    <path class="cls-6" d="M586.59,682.84a2.53,2.53,0,1,0-2.51-2.54A2.51,2.51,0,0,0,586.59,682.84Z"/>
    <path class="cls-6" d="M586.49,699a2.52,2.52,0,1,0-2.51-2.53A2.52,2.52,0,0,0,586.49,699Z"/>
    <path class="cls-6" d="M522.74,617.87a2.52,2.52,0,1,0-2.51-2.54A2.52,2.52,0,0,0,522.74,617.87Z"/>
    <path class="cls-6" d="M522.84,601.73a2.53,2.53,0,1,0-2.51-2.54A2.53,2.53,0,0,0,522.84,601.73Z"/>
    <path class="cls-6" d="M522.94,585.58a2.52,2.52,0,1,0-2.51-2.53A2.52,2.52,0,0,0,522.94,585.58Z"/>
    <path class="cls-6" d="M522.64,634a2.53,2.53,0,1,0-2.5-2.54A2.53,2.53,0,0,0,522.64,634Z"/>
    <path class="cls-6" d="M521.65,742a2.47,2.47,0,0,0-1.47.46c1.31.63,2.63,1.22,4,1.79A2.51,2.51,0,0,0,521.65,742Z"/>
    <path class="cls-6" d="M512.68,722.75a2.53,2.53,0,1,0-2.5-2.54A2.52,2.52,0,0,0,512.68,722.75Z"/>
    <path class="cls-6" d="M512.88,690.46a2.52,2.52,0,1,0-2.51-2.54A2.52,2.52,0,0,0,512.88,690.46Z"/>
    <path class="cls-6" d="M512.78,706.61a2.53,2.53,0,1,0-2.51-2.54A2.53,2.53,0,0,0,512.78,706.61Z"/>
    <path class="cls-6" d="M522,682.45a2.53,2.53,0,1,0-2.51-2.54A2.54,2.54,0,0,0,522,682.45Z"/>
    <path class="cls-6" d="M521.81,714.73a2.52,2.52,0,1,0-2.5-2.53A2.52,2.52,0,0,0,521.81,714.73Z"/>
    <path class="cls-6" d="M608.4,691a2.52,2.52,0,1,0-2.51-2.53A2.52,2.52,0,0,0,608.4,691Z"/>
    <path class="cls-6" d="M521.91,698.59a2.53,2.53,0,1,0-2.51-2.54A2.52,2.52,0,0,0,521.91,698.59Z"/>
    <path class="cls-6" d="M513,674.32a2.53,2.53,0,1,0-2.51-2.54A2.53,2.53,0,0,0,513,674.32Z"/>
    <path class="cls-6" d="M522.45,666.3a2.52,2.52,0,1,0-2.51-2.53A2.51,2.51,0,0,0,522.45,666.3Z"/>
    <path class="cls-6" d="M522.54,650.16a2.53,2.53,0,1,0-2.5-2.54A2.52,2.52,0,0,0,522.54,650.16Z"/>
    <path class="cls-6" d="M521.72,730.88a2.53,2.53,0,1,0-2.51-2.54A2.52,2.52,0,0,0,521.72,730.88Z"/>
    <path class="cls-6" d="M617.46,694.13a2.52,2.52,0,1,0,2.3,3.52l.18-1.35A2.51,2.51,0,0,0,617.46,694.13Z"/>
    <path class="cls-6" d="M617.56,678a2.53,2.53,0,1,0,2.51,2.54A2.53,2.53,0,0,0,617.56,678Z"/>
    <path class="cls-6" d="M615.46,664.35a2.52,2.52,0,0,0,2.5,2.54,2.55,2.55,0,0,0,.84-.14c-.31-1.65-.65-3.28-1-4.9A2.52,2.52,0,0,0,615.46,664.35Z"/>
    <path class="cls-6" d="M614.83,712.78a2.51,2.51,0,0,0,.48,1.5c.54-1.3,1-2.61,1.48-3.94A2.5,2.5,0,0,0,614.83,712.78Z"/>
    <path class="cls-6" d="M608.2,723.33a2.52,2.52,0,1,0-2.51-2.54A2.52,2.52,0,0,0,608.2,723.33Z"/>
    <path class="cls-6" d="M608.3,707.19a2.53,2.53,0,1,0-2.51-2.54A2.53,2.53,0,0,0,608.3,707.19Z"/>
    <path class="cls-6" d="M513.18,642a2.53,2.53,0,1,0-2.51-2.54A2.51,2.51,0,0,0,513.18,642Z"/>
    <path class="cls-6" d="M606.19,640.07a2.52,2.52,0,0,0,4.76,1.17c-.52-1.2-1.05-2.4-1.61-3.59a2.43,2.43,0,0,0-.61-.08A2.52,2.52,0,0,0,606.19,640.07Z"/>
    <path class="cls-6" d="M513.37,609.74a2.52,2.52,0,1,0-2.5-2.54A2.52,2.52,0,0,0,513.37,609.74Z"/>
    <path class="cls-6" d="M513.08,658.17a2.52,2.52,0,1,0-2.51-2.53A2.52,2.52,0,0,0,513.08,658.17Z"/>
    <path class="cls-6" d="M513.27,625.89a2.53,2.53,0,1,0-2.5-2.54A2.53,2.53,0,0,0,513.27,625.89Z"/>
    <path class="cls-6" d="M513.47,593.6a2.53,2.53,0,1,0-2.51-2.54A2.53,2.53,0,0,0,513.47,593.6Z"/>
    <path class="cls-6" d="M513.58,575.94a2.52,2.52,0,1,0-2.51-2.54A2.52,2.52,0,0,0,513.58,575.94Z"/>
    <path class="cls-6" d="M393.62,612a2.52,2.52,0,1,0,2.51,2.54A2.52,2.52,0,0,0,393.62,612Z"/>
    <path class="cls-6" d="M458.07,633.62a2.52,2.52,0,1,0-2.51-2.54A2.51,2.51,0,0,0,458.07,633.62Z"/>
    <path class="cls-6" d="M458,649.77a2.53,2.53,0,1,0-2.51-2.54A2.54,2.54,0,0,0,458,649.77Z"/>
    <path class="cls-6" d="M458.16,617.48a2.53,2.53,0,1,0-2.5-2.54A2.52,2.52,0,0,0,458.16,617.48Z"/>
    <path class="cls-6" d="M458.36,585.19a2.53,2.53,0,1,0-2.51-2.54A2.52,2.52,0,0,0,458.36,585.19Z"/>
    <path class="cls-6" d="M457.87,665.91a2.53,2.53,0,1,0-2.51-2.54A2.52,2.52,0,0,0,457.87,665.91Z"/>
    <path class="cls-6" d="M460,679.54a2.52,2.52,0,0,0-5-.67q1.26,1.57,2.49,3.18A2.52,2.52,0,0,0,460,679.54Z"/>
    <path class="cls-6" d="M458.26,601.33a2.52,2.52,0,1,0-2.5-2.53A2.52,2.52,0,0,0,458.26,601.33Z"/>
    <path class="cls-6" d="M464.65,657.88a2.53,2.53,0,1,0-2.51-2.54A2.52,2.52,0,0,0,464.65,657.88Z"/>
    <path class="cls-6" d="M464.74,641.73a2.52,2.52,0,1,0-2.5-2.53A2.52,2.52,0,0,0,464.74,641.73Z"/>
    <path class="cls-6" d="M448.43,668.88a2.51,2.51,0,0,0-1.64.6c1.17,1.2,2.32,2.43,3.43,3.68a2.48,2.48,0,0,0,.72-1.74A2.52,2.52,0,0,0,448.43,668.88Z"/>
    <path class="cls-6" d="M467,687.66a2.53,2.53,0,1,0-5.05,0,2.34,2.34,0,0,0,0,.38l1.39,1.9a2.65,2.65,0,0,0,1.09.26A2.53,2.53,0,0,0,467,687.66Z"/>
    <path class="cls-6" d="M464.84,625.59a2.52,2.52,0,1,0-2.5-2.54A2.52,2.52,0,0,0,464.84,625.59Z"/>
    <path class="cls-6" d="M464.94,609.45a2.53,2.53,0,1,0-2.51-2.54A2.53,2.53,0,0,0,464.94,609.45Z"/>
    <path class="cls-6" d="M465,593.3a2.52,2.52,0,1,0-2.51-2.54A2.52,2.52,0,0,0,465,593.3Z"/>
    <path class="cls-6" d="M442,617.38a2.53,2.53,0,1,0-2.51-2.54A2.52,2.52,0,0,0,442,617.38Z"/>
    <path class="cls-6" d="M448.5,657.78a2.52,2.52,0,1,0-2.51-2.54A2.52,2.52,0,0,0,448.5,657.78Z"/>
    <path class="cls-6" d="M570.34,698.88a2.52,2.52,0,1,0-2.5-2.53A2.52,2.52,0,0,0,570.34,698.88Z"/>
    <path class="cls-6" d="M442.12,601.24a2.53,2.53,0,1,0-2.51-2.54A2.54,2.54,0,0,0,442.12,601.24Z"/>
    <path class="cls-6" d="M480.49,706.41a2.53,2.53,0,1,0-2.5-2.54A2.52,2.52,0,0,0,480.49,706.41Z"/>
    <path class="cls-6" d="M474.62,566.12a2.52,2.52,0,0,0,2.54-2.51,2.32,2.32,0,0,0-.1-.7c-1.65.23-3.3.49-4.94.79A2.53,2.53,0,0,0,474.62,566.12Z"/>
    <path class="cls-6" d="M441.92,633.52a2.52,2.52,0,1,0-2.5-2.53A2.52,2.52,0,0,0,441.92,633.52Z"/>
    <path class="cls-6" d="M481.32,570.7a2.52,2.52,0,1,0,2.51,2.54A2.52,2.52,0,0,0,481.32,570.7Z"/>
    <path class="cls-6" d="M442.22,585.09a2.52,2.52,0,1,0-2.51-2.54A2.52,2.52,0,0,0,442.22,585.09Z"/>
    <path class="cls-6" d="M448.7,625.49a2.52,2.52,0,1,0-2.51-2.54A2.52,2.52,0,0,0,448.7,625.49Z"/>
    <path class="cls-6" d="M448.8,609.35a2.53,2.53,0,1,0-2.51-2.54A2.52,2.52,0,0,0,448.8,609.35Z"/>
    <path class="cls-6" d="M448.6,641.64a2.53,2.53,0,1,0-2.51-2.54A2.54,2.54,0,0,0,448.6,641.64Z"/>
    <path class="cls-6" d="M449,575.55a2.53,2.53,0,1,0-2.5-2.54A2.52,2.52,0,0,0,449,575.55Z"/>
    <path class="cls-6" d="M448.89,593.2a2.52,2.52,0,1,0-2.5-2.53A2.52,2.52,0,0,0,448.89,593.2Z"/>
    <path class="cls-6" d="M441.82,649.67a2.53,2.53,0,1,0-2.5-2.54A2.52,2.52,0,0,0,441.82,649.67Z"/>
    <path class="cls-6" d="M425.88,617.28a2.52,2.52,0,1,0-2.51-2.54A2.51,2.51,0,0,0,425.88,617.28Z"/>
    <path class="cls-6" d="M425.68,649.57a2.53,2.53,0,1,0-2.51-2.54A2.53,2.53,0,0,0,425.68,649.57Z"/>
    <path class="cls-6" d="M465.18,570.6a2.53,2.53,0,1,0,2.5,2.54A2.52,2.52,0,0,0,465.18,570.6Z"/>
    <path class="cls-6" d="M416.61,593a2.53,2.53,0,0,0,0-5h-.27l-2.07,1.53a2.4,2.4,0,0,0-.2,1A2.52,2.52,0,0,0,416.61,593Z"/>
    <path class="cls-6" d="M400.17,641.34a2.52,2.52,0,1,0-2.51-2.54A2.52,2.52,0,0,0,400.17,641.34Z"/>
    <path class="cls-6" d="M416.24,652.54a2.52,2.52,0,0,0-2.09,1.09c1.49.12,3,.28,4.42.49A2.51,2.51,0,0,0,416.24,652.54Z"/>
    <circle class="cls-6" cx="480.61" cy="687.74" r="2.52"/>
    <path class="cls-6" d="M426,601.14a2.53,2.53,0,1,0-2.51-2.54A2.52,2.52,0,0,0,426,601.14Z"/>
    <path class="cls-6" d="M384,641.24a2.52,2.52,0,1,0-2.5-2.54A2.52,2.52,0,0,0,384,641.24Z"/>
    <path class="cls-6" d="M384.12,625.1a2.53,2.53,0,0,0,0-5.05,3.27,3.27,0,0,0-.44,0c-.7,1.12-1.35,2.24-1.93,3.36A2.51,2.51,0,0,0,384.12,625.1Z"/>
    <path class="cls-6" d="M393.49,633.23a2.53,2.53,0,1,0-2.51-2.54A2.53,2.53,0,0,0,393.49,633.23Z"/>
    <path class="cls-6" d="M379.88,630.62a2.43,2.43,0,0,0-.52-1.54,25.85,25.85,0,0,0-1,3.83A2.52,2.52,0,0,0,379.88,630.62Z"/>
    <path class="cls-6" d="M416.31,641.44a2.53,2.53,0,1,0-2.51-2.54A2.52,2.52,0,0,0,416.31,641.44Z"/>
    <path class="cls-6" d="M400.1,652.44a2.54,2.54,0,0,0-1.41.42l3,.15A2.5,2.5,0,0,0,400.1,652.44Z"/>
    <path class="cls-6" d="M393.39,649.37a2.52,2.52,0,1,0-2.51-2.54A2.52,2.52,0,0,0,393.39,649.37Z"/>
    <path class="cls-6" d="M425.78,633.42a2.52,2.52,0,1,0-2.51-2.53A2.52,2.52,0,0,0,425.78,633.42Z"/>
    <path class="cls-6" d="M432.36,657.68a2.52,2.52,0,1,0-2.51-2.54A2.52,2.52,0,0,0,432.36,657.68Z"/>
    <path class="cls-6" d="M442.74,665.6a2.52,2.52,0,1,0-3.46-2.86q1.68,1.28,3.41,2.82Z"/>
    <path class="cls-6" d="M432.78,588.06a2.53,2.53,0,1,0,2.51,2.54A2.52,2.52,0,0,0,432.78,588.06Z"/>
    <path class="cls-6" d="M432.58,620.35a2.52,2.52,0,1,0,2.51,2.54A2.52,2.52,0,0,0,432.58,620.35Z"/>
    <path class="cls-6" d="M400.27,625.2a2.53,2.53,0,1,0-2.51-2.54A2.52,2.52,0,0,0,400.27,625.2Z"/>
    <path class="cls-6" d="M432.49,636.49A2.53,2.53,0,1,0,435,639,2.52,2.52,0,0,0,432.49,636.49Z"/>
    <path class="cls-6" d="M432.68,604.2a2.53,2.53,0,1,0,2.51,2.54A2.52,2.52,0,0,0,432.68,604.2Z"/>
    <path class="cls-6" d="M400.36,609.05a2.52,2.52,0,1,0-2.5-2.54A2.52,2.52,0,0,0,400.36,609.05Z"/>
    <path class="cls-6" d="M409.63,633.33a2.53,2.53,0,1,0-2.5-2.54A2.53,2.53,0,0,0,409.63,633.33Z"/>
    <path class="cls-6" d="M409.54,649.47a2.52,2.52,0,1,0-2.51-2.54A2.51,2.51,0,0,0,409.54,649.47Z"/>
    <path class="cls-6" d="M416.41,625.3a2.53,2.53,0,1,0-2.51-2.54A2.54,2.54,0,0,0,416.41,625.3Z"/>
    <path class="cls-6" d="M409.83,601a2.53,2.53,0,1,0-2.51-2.54A2.53,2.53,0,0,0,409.83,601Z"/>
    <path class="cls-6" d="M409.73,617.18a2.52,2.52,0,1,0-2.5-2.54A2.52,2.52,0,0,0,409.73,617.18Z"/>
    <path class="cls-6" d="M416.51,609.15a2.52,2.52,0,1,0-2.51-2.54A2.52,2.52,0,0,0,416.51,609.15Z"/>
    <path class="cls-6" d="M464.55,674a2.52,2.52,0,1,0-2.51-2.54A2.51,2.51,0,0,0,464.55,674Z"/>
    <circle class="cls-6" cx="506.42" cy="647.54" r="2.52"/>
    <path class="cls-6" d="M506.33,661.16a2.52,2.52,0,1,0,2.51,2.54A2.52,2.52,0,0,0,506.33,661.16Z"/>
    <path class="cls-6" d="M506.53,628.87a2.53,2.53,0,1,0,2.51,2.54A2.53,2.53,0,0,0,506.53,628.87Z"/>
    <path class="cls-6" d="M505.9,677.3a2.53,2.53,0,1,0,2.5,2.54A2.52,2.52,0,0,0,505.9,677.3Z"/>
    <circle class="cls-6" cx="506.61" cy="615.25" r="2.52" transform="translate(-286.18 533.59) rotate(-44.65)"/>
    <path class="cls-6" d="M505.6,725.73a2.53,2.53,0,1,0,2.51,2.54A2.54,2.54,0,0,0,505.6,725.73Z"/>
    <path class="cls-6" d="M497.06,636.89a2.52,2.52,0,1,0,2.51,2.53A2.52,2.52,0,0,0,497.06,636.89Z"/>
    <path class="cls-6" d="M505.8,693.45a2.52,2.52,0,1,0,2.51,2.53A2.52,2.52,0,0,0,505.8,693.45Z"/>
    <path class="cls-6" d="M506.73,596.58a2.53,2.53,0,1,0,2.5,2.54A2.53,2.53,0,0,0,506.73,596.58Z"/>
    <path class="cls-6" d="M496.67,701.46a2.53,2.53,0,1,0,2.51,2.54A2.53,2.53,0,0,0,496.67,701.46Z"/>
    <path class="cls-6" d="M497,653a2.53,2.53,0,1,0,2.51,2.54A2.51,2.51,0,0,0,497,653Z"/>
    <path class="cls-6" d="M496.87,669.17a2.53,2.53,0,1,0,2.5,2.54A2.53,2.53,0,0,0,496.87,669.17Z"/>
    <circle class="cls-6" cx="506.81" cy="582.96" r="2.52"/>
    <path class="cls-6" d="M496.77,685.32a2.52,2.52,0,1,0,2.5,2.54A2.52,2.52,0,0,0,496.77,685.32Z"/>
    <path class="cls-6" d="M505.7,709.59a2.52,2.52,0,1,0,2.51,2.54A2.52,2.52,0,0,0,505.7,709.59Z"/>
    <path class="cls-6" d="M577.75,642.42a2.52,2.52,0,1,0-2.51-2.53A2.52,2.52,0,0,0,577.75,642.42Z"/>
    <path class="cls-6" d="M577.85,626.28a2.53,2.53,0,1,0-2.51-2.54A2.52,2.52,0,0,0,577.85,626.28Z"/>
    <path class="cls-6" d="M577.55,674.71a2.52,2.52,0,1,0-2.5-2.54A2.52,2.52,0,0,0,577.55,674.71Z"/>
    <path class="cls-6" d="M577.65,658.57a2.53,2.53,0,1,0-2.5-2.54A2.52,2.52,0,0,0,577.65,658.57Z"/>
    <path class="cls-6" d="M523.05,566.41a2.43,2.43,0,0,0,1.66-.61c-1.33-.36-2.66-.7-4-1A2.52,2.52,0,0,0,523.05,566.41Z"/>
    <path class="cls-6" d="M570.25,715a2.53,2.53,0,1,0-2.51-2.54A2.52,2.52,0,0,0,570.25,715Z"/>
    <path class="cls-6" d="M570.15,731.17a2.52,2.52,0,1,0-2.51-2.54A2.52,2.52,0,0,0,570.15,731.17Z"/>
    <path class="cls-6" d="M570.05,747.32a2.53,2.53,0,1,0-2.51-2.54A2.53,2.53,0,0,0,570.05,747.32Z"/>
    <path class="cls-6" d="M578,605.09a2.53,2.53,0,1,0,2.51,2.54A2.52,2.52,0,0,0,578,605.09Z"/>
    <path class="cls-6" d="M545.87,576.14a2.53,2.53,0,0,0,2.24-1.35c-1.5-.76-3-1.48-4.54-2.18a2.52,2.52,0,0,0,2.3,3.53Z"/>
    <path class="cls-6" d="M577.16,739.29a2.53,2.53,0,1,0-2.51-2.54A2.53,2.53,0,0,0,577.16,739.29Z"/>
    <path class="cls-6" d="M577.36,707a2.53,2.53,0,1,0-2.51-2.54A2.52,2.52,0,0,0,577.36,707Z"/>
    <path class="cls-6" d="M577.26,723.14a2.52,2.52,0,1,0-2.51-2.53A2.52,2.52,0,0,0,577.26,723.14Z"/>
    <path class="cls-6" d="M577.46,690.86a2.53,2.53,0,1,0-2.51-2.54A2.52,2.52,0,0,0,577.46,690.86Z"/>
    <path class="cls-6" d="M481.08,609.55a2.53,2.53,0,1,0-2.5-2.54A2.53,2.53,0,0,0,481.08,609.55Z"/>
    <path class="cls-6" d="M473.58,682.15a2.53,2.53,0,1,0-2.51-2.54A2.52,2.52,0,0,0,473.58,682.15Z"/>
    <path class="cls-6" d="M474.11,649.86a2.52,2.52,0,1,0-2.51-2.53A2.52,2.52,0,0,0,474.11,649.86Z"/>
    <path class="cls-6" d="M474,666a2.53,2.53,0,1,0-2.5-2.54A2.52,2.52,0,0,0,474,666Z"/>
    <path class="cls-6" d="M474.21,633.72a2.52,2.52,0,1,0-2.51-2.54A2.52,2.52,0,0,0,474.21,633.72Z"/>
    <path class="cls-6" d="M474.41,601.43a2.52,2.52,0,1,0-2.51-2.54A2.52,2.52,0,0,0,474.41,601.43Z"/>
    <circle class="cls-6" cx="474.32" cy="615.05" r="2.52"/>
    <circle class="cls-6" cx="474.52" cy="582.77" r="2.52" transform="translate(-272.61 501.67) rotate(-44.65)"/>
    <path class="cls-6" d="M481,625.69a2.53,2.53,0,1,0-2.51-2.54A2.51,2.51,0,0,0,481,625.69Z"/>
    <path class="cls-6" d="M473.48,698.29a2.52,2.52,0,1,0-2.51-2.53A2.52,2.52,0,0,0,473.48,698.29Z"/>
    <path class="cls-6" d="M489.53,714.54A2.53,2.53,0,1,0,487,712,2.52,2.52,0,0,0,489.53,714.54Z"/>
    <path class="cls-6" d="M480.79,658a2.53,2.53,0,1,0-2.51-2.54A2.53,2.53,0,0,0,480.79,658Z"/>
    <path class="cls-6" d="M480.89,641.83a2.52,2.52,0,1,0-2.51-2.53A2.52,2.52,0,0,0,480.89,641.83Z"/>
    <path class="cls-6" d="M480.69,674.12a2.52,2.52,0,1,0-2.51-2.54A2.52,2.52,0,0,0,480.69,674.12Z"/>
    <path class="cls-6" d="M481.18,593.4a2.52,2.52,0,1,0-2.5-2.54A2.52,2.52,0,0,0,481.18,593.4Z"/>
    <path class="cls-6" d="M497.36,588.45a2.53,2.53,0,1,0,2.5,2.54A2.53,2.53,0,0,0,497.36,588.45Z"/>
    <path class="cls-6" d="M496.54,722.65a2.52,2.52,0,1,0-2.51-2.54A2.52,2.52,0,0,0,496.54,722.65Z"/>
    <path class="cls-6" d="M490.55,601.53A2.52,2.52,0,1,0,488,599,2.52,2.52,0,0,0,490.55,601.53Z"/>
    <path class="cls-6" d="M497.47,570.8a2.52,2.52,0,1,0,2.5,2.53A2.52,2.52,0,0,0,497.47,570.8Z"/>
    <path class="cls-6" d="M515.12,736.39a2.52,2.52,0,1,0-5,0,2.6,2.6,0,0,0,.06.56c1,.64,2.08,1.27,3.14,1.88A2.51,2.51,0,0,0,515.12,736.39Z"/>
    <path class="cls-6" d="M497.16,620.74a2.53,2.53,0,1,0,2.51,2.54A2.53,2.53,0,0,0,497.16,620.74Z"/>
    <path class="cls-6" d="M497.26,604.6a2.52,2.52,0,1,0,2.51,2.54A2.52,2.52,0,0,0,497.26,604.6Z"/>
    <path class="cls-6" d="M489.72,682.25a2.53,2.53,0,1,0-2.5-2.54A2.52,2.52,0,0,0,489.72,682.25Z"/>
    <path class="cls-6" d="M490.16,666.11a2.53,2.53,0,1,0-2.51-2.54A2.54,2.54,0,0,0,490.16,666.11Z"/>
    <path class="cls-6" d="M490.26,650a2.52,2.52,0,1,0-2.51-2.54A2.51,2.51,0,0,0,490.26,650Z"/>
    <path class="cls-6" d="M489.62,698.39a2.52,2.52,0,1,0-2.5-2.54A2.52,2.52,0,0,0,489.62,698.39Z"/>
    <path class="cls-6" d="M490.45,617.67a2.52,2.52,0,1,0-2.5-2.53A2.52,2.52,0,0,0,490.45,617.67Z"/>
    <path class="cls-6" d="M490.65,585.39a2.53,2.53,0,1,0-2.51-2.54A2.53,2.53,0,0,0,490.65,585.39Z"/>
    <path class="cls-6" d="M490.35,633.82a2.53,2.53,0,1,0-2.5-2.54A2.52,2.52,0,0,0,490.35,633.82Z"/>
    <path class="cls-7" d="M461,530.05a11,11,0,0,0,1.79,1.41c4.62,2.88,10.06,2.39,14.64,5.52,3.79,2.6,7,6.35,11.83,6.79,3.63.33,7.71-2,8.16-5.57.39-3.05-1.77-5.8-4-7.89-4.26-4-6.72-7.28-6.92-13.31-.14-4.1.83-12.18-5-13-6.08-.87-14.71,8.75-18.81,12.5-1.82,1.67-3.73,3.47-4.34,5.87C457.6,525.12,458.87,528,461,530.05Z"/>
    <path class="cls-8" d="M465.08,477.37a6.17,6.17,0,1,1-7.15,5A6.18,6.18,0,0,1,465.08,477.37Zm-1.87,10.57a4.56,4.56,0,1,0-3.7-5.29A4.57,4.57,0,0,0,463.21,487.94Z"/>
  </g>
</svg>