<svg xmlns="http://www.w3.org/2000/svg" xmlns:xlink="http://www.w3.org/1999/xlink" viewBox="0 0 783.39 429.42"><defs><style>.cls-1{isolation:isolate;}.cls-2{fill:#2f3fba;}.cls-3{fill:#bfdcfb;}.cls-4{fill:url(#linear-gradient);}.cls-5{fill:#4f7ab7;}.cls-6{fill:#365c93;}.cls-7{fill:#476da2;}.cls-8{fill:#2d396f;}.cls-9{fill:#527fc0;}.cls-10{fill:#436fb2;}.cls-11{fill:#f4bdb4;}.cls-12{fill:#e46339;}.cls-13{fill:#ba683a;}.cls-14{fill:#f19f6c;}.cls-15{fill:#dd8958;}.cls-16{fill:#3e6bad;}.cls-17{fill:#325b98;}.cls-18{fill:#eaada4;}.cls-19{fill:#f6cac3;}.cls-20{fill:#4671b2;}.cls-21{fill:#fff;}.cls-22{fill:#e78f5b;}.cls-23{fill:#c7cae0;}.cls-24{fill:#d9dbeb;}.cls-25{fill:#36609d;}.cls-26{fill:#4651d5;}.cls-27{fill:#5667e2;}.cls-28{fill:#578bc1;}.cls-29{fill:#80bcf8;}.cls-30{fill:#444964;}.cls-31{fill:#b5bdf9;}.cls-32{fill:url(#linear-gradient-2);}.cls-33{fill:#9498b4;}.cls-34,.cls-36{mix-blend-mode:multiply;}.cls-35,.cls-36{fill:#d4dde6;}.cls-37{fill:#5588bc;}.cls-38{fill:#525773;}.cls-39{fill:#a7d1fa;}.cls-40{fill:#5290e3;}.cls-41{fill:#63a1f2;}.cls-42{fill:#dea9b7;}.cls-43{fill:#1d285b;}.cls-44{fill:#1f2a5b;}.cls-45{fill:#eec2cd;}.cls-46{fill:#f19b68;}.cls-47{fill:#ee8347;}.cls-48{fill:#db6c32;}.cls-49{fill:#dea9b5;}.cls-50{fill:#ddc0c1;}.cls-51{fill:#284f89;}.cls-52{fill:#eacccd;}.cls-53{fill:#264e89;}.cls-54{fill:#ce4e2c;}.cls-55{fill:#dab0b0;}.cls-56{fill:#c6c8dd;}.cls-57{fill:#335e9d;}.cls-58{fill:#4371b2;}.cls-59{fill:#f0925b;}.cls-60{fill:#dd713a;}.cls-61{fill:#00ff8d;}.cls-62{fill:#5880bc;}</style><linearGradient id="linear-gradient" x1="266.86" y1="54.36" x2="314.84" y2="54.36" gradientUnits="userSpaceOnUse"><stop offset="0" stop-color="#00a4e8"/><stop offset="0.54" stop-color="#00c8cf"/><stop offset="0.74" stop-color="#00dfe3"/><stop offset="0.96" stop-color="aqua"/></linearGradient><linearGradient id="linear-gradient-2" x1="261.27" y1="74.5" x2="464.34" y2="343.12" gradientUnits="userSpaceOnUse"><stop offset="0" stop-color="#fff"/><stop offset="1" stop-color="#dce9f5"/></linearGradient></defs><g class="cls-1"><g id="Layer_2" data-name="Layer 2"><g id="Layer_3" data-name="Layer 3"><path class="cls-2" d="M200,58.13c4.23,1.1,7.41,5.14,10.19,9s5.78,8,9.92,9.52C227.48,79.3,239,75,242.29,68a8.51,8.51,0,0,0,.71-2,3.94,3.94,0,0,0,.36.45,8.2,8.2,0,0,0,.86.91L228.24,0a31,31,0,0,0-4.3,7.47A15.09,15.09,0,0,0,224,18.85c1.12,2.37,3.11,4.91,2.21,7.25a22,22,0,0,1-9-11.46c-1.39,2.84-2.83,5.75-3.19,9s.55,7.05,3,9c1.71,1.37,4.21,2.06,4.81,4.33a3.35,3.35,0,0,1-2.56,4.07c-1.68.26-3.41-.81-4.6-2.28A22.09,22.09,0,0,1,212,33.7a16.26,16.26,0,0,0-2.92-4.94c1.33,5.45-4,10.85-1.85,16A8.17,8.17,0,0,0,212,49c1.95.77,4,1.08,5.93,1.95a5.8,5.8,0,0,1,2.91,2.43,3.21,3.21,0,0,1-.21,3.7c-1.23,1.14-3.11.18-4.63-.58A15,15,0,0,0,200,58.13ZM222.69,46a1.72,1.72,0,0,1,2.36.11c.84.67,1.14,1.67.66,2.27a1.7,1.7,0,0,1-2.35-.11C222.52,47.62,222.22,46.62,222.69,46Z"/><path class="cls-2" d="M228.24,0l16,67.38c5.54,5.2,17,4.74,22.71-.7,3.18-3.06,4.22-8.08,5.18-12.74s2.2-9.68,5.62-12.4a15,15,0,0,0-15.25,5c-1.08,1.29-2.39,3-4,2.41a3.23,3.23,0,0,1-1.73-3.3,6,6,0,0,1,1.67-3.41c1.41-1.56,3.16-2.7,4.63-4.19a8.19,8.19,0,0,0,2.63-5.82c-.15-5.56-7.2-8.34-8.22-13.84a16.32,16.32,0,0,0-.65,5.69,21.49,21.49,0,0,1-.4,5.74c-.49,1.82-1.63,3.51-3.26,4a3.38,3.38,0,0,1-4-2.68c-.37-2.32,1.62-4,2.62-5.92,1.43-2.81.75-6.62-.93-9.46s-4.17-4.89-6.6-6.9A22,22,0,0,1,240.75,23c-1.8-1.78-1-4.9-1-7.51.08-3.93-1.94-7.72-4.58-10.42A30.85,30.85,0,0,0,228.24,0Zm34.87,53.89c.75-2,2.48-3.11,3.87-2.58s1.9,2.53,1.15,4.49-2.48,3.1-3.86,2.57S262.35,55.83,263.11,53.89ZM245.29,20.81c.43-1.15,1.44-1.83,2.25-1.51s1.13,1.48.69,2.62-1.46,1.82-2.28,1.5A2,2,0,0,1,245.29,20.81Z"/><path class="cls-3" d="M516.19,59.34h-1.44a18.81,18.81,0,0,0-2-5.26l1.2-1.2a4.58,4.58,0,0,0-6.48-6.48l-1,1a18.76,18.76,0,0,0-5.14-2.3h0V43.43a4.58,4.58,0,1,0-9.16,0v1.44a18.76,18.76,0,0,0-5.27,2l-1.2-1.2a4.58,4.58,0,1,0-6.48,6.48l1,1a18.46,18.46,0,0,0-2.3,5.14h-1.7a4.58,4.58,0,1,0,0,9.16h1.45a18.76,18.76,0,0,0,2,5.27l-1.2,1.2a4.58,4.58,0,0,0,6.48,6.48l1-1h0a19.58,19.58,0,0,0,5.15,2.3v1.69a4.59,4.59,0,0,0,9.17,0V82a18.69,18.69,0,0,0,5.26-2l1.2,1.2a4.58,4.58,0,0,0,6.48-6.48l-1-1h0a19,19,0,0,0,2.3-5.15h1.69a4.59,4.59,0,1,0,0-9.17Zm-6.35,4.09a13.65,13.65,0,1,1-13.65-13.65A13.65,13.65,0,0,1,509.84,63.43Z"/><path class="cls-3" d="M487.57,63.43a8.63,8.63,0,1,0,8.62-8.63A8.62,8.62,0,0,0,487.57,63.43Z"/><path class="cls-3" d="M153.6,370.24a3.52,3.52,0,0,0-3.66-.19,5.44,5.44,0,0,0-2.42,2.91,11.68,11.68,0,0,0-.6,3.81A14.5,14.5,0,0,0,148,383a61.59,61.59,0,0,1-8.43-4.15l-.73-.44,3.81-5.52a11.81,11.81,0,0,0,2-3.95,4,4,0,0,0-1.2-4.07,3.52,3.52,0,0,0-3.66-.18,5.32,5.32,0,0,0-2.42,2.91,11.33,11.33,0,0,0-.6,3.8,14.15,14.15,0,0,0,1.14,6.45,61.43,61.43,0,0,1-8.32-6.3c1.21-1.91,2.43-3.82,3.64-5.74a11.75,11.75,0,0,0,1.89-4,4,4,0,0,0-1.35-4,3.53,3.53,0,0,0-3.67-.05,5.37,5.37,0,0,0-2.3,3,11.51,11.51,0,0,0-.46,3.83,14.78,14.78,0,0,0,1.2,6,62.51,62.51,0,0,1-5.17-5.5c-.48-.58-.94-1.16-1.39-1.75l3.55-6a11.87,11.87,0,0,0,1.76-4.09,4,4,0,0,0-1.49-4,3.51,3.51,0,0,0-3.67.07,5.39,5.39,0,0,0-2.2,3.07,11.27,11.27,0,0,0-.33,3.84,15.5,15.5,0,0,0,1.12,5.4,57.75,57.75,0,0,1-4-6.45q.13-3.41.25-6.82a11.58,11.58,0,0,0-.4-4.43,4,4,0,0,0-3.19-2.78A3.5,3.5,0,0,0,110.2,343a5.34,5.34,0,0,0-.47,3.75,11.46,11.46,0,0,0,1.53,3.54,13.74,13.74,0,0,0,4.88,5.1,0,0,0,0,0,0,0,58.87,58.87,0,0,0,4.26,6.85,15.23,15.23,0,0,0-5.37-2.13,11.32,11.32,0,0,0-3.84-.3,5.34,5.34,0,0,0-3.39,1.67,3.52,3.52,0,0,0-.68,3.61,4,4,0,0,0,3.68,2.11,11.69,11.69,0,0,0,4.31-1.07l6.36-2.45A63,63,0,0,0,128.1,371a14.73,14.73,0,0,0-6-.85,11.62,11.62,0,0,0-3.79.66,5.37,5.37,0,0,0-2.87,2.47,3.52,3.52,0,0,0,.25,3.66,4,4,0,0,0,4.08,1.13,11.59,11.59,0,0,0,3.91-2.1l5.55-4,.23.21a63,63,0,0,0,8.14,6.13,14,14,0,0,0-6.77.24,11.22,11.22,0,0,0-3.58,1.42,5.29,5.29,0,0,0-2.31,3,3.54,3.54,0,0,0,1,3.54,4,4,0,0,0,4.23.28,11.93,11.93,0,0,0,3.41-2.85l4.77-5.16.12.07V379l0-.05a61.11,61.11,0,0,0,8.84,4.48,15.17,15.17,0,0,0-5.67,2.32,11.73,11.73,0,0,0-3,2.52,5.44,5.44,0,0,0-1.27,3.64,3.57,3.57,0,0,0,2.08,3.1,4.07,4.07,0,0,0,4.17-1.08,12,12,0,0,0,2.38-3.86l2.68-5.89.11-.17a58.21,58.21,0,0,0,10.52,2.92c.38.07.56-.51.17-.58a58.78,58.78,0,0,1-10.33-2.85l3.61-5.23a11.81,11.81,0,0,0,2-3.95A4,4,0,0,0,153.6,370.24Z"/><path class="cls-4" d="M293.91,73.82a3.51,3.51,0,0,0-.51-3.63,5.3,5.3,0,0,0-3.31-1.82,11.33,11.33,0,0,0-3.85.12,14.59,14.59,0,0,0-6,2.22,60.73,60.73,0,0,1,2.48-9.06c.09-.27.2-.54.3-.8l6.14,2.69a11.76,11.76,0,0,0,4.26,1.26,4,4,0,0,0,3.76-1.94,3.53,3.53,0,0,0-.51-3.64,5.32,5.32,0,0,0-3.31-1.82,11.33,11.33,0,0,0-3.85.13,14.16,14.16,0,0,0-6.12,2.34A62.06,62.06,0,0,1,288,50.51L294.37,53a11.72,11.72,0,0,0,4.31,1.09A4,4,0,0,0,302.37,52a3.54,3.54,0,0,0-.65-3.61,5.36,5.36,0,0,0-3.38-1.69,11.64,11.64,0,0,0-3.85.27,14.82,14.82,0,0,0-5.7,2.33,61.86,61.86,0,0,1,4.42-6.13c.48-.57,1-1.14,1.46-1.69l6.59,2.35a11.72,11.72,0,0,0,4.34,1,4,4,0,0,0,3.62-2.21,3.53,3.53,0,0,0-.77-3.59A5.36,5.36,0,0,0,305,37.4a11.27,11.27,0,0,0-3.83.4,15.44,15.44,0,0,0-5.09,2.12,57.68,57.68,0,0,1,5.57-5.14l6.74-1.05a11.87,11.87,0,0,0,4.28-1.23,4,4,0,0,0,2.13-3.66,3.49,3.49,0,0,0-2.38-2.79,5.43,5.43,0,0,0-3.78.24,11.47,11.47,0,0,0-3.18,2.18,13.7,13.7,0,0,0-4.08,5.75s0,0,0,0a59.13,59.13,0,0,0-5.93,5.48A15.19,15.19,0,0,0,296.54,34a11.76,11.76,0,0,0-.44-3.83,5.36,5.36,0,0,0-2.28-3,3.51,3.51,0,0,0-3.67,0,4,4,0,0,0-1.38,4,11.77,11.77,0,0,0,1.86,4L294.25,41a61.44,61.44,0,0,0-5.94,7.89,14.84,14.84,0,0,0-.31-6.07,11.56,11.56,0,0,0-1.37-3.6,5.38,5.38,0,0,0-3-2.35,3.52,3.52,0,0,0-3.55.93,4,4,0,0,0-.34,4.23,11.71,11.71,0,0,0,2.8,3.44l4.94,4.7c-.06.09-.11.18-.17.26a63.57,63.57,0,0,0-4.47,9.16,14,14,0,0,0-1.51-6.6,11.55,11.55,0,0,0-2.08-3.25,5.35,5.35,0,0,0-3.37-1.7,3.53,3.53,0,0,0-3.29,1.63,4,4,0,0,0,.52,4.2,11.49,11.49,0,0,0,3.45,2.81l6,3.71a.78.78,0,0,0-.05.14h-.07l.05,0a62.94,62.94,0,0,0-2.72,9.54A15,15,0,0,0,276.43,65a11.82,11.82,0,0,0-3-2.47,5.43,5.43,0,0,0-3.82-.56,3.57,3.57,0,0,0-2.65,2.63,4.09,4.09,0,0,0,1.85,3.89A12.11,12.11,0,0,0,273,70.11l6.3,1.51.18.08a58.37,58.37,0,0,0-.87,10.88c0,.39.6.45.6.06A58.91,58.91,0,0,1,280.06,72l5.82,2.56a11.87,11.87,0,0,0,4.27,1.26A4,4,0,0,0,293.91,73.82Z"/><path class="cls-3" d="M607.63,209.73c.62-1.43,2.59-1.86,4-1.23a6.68,6.68,0,0,1,3,3.45,26.16,26.16,0,0,1,2,7.05q.92-3.41,2.06-6.73c.5-1.46,1-2.92,1.6-4.36a17.9,17.9,0,0,1-7.85-6.81c-.7-1.14-1.29-2.55-.75-3.77.62-1.42,2.59-1.85,4-1.22a6.59,6.59,0,0,1,3,3.42,26.69,26.69,0,0,1,2,7.29A90.11,90.11,0,0,1,627.11,194a17.77,17.77,0,0,1-6.54-7.88c-.52-1.23-.87-2.71-.15-3.83.84-1.31,2.86-1.42,4.16-.58a6.62,6.62,0,0,1,2.45,3.86,26.21,26.21,0,0,1,.81,7.25c2.67-4.27,5.83-8.46,9.89-11.46l.26-.18a17.83,17.83,0,0,1-5.44-8.81c-.33-1.29-.47-2.81.4-3.82a3.09,3.09,0,0,1,4.21,0,6.62,6.62,0,0,1,1.87,4.16,27.36,27.36,0,0,1-.33,7.93c4.79-3.33,10.21-5.8,14.88-9.3a17.77,17.77,0,0,1-5.57-8.93c-.34-1.29-.48-2.81.4-3.81,1-1.18,3-1,4.2,0a6.62,6.62,0,0,1,1.87,4.17,28.21,28.21,0,0,1-.36,8.15A32.29,32.29,0,0,0,657.4,168a23.72,23.72,0,0,0,4.82-7.52,17.91,17.91,0,0,1-7.91-7.3c-.66-1.16-1.18-2.6-.6-3.79a3.09,3.09,0,0,1,4.07-1.06,6.57,6.57,0,0,1,2.88,3.55,28.57,28.57,0,0,1,1.77,8.07,30.88,30.88,0,0,0,1.79-14.34,17.85,17.85,0,0,1-6.55-7.28c-.58-1.2-1-2.66-.35-3.82a3.09,3.09,0,0,1,4.12-.8,6.6,6.6,0,0,1,2.65,3.73,25.55,25.55,0,0,1,1.19,7.07.78.78,0,0,1,.11.28,32.35,32.35,0,0,1-.74,12q-.33,1.31-.75,2.58a17.92,17.92,0,0,1,7.9-5.34c1.27-.42,2.78-.65,3.84.15a3.1,3.1,0,0,1,.25,4.2,6.65,6.65,0,0,1-4,2.14,28.91,28.91,0,0,1-8.41.15,23.91,23.91,0,0,1-2.56,5,26.71,26.71,0,0,1-5.79,6,17.81,17.81,0,0,1,9.75-1.26c1.32.2,2.77.68,3.34,1.88a3.09,3.09,0,0,1-1.69,3.85,6.64,6.64,0,0,1-4.57.06,29.94,29.94,0,0,1-7.75-3.83c-3.7,2.73-7.89,4.89-11.76,7.27-1.22.75-2.41,1.52-3.55,2.36a17.76,17.76,0,0,1,10.52-1.63c1.31.2,2.76.67,3.34,1.88.68,1.4-.28,3.17-1.69,3.84a6.58,6.58,0,0,1-4.57.07,30.53,30.53,0,0,1-7.93-3.92,28.3,28.3,0,0,0-3.41,3,47.89,47.89,0,0,0-5.21,6.57c-.41.62-.82,1.24-1.21,1.87a17.81,17.81,0,0,1,9.31-2.66c1.33,0,2.83.24,3.59,1.34a3.09,3.09,0,0,1-1.08,4.06,6.61,6.61,0,0,1-4.51.77,28.88,28.88,0,0,1-8-2.46,88.13,88.13,0,0,0-6.2,12.55,17.86,17.86,0,0,1,8.78-5c1.3-.29,2.83-.39,3.81.52,1.14,1,.9,3.06-.16,4.2a6.56,6.56,0,0,1-4.22,1.74,29.17,29.17,0,0,1-8.53-.68c-.23.58-.45,1.16-.67,1.73-1.19,3.18-2.25,6.42-3.12,9.7a17.87,17.87,0,0,1,8.6-4.77c1.3-.3,2.83-.39,3.8.51a3.08,3.08,0,0,1-.15,4.2,6.56,6.56,0,0,1-4.22,1.74,28.24,28.24,0,0,1-8.3-.63,80.72,80.72,0,0,0-2,11.43c-.08.8-1.32.62-1.24-.18a80.88,80.88,0,0,1,2.06-11.54,17.9,17.9,0,0,1-7.88-6.86C607.68,212.38,607.1,211,607.63,209.73Z"/><path class="cls-5" d="M584.42,139.5h-.07a18.56,18.56,0,0,1-2.31-.43.51.51,0,0,1-.37-.62.51.51,0,0,1,.62-.37,17.15,17.15,0,0,0,2.2.41.51.51,0,0,1-.07,1Z"/><path class="cls-6" d="M593.18,140c-1.46,0-2.86,0-4.15-.09a.51.51,0,0,1-.49-.53.54.54,0,0,1,.54-.49c1.27.06,2.65.09,4.1.09h.53a.51.51,0,0,1,0,1Zm5.19-.12a.5.5,0,0,1-.51-.48.51.51,0,0,1,.48-.54c1.53-.06,3.09-.16,4.64-.28a.51.51,0,1,1,.08,1c-1.56.13-3.14.23-4.67.29Zm9.29-.73a.52.52,0,0,1-.51-.46.51.51,0,0,1,.45-.56c1.53-.17,3.08-.38,4.6-.6a.51.51,0,0,1,.58.43.51.51,0,0,1-.43.58c-1.53.22-3.09.43-4.64.6Zm9.21-1.38a.51.51,0,0,1-.09-1c1.54-.29,3.07-.6,4.54-.94a.51.51,0,0,1,.61.39.52.52,0,0,1-.38.61c-1.49.34-3,.65-4.58.94Zm9.08-2.07a.51.51,0,0,1-.49-.38.52.52,0,0,1,.36-.63c1.52-.42,3-.87,4.43-1.34a.52.52,0,0,1,.65.33.51.51,0,0,1-.33.64c-1.44.48-2.94.93-4.48,1.36Zm8.84-2.94a.52.52,0,0,1-.47-.32.51.51,0,0,1,.28-.67c1.47-.58,2.89-1.21,4.23-1.86a.51.51,0,0,1,.44.92c-1.35.66-2.8,1.29-4.29,1.89A.65.65,0,0,1,634.79,132.74Zm8.36-4.09a.52.52,0,0,1-.44-.25.51.51,0,0,1,.18-.7,42.13,42.13,0,0,0,3.81-2.56.5.5,0,0,1,.71.09.51.51,0,0,1-.1.72,42.76,42.76,0,0,1-3.9,2.63A.48.48,0,0,1,643.15,128.65Zm7.36-5.65a.51.51,0,0,1-.36-.15.52.52,0,0,1,0-.72,26.84,26.84,0,0,0,2.93-3.49.51.51,0,0,1,.84.58,28.26,28.26,0,0,1-3,3.63A.51.51,0,0,1,650.51,123Zm5.25-7.6a.45.45,0,0,1-.2,0,.51.51,0,0,1-.27-.67,21.22,21.22,0,0,0,1.35-4.32.51.51,0,0,1,1,.2,22.82,22.82,0,0,1-1.42,4.52A.51.51,0,0,1,655.76,115.4Zm1.84-9a.49.49,0,0,1-.51-.5v0a27.28,27.28,0,0,0-.4-4.52.53.53,0,0,1,.42-.59.52.52,0,0,1,.59.42,28.33,28.33,0,0,1,.41,4.69A.52.52,0,0,1,657.6,106.36Zm-14.34-6.47c-.26,0-.53,0-.79,0a.51.51,0,0,1-.46-.56.5.5,0,0,1,.55-.46,8.35,8.35,0,0,0,4.26-.78.51.51,0,1,1,.43.92A9.39,9.39,0,0,1,643.26,99.89Zm-5-1.66a.52.52,0,0,1-.29-.09l-.14-.09a9.88,9.88,0,0,1-3.13-3.49.51.51,0,1,1,.91-.47,8.79,8.79,0,0,0,2.81,3.13l.13.08a.51.51,0,0,1,.13.71A.5.5,0,0,1,638.21,98.23Zm17.9-1a.52.52,0,0,1-.49-.35c-.06-.2-.12-.4-.19-.59A34.6,34.6,0,0,0,654,92.57a.45.45,0,0,1,0-.23,18.44,18.44,0,0,1-2.82,3.82.52.52,0,0,1-.72,0,.53.53,0,0,1,0-.73,17,17,0,0,0,2.67-3.63.51.51,0,0,1,1,.28.46.46,0,0,1,.22-.19.5.5,0,0,1,.67.25A36.49,36.49,0,0,1,656.4,96c.07.2.13.4.19.6a.5.5,0,0,1-.33.64A.39.39,0,0,1,656.11,97.22Zm-21.68-6.91h-.09a.52.52,0,0,1-.41-.6,9,9,0,0,1,2.18-4.36.52.52,0,0,1,.72,0,.51.51,0,0,1,0,.72,7.83,7.83,0,0,0-1.93,3.85A.51.51,0,0,1,634.43,90.31Zm17.77-1.49a.52.52,0,0,1-.42-.22,15.48,15.48,0,0,0-3-3.3.51.51,0,0,1-.08-.72.5.5,0,0,1,.71-.08A16.28,16.28,0,0,1,652.61,88a.5.5,0,0,1-.12.71A.52.52,0,0,1,652.2,88.82Zm3.13-.53-.15,0a.51.51,0,0,1-.34-.64,23,23,0,0,0,.87-4.46.51.51,0,0,1,.56-.46.51.51,0,0,1,.46.56,24.17,24.17,0,0,1-.91,4.66A.51.51,0,0,1,655.33,88.29Zm-15-4.63a.53.53,0,0,1-.49-.35.51.51,0,0,1,.32-.65,9.13,9.13,0,0,1,4.86-.28.51.51,0,0,1-.21,1,8,8,0,0,0-4.32.25A.45.45,0,0,1,640.33,83.66Zm15.89-4.58a.5.5,0,0,1-.5-.46,24.48,24.48,0,0,0-.85-4.47.51.51,0,0,1,.35-.63.5.5,0,0,1,.63.35,24.76,24.76,0,0,1,.88,4.65.51.51,0,0,1-.46.56Zm-2.52-8.9a.5.5,0,0,1-.46-.28A28.56,28.56,0,0,0,650.9,66a.51.51,0,1,1,.83-.59,28.6,28.6,0,0,1,2.42,4.06.5.5,0,0,1-.23.68A.44.44,0,0,1,653.7,70.18Zm-5.36-7.56a.52.52,0,0,1-.36-.16,37.24,37.24,0,0,0-3.38-3.09.51.51,0,1,1,.64-.8,39.32,39.32,0,0,1,3.47,3.18.52.52,0,0,1,0,.73A.54.54,0,0,1,648.34,62.62Zm-7.2-5.86a.45.45,0,0,1-.27-.08c-1.26-.8-2.6-1.58-4-2.3a.51.51,0,1,1,.47-.9c1.42.73,2.79,1.52,4.07,2.34a.52.52,0,0,1,.15.71A.51.51,0,0,1,641.14,56.76Zm-8.24-4.29a.51.51,0,0,1-.2,0c-1.37-.58-2.82-1.14-4.31-1.65a.5.5,0,0,1-.31-.65.49.49,0,0,1,.64-.31c1.51.52,3,1.08,4.38,1.67a.51.51,0,0,1-.2,1ZM624,49.4l.16-.49-.16.49c-1.41-.4-2.92-.76-4.47-1.08a.51.51,0,0,1-.39-.6.5.5,0,0,1,.6-.4c1.57.32,3.1.69,4.54,1.1l-.12.49Zm-9-1.88h-.07c-1.45-.22-3-.41-4.6-.58a.51.51,0,1,1,.11-1c1.62.16,3.18.36,4.64.58a.51.51,0,0,1,.43.58A.52.52,0,0,1,615,47.52Zm-9.25-1h0c-1.47-.11-3-.2-4.63-.27a.51.51,0,0,1-.49-.53.52.52,0,0,1,.53-.49c1.62.08,3.19.17,4.66.27a.51.51,0,0,1,.48.55A.52.52,0,0,1,605.76,46.54Zm-9.3-.44h0c-1.53,0-3.08-.07-4.64-.09a.52.52,0,0,1-.51-.52.51.51,0,0,1,.52-.5c1.57,0,3.12,0,4.66.09a.52.52,0,0,1,.5.53A.52.52,0,0,1,596.46,46.1ZM587.15,46h0l-4.65,0a.51.51,0,1,1,0-1h0c1.57,0,3.12,0,4.66,0a.51.51,0,0,1,0,1Zm-9.31-.05h0l-4.66,0a.52.52,0,0,1-.5-.52.5.5,0,0,1,.51-.5h0l4.66,0a.51.51,0,0,1,.51.51A.52.52,0,0,1,577.84,45.91Zm-9.32-.1h0c-1.54,0-3.09-.06-4.65-.11a.51.51,0,0,1,0-1c1.55,0,3.1.08,4.64.11a.51.51,0,0,1,.5.52A.5.5,0,0,1,568.52,45.81Zm-9.29-.28h0c-1.59-.07-3.16-.16-4.66-.25a.51.51,0,1,1,.07-1c1.49.09,3,.18,4.63.25a.51.51,0,0,1,0,1Zm-9.29-.6h0c-1.58-.13-3.14-.29-4.65-.46a.51.51,0,0,1-.45-.56.52.52,0,0,1,.57-.45c1.49.17,3,.32,4.62.45a.52.52,0,0,1,.46.56A.51.51,0,0,1,549.94,44.93Zm-9.25-1h-.07c-1.56-.22-3.11-.47-4.62-.73a.51.51,0,0,1-.41-.59.52.52,0,0,1,.59-.42c1.49.27,3,.51,4.58.73a.51.51,0,0,1-.07,1Zm-9.17-1.61h-.1c-1.54-.33-3.07-.69-4.55-1.07a.51.51,0,1,1,.25-1c1.47.38,3,.73,4.51,1.06a.5.5,0,0,1,.39.6A.51.51,0,0,1,531.52,42.28Zm-9-2.33a.39.39,0,0,1-.15,0c-1.51-.46-3-1-4.44-1.47a.51.51,0,1,1,.35-1c1.42.51,2.9,1,4.38,1.46a.51.51,0,0,1-.14,1Z"/><path class="cls-6" d="M513.68,36.76a.45.45,0,0,1-.2,0c-.71-.3-1.42-.61-2.12-.93a.5.5,0,0,1-.25-.67.51.51,0,0,1,.67-.26c.7.32,1.39.62,2.09.92a.52.52,0,0,1,.28.67A.53.53,0,0,1,513.68,36.76Z"/><polygon class="cls-6" points="508.08 34.27 496.19 27.29 503.51 23.81 508.08 34.27"/><polygon class="cls-5" points="495.86 29.72 483.92 15.35 502.93 26.9 495.86 29.72"/><polygon class="cls-5" points="483.92 15.33 513.97 20.07 507.15 23.19 483.92 15.33"/><polygon class="cls-7" points="483.92 15.35 502.93 26.97 508.08 34.27 507.2 23.1 483.92 15.35"/><path class="cls-8" d="M416,44a0,0,0,0,0,0,0c.64.8.15,1.88-.2,2.68a4.29,4.29,0,0,0-.3,1.32,2.41,2.41,0,0,1-.39,1.28,3,3,0,0,1-1.24.69s0,.07,0,0a3.43,3.43,0,0,0,1.19-.52,1.71,1.71,0,0,0,.45-.44,1.77,1.77,0,0,0,.22-.67c0-.25,0-.51.06-.76a4.55,4.55,0,0,1,.15-.82c.12-.5.32-1,.39-1.48A1.77,1.77,0,0,0,416,44Z"/><path class="cls-8" d="M417.58,38.79a1.75,1.75,0,0,0-1-.87,4.1,4.1,0,0,0-1.94-.07,0,0,0,1,0,0,0,4.76,4.76,0,0,1,1.64,0,1.56,1.56,0,0,1,1.07.86,2.45,2.45,0,0,1,.13,1.2,4.21,4.21,0,0,1-.46,1.27A6.17,6.17,0,0,1,416,42.54s0,0,0,0c.2-.19.4-.38.58-.58l.53-.61a2.38,2.38,0,0,0,.63-1.29A2.11,2.11,0,0,0,417.58,38.79Z"/><path class="cls-8" d="M417.28,38.8c-.58-1.47-1.86-1-2.49-1.38s-1-1.29-3-1.07a3.62,3.62,0,0,0-1.5.64,8.24,8.24,0,0,0-1.18.77,4.85,4.85,0,0,0-1.34,1.58,14.36,14.36,0,0,1-.69,1.87c-.37.59-1.09.8-1.52,1.34a2.5,2.5,0,0,0-.61,1.9,2.39,2.39,0,0,0-.12.57c-.2,1.67,1.36,1.49,2.36,2.76a4.32,4.32,0,0,0,3,1.8c.83,0,4.95,1.64,5.08-1.57.1-2.26,2.26-2.21.69-5.41C416,42.6,417.86,40.26,417.28,38.8Zm-9.13,1.59c-.15,2.13-2.48,2-3.16,3.93a2.11,2.11,0,0,1,.77-1.64,6.41,6.41,0,0,0,1.54-1.14,5.22,5.22,0,0,0,.64-1.77,4.1,4.1,0,0,1,.38-1A3.86,3.86,0,0,1,409,38a5.56,5.56,0,0,1,.81-.64A4.46,4.46,0,0,0,408.15,40.39Z"/><path class="cls-9" d="M425.33,65.8s-.42,3.35-.42,3.53a22.69,22.69,0,0,1-3.37.2c-3.91.1-10,0-11.33-1.1-2.18-1.76-1.72-8-1.11-12.26.34-2.37.73-4.12.73-4.12.4-2.74-.6-6.49,2.48-4.63,4.17,3.46,1.49,16.19,2.74,16.79C415.36,64.36,423.15,65.4,425.33,65.8Z"/><path class="cls-10" d="M421.54,69.53c-3.91.1-10,0-11.33-1.1-2.18-1.76-1.72-8-1.11-12.26l4.54-4.88s2.05,5.32.27,8.88-4.08,4-3.2,4.91,5.51-.46,6,.55,3.32-.2,4.22,1A6.52,6.52,0,0,1,421.54,69.53Z"/><path class="cls-11" d="M332.38,61c.28,1.24,4.94-2.29,7.06-1.85,1.16.24,3.45,1.69,4.88,2.26,6.13,2.43,14.13,7.18,19.53,8.23,7.28,1.4,29.65-.21,29.65-.21l1.35-7.53s-7.3-5.15-13.1-3.89-14.43,6.14-18.26,3.79c-2.51-1.53-11.79-3.74-18-4.56-1.14-.15-2.19-.25-3.06-.3,0,0-1-3.11-2.1-3.36-1.48-.33-2.45,1.62-4.33,3.27C333.84,58.78,332,59.4,332.38,61Z"/><path class="cls-12" d="M394.85,61.93l-1.35,7.53s-12.74.92-22.12.76a49.19,49.19,0,0,1-7.53-.55c-.49-.1-1-.22-1.55-.36-5-1.28-12.08-4.35-17.52-6.57a1.84,1.84,0,0,1-1-2.31l.57-1.66.37-1.09a1.85,1.85,0,0,1,1.82-1.25c7.41.33,15.42,3.1,17.78,4.55,1.57,1,4.11.73,6.87.06,4-1,8.41-2.83,11.09-3.33C386.9,56.83,394.85,61.93,394.85,61.93Z"/><path class="cls-13" d="M372.32,63.12l-.94,7.1a49.19,49.19,0,0,1-7.53-.55c-.49-.1-1-.22-1.55-.36a16.2,16.2,0,0,1-3.06-5.79c-.6-2.75.81-3.39-2.05-3.52s-5.09-2.8-7.27-2.54c-1.78.21-4.51,1.92-5.62,1.31l.37-1.09a1.85,1.85,0,0,1,1.82-1.25c7.41.33,15.42,3.1,17.78,4.55,1.57,1,4.11.73,6.87.06Z"/><path class="cls-11" d="M364.49,68.79c6.13,3,21.14-.31,28.93.58.3-2.74.32-4.34.45-7-3.31-2-6.25-5-10.58-4.67S369.38,63.52,369.41,59c.06-7.83-.56-12.78-3.35-19.42-.42-1-.88-2-1.4-3.11-.45-.93,1.55-2,1.34-3-.13-.65-1.85-1.1-3.1-1.79-2.11-1.16-5.34-1.5-6.44-.8s4.09,2.68,5.16,5a19,19,0,0,1,.42,4.32C362.38,48.81,359.24,66.19,364.49,68.79Z"/><path class="cls-14" d="M394.89,61.83a21,21,0,0,1-.53,3.52,41,41,0,0,0-.77,4.13c-4.76.28-21.41,2.38-28.51.13a8.41,8.41,0,0,1-1.27-.5c-4.88-2.42-3.49-17.9-3.54-27a2.18,2.18,0,0,1,1.92-2.17l3.24-.38h.16A2.17,2.17,0,0,1,367.73,41c2.1,5.9,1.73,10.86,1.68,18,0,3.18,4.66,1.26,8.94-.25a21,21,0,0,1,4.78-1.28C387.46,57.18,391.58,59.86,394.89,61.83Z"/><path class="cls-15" d="M394.36,65.35a41,41,0,0,0-.77,4.13c-4.76.28-21.41,2.38-28.51.13,5.13.25,13,.58,16.52-1.23,2.57-1.32,5.25-.53,7.63.41s2.83-6.85,5-7.45Z"/><path class="cls-16" d="M412.53,61.49l-.22.3a17.67,17.67,0,0,1-8.07,6c-.59.23-1.18.43-1.76.6a27.07,27.07,0,0,1-9,1.07,9.09,9.09,0,0,1-.59-3.22,10.94,10.94,0,0,1,1.3-4.92s2-3.45,4.37-6.88c.76-1.1,1.57-2.19,2.38-3.17,1.32-1.62,2.48-3.18,3.57-3.62a11.69,11.69,0,0,1,5.22-.84l3.38,1.31C415.12,52.72,415,58,412.53,61.49Z"/><path class="cls-17" d="M412.31,61.79a17.67,17.67,0,0,1-8.07,6c-.59.23-1.18.43-1.76.6.06-.72.13-1.65.27-2.61.23-1.61,2.95-11.13,2.95-11.13l3-.31s.84,4.77.14,6.31-1.44,3.48-.4,3.65C409.17,64.44,411,62.76,412.31,61.79Z"/><path class="cls-17" d="M404.24,67.81a26.93,26.93,0,0,1-10.73,1.67,9.09,9.09,0,0,1-.59-3.22c3.05.22,3.7,1.43,5.11,1.38s1.25-1.91.78-4,.45-4.62-.13-7.26a5.41,5.41,0,0,1-.09-2c.76-1.1,1.57-2.19,2.38-3.17.93.88,1.77,1.68,1.81,1.77S404,65.22,404.24,67.81Z"/><path class="cls-11" d="M409.76,46.83c.11,4.43,2.91,4.73,3.38,1.31l.41-1.39.79-2.76.11-.38-2.35-1-.63,1.12-.76,1.38Z"/><path class="cls-18" d="M410.71,45.12a7.62,7.62,0,0,0,1,.93,5.14,5.14,0,0,0,1.86.7h0l.79-2.76-1-.45-1.84.2Z"/><path class="cls-19" d="M416.36,40.12s.49,6.15-2.63,6.08-3.38-3.29-3.38-3.29a1.58,1.58,0,0,1-.57-1.66c.24-.68.88,0,.88,0s2.91-.63,3.55-2.71C414.55,39.41,415.92,38.67,416.36,40.12Z"/><path class="cls-8" d="M416.44,40.91a1.46,1.46,0,0,1-1.17-1.48,3.23,3.23,0,0,1-1.63,1.66s.19-1.09-.19-1.43a5.45,5.45,0,0,1-1.18,2,3.57,3.57,0,0,0-.85,2.54,6.16,6.16,0,0,1-.64-3.82c.47-1.75,1.44-2.08,1.44-2.08s2.85-.83,3.91.76A2.17,2.17,0,0,1,416.44,40.91Z"/><path class="cls-8" d="M331.62,60.22c.16-.19.5-.54,1-1l.09-.09.07-.06c.44-.43,1-.94,1.55-1.47l0,0,.93-.85.1-.09.93-.83.12-.1.39-.34.07-.07.43-.37.13-.1.33-.28.1-.09.39-.32.1-.08c.1-.09.2-.16.3-.24l.09-.07.34-.26.07,0,.24-.18.08,0,.26-.17,0,0,.18-.1.05,0,.15-.06c.26,0,.57.22.87.65h0a18.13,18.13,0,0,1,1.67,3.5c-.5.31-.79,0-1.72.57a1.32,1.32,0,0,0-.56.8,1.28,1.28,0,0,1-1,.94,6,6,0,0,0-.6.13l-.29.09a5,5,0,0,0-.58.2l-.28.11-.7.33-.3.16c-.26.15-.52.31-.79.49l-.18.13-.31.21a5.27,5.27,0,0,1-.63.38h0l-.18.1h0c-1.87.93-2.93.33-3.13-.44A1.06,1.06,0,0,1,331.62,60.22Z"/><path class="cls-8" d="M356,29.9c.24,0,.71.08,1.32.17l.12,0,.09,0c.58.09,1.28.21,2,.35h.05l1.2.23.13,0,1.17.24.15,0,.49.11.09,0,.54.12.15,0,.41.1.12,0,.48.11.12,0,.35.1.11,0,.4.11.07,0,.28.09.09,0,.28.1h0l.18.09,0,0,.13.09c.19.17.15.56,0,1h0a12.41,12.41,0,0,1-1.94,3.16c-.54,0-.23-.49-1.24-.85a1.3,1.3,0,0,0-.94,0,1.24,1.24,0,0,1-1.33-.26,4.48,4.48,0,0,0-.44-.38l-.24-.18c-.15-.11-.31-.22-.49-.33l-.25-.15c-.2-.12-.42-.24-.65-.35l-.3-.14a8.17,8.17,0,0,0-.84-.33l-.2-.07-.34-.11c-.24-.09-.46-.18-.65-.27h0l-.18-.09h0c-1.8-.91-1.94-2.08-1.46-2.68A1,1,0,0,1,356,29.9Z"/><path class="cls-11" d="M421.58,69.94c-.86.12-1.49-1.35-1.84-1A4.25,4.25,0,0,1,417.81,70l-.48.1a5.37,5.37,0,0,1-1.07,0c-.43,0-.67-.17-.76-.33-.36-.6.94-1.75.94-1.75s.34-.17.82-.37c.91-.38,2.32-.84,3-.44C421.22,67.85,422.43,69.82,421.58,69.94Z"/><path class="cls-9" d="M417.33,70.54c0,.18-13.77,1.24-15.77-.37a2.77,2.77,0,0,1-.7-.89h0c-2.26-4.19.06-17,.06-17,.41-2.74,4.94-7.07,6.95-4.08,1.71,2.56.65,8.44-.12,12.71-.18.95-.33,1.82-.44,2.56-.2,1.32-.24,2.21.06,2.36.14.07,1.69.23,3.55.43s4.11.44,5.52.64a1,1,0,0,1,.82.73.67.67,0,0,1,0,.24c0,.6,0,1.38,0,1.94v.68Z"/><path class="cls-20" d="M417.33,70.11v.43c0,.18-13.77,1.24-15.77-.37a2.77,2.77,0,0,1-.7-.89h0a7.73,7.73,0,0,0,4.76,1,5.68,5.68,0,0,1,3.55.09,29.42,29.42,0,0,0,6.26-.53h.07a4.8,4.8,0,0,1,1.83.06,2.72,2.72,0,0,1,.48.15Z"/><polygon class="cls-21" points="431.3 62.97 430.56 62.44 434.45 62.18 435.31 62.73 431.3 62.97"/><path class="cls-22" d="M365.34,50.07a.39.39,0,0,1,.12-.17Z"/><path class="cls-15" d="M378.35,58.76s-4.8,3.47-6.44,3.15a9.57,9.57,0,0,0-3.72.28c.05,0,1.28-1.11.69-2s-.65-2.28-.29-5.27.47-6.3-1.37-5.8a4.3,4.3,0,0,0-1.76.77c.36-.52,1.48-2,2.5-2.31,1.22-.33.6-2-.07-4.29a12.66,12.66,0,0,0-2.3-3.77A2.17,2.17,0,0,1,367.73,41c2.1,5.9,1.73,10.86,1.68,18C369.38,62.19,374.07,60.27,378.35,58.76Z"/><path class="cls-20" d="M410.92,66.31a.86.86,0,0,1-.35.33c-.58.29-2.36-.27-3.14-.14a3.29,3.29,0,0,1-1.7-.3c.64,0,.84-.94.9-2.51A7.3,7.3,0,0,1,407.75,61c-.18.95-.33,1.82-.44,2.56-.2,1.32-.24,2.21.06,2.36C407.51,66,409.06,66.11,410.92,66.31Z"/><rect class="cls-23" x="415.29" y="69.48" width="9.61" height="1.32" rx="0.59"/><path class="cls-23" d="M441.12,55.11h-15a1.3,1.3,0,0,0-1.24.93l-3.94,13.09a1.3,1.3,0,0,0,1.24,1.68h15a1.31,1.31,0,0,0,1.25-.93l3.94-13.09A1.31,1.31,0,0,0,441.12,55.11Z"/><path class="cls-24" d="M430.77,62.19A1.23,1.23,0,1,1,432,63.43,1.23,1.23,0,0,1,430.77,62.19Z"/><path class="cls-21" d="M717.41,367.16H597.28l-.56-.25-.58-.28-.46-.25-.48-.29-.4-.25-.41-.28-.36-.26-.36-.28-.31-.25-.33-.29-.28-.25-.3-.28-.13-.13-.12-.12-.26-.28-.24-.26a3.22,3.22,0,0,1-.24-.28,2.32,2.32,0,0,1-.21-.25,3.25,3.25,0,0,1-.23-.29c-.06-.08-.13-.16-.19-.25a2.83,2.83,0,0,1-.2-.28c-.06-.08-.13-.17-.18-.25l-.19-.29c0-.08-.11-.16-.16-.25l-.17-.28-.15-.26h0V345.22h0a2,2,0,0,1,.14-.25,2.82,2.82,0,0,1,.18-.29l.15-.25c.06-.09.12-.19.19-.28s.11-.17.18-.26l.2-.28c.06-.08.12-.17.19-.25l.22-.28.21-.25.25-.29.23-.25a3.57,3.57,0,0,1,.27-.28l.25-.26.29-.28.28-.25.33-.28.31-.25.36-.29.35-.25.42-.28.39-.25.48-.29.47-.25.56-.28.57-.26H717.19a2.58,2.58,0,0,0-.08.26,2.29,2.29,0,0,0-.09.28c0,.08,0,.16-.08.25s-.05.19-.09.29,0,.16-.06.25,0,.18-.08.28l-.06.25c0,.1,0,.19-.07.29l-.06.25a2.86,2.86,0,0,1-.07.28c0,.08,0,.17-.05.25l-.06.28c0,.09,0,.17-.05.26a2.33,2.33,0,0,0,0,.28,2.21,2.21,0,0,0,0,.25,2.93,2.93,0,0,0-.05.29c0,.08,0,.16,0,.25s0,.19,0,.28a2.17,2.17,0,0,1,0,.25c0,.1,0,.19,0,.28s0,.17,0,.26,0,.18,0,.28a2.13,2.13,0,0,1,0,.25l0,.29,0,.25,0,.28,0,.25a2.83,2.83,0,0,0,0,.29l0,.25a2.64,2.64,0,0,1,0,.28c0,.09,0,.17,0,.25s0,.19,0,.28,0,.17,0,.26,0,.18,0,.28,0,.17,0,.25a2.71,2.71,0,0,0,0,.29,2.11,2.11,0,0,0,0,.25c0,.09,0,.19,0,.28s0,.17,0,.25,0,.19,0,.29v.25a2.62,2.62,0,0,0,0,.28,2.26,2.26,0,0,0,0,.26v1.6a2.62,2.62,0,0,0,0,.28v.25c0,.1,0,.19,0,.29v.25c0,.09,0,.19,0,.28v.26a2.62,2.62,0,0,1,0,.28c0,.08,0,.17,0,.25a2.53,2.53,0,0,0,0,.28c0,.09,0,.17,0,.26s0,.18,0,.28a2.11,2.11,0,0,0,0,.25c0,.09,0,.19,0,.28a2.28,2.28,0,0,1,0,.26c0,.09,0,.18,0,.28s0,.17,0,.25,0,.19,0,.29a2,2,0,0,1,0,.25l0,.28a2.11,2.11,0,0,0,0,.25l0,.28a2.29,2.29,0,0,1,0,.25l0,.29,0,.25,0,.28,0,.26,0,.28a2.17,2.17,0,0,0,0,.25l0,.29,0,.25a2.7,2.7,0,0,0,0,.28l0,.25a2.7,2.7,0,0,1,0,.28c0,.09,0,.17,0,.26a2.7,2.7,0,0,0,0,.28,1.87,1.87,0,0,0,0,.25c0,.1,0,.19,0,.29a2.17,2.17,0,0,0,0,.25,2.74,2.74,0,0,0,.05.28,1.87,1.87,0,0,0,0,.25c0,.1,0,.19,0,.29a1.87,1.87,0,0,1,0,.25c0,.09,0,.18,0,.28a2.38,2.38,0,0,0,0,.26c0,.09,0,.18.05.28s0,.16,0,.25l.06.28a1.87,1.87,0,0,0,0,.25l.06.29c0,.08,0,.17,0,.25l.06.28c0,.09,0,.17.05.26a2.74,2.74,0,0,1,0,.28l.06.25.06.29c0,.08,0,.16,0,.25l.06.28Z"/><path class="cls-25" d="M719.24,364A2.31,2.31,0,0,1,717.6,368H601.12a15.44,15.44,0,0,1-6-1.21l-.56-.25c-.2-.09-.39-.18-.57-.28l-.47-.25-.48-.29-.4-.25c-.14-.09-.28-.18-.41-.28l-.36-.26-.36-.28-.31-.25c-.12-.09-.22-.19-.33-.28l-.28-.25-.3-.29-.13-.13-.12-.12-.26-.28-.24-.26a3.22,3.22,0,0,1-.24-.28,2.52,2.52,0,0,1-.21-.25l-.23-.28-.19-.26a2.83,2.83,0,0,1-.2-.28c-.06-.08-.13-.17-.18-.25l-.19-.28c-.05-.09-.11-.17-.16-.25s-.11-.19-.17-.29l-.15-.25a.05.05,0,0,0,0,0,15.6,15.6,0,0,1,0-15.21l0,0,.14-.25c.06-.1.11-.19.18-.29l.15-.25c.06-.09.12-.19.19-.28s.11-.17.18-.25a2.83,2.83,0,0,1,.2-.28l.19-.26.22-.28.21-.25a3.33,3.33,0,0,1,.25-.28,2.85,2.85,0,0,1,.23-.26c.09-.09.17-.19.27-.28s.16-.17.25-.25l.29-.29.28-.25.33-.28.31-.25.36-.28.35-.26.42-.28.39-.25.49-.29.46-.25.56-.28.57-.25a15.42,15.42,0,0,1,6-1.23H717.6a2.32,2.32,0,1,1,0,4.63H601.52a10.93,10.93,0,0,0-1.15.06,11.37,11.37,0,0,0-1.65.28c-.29.08-.58.16-.87.26a6.92,6.92,0,0,0-.76.28l-.56.25L596,343a3.78,3.78,0,0,0-.43.26c-.15.08-.3.18-.45.28s-.25.16-.36.25l-.38.28-.3.25-.32.29-.27.25-.27.28-.24.26a3.11,3.11,0,0,0-.23.28,1.64,1.64,0,0,0-.21.25c-.08.09-.15.19-.22.28l-.18.26-.18.28c-.06.08-.11.17-.16.25a2.75,2.75,0,0,0-.17.29,1.19,1.19,0,0,0-.13.25,1.51,1.51,0,0,0-.15.28c0,.08-.09.17-.12.25s-.09.19-.13.29a1.86,1.86,0,0,0-.1.25c0,.09-.08.19-.11.28l-.09.25c0,.1-.06.19-.08.28a2.58,2.58,0,0,0-.08.26,2.86,2.86,0,0,0-.07.28,1.14,1.14,0,0,0-.06.25,2.47,2.47,0,0,0-.06.29,1.84,1.84,0,0,0,0,.25,2.36,2.36,0,0,0,0,.28,2.13,2.13,0,0,0,0,.25,2.85,2.85,0,0,0,0,.29,2.11,2.11,0,0,0,0,.25,2.62,2.62,0,0,0,0,.28,2.09,2.09,0,0,0,0,.25v.29a2.09,2.09,0,0,0,0,.25,2.53,2.53,0,0,0,0,.28,2,2,0,0,0,0,.25,2.85,2.85,0,0,0,0,.29l0,.25a2.74,2.74,0,0,0,0,.28,2.34,2.34,0,0,0,0,.26l.06.28.06.25c0,.1.05.19.07.29s0,.16.08.25,0,.19.09.28a2.5,2.5,0,0,0,.09.25c0,.09.07.19.11.28a1.86,1.86,0,0,0,.1.25c0,.1.08.19.13.29a1.42,1.42,0,0,0,.12.25,2.44,2.44,0,0,0,.14.28l.14.25a2.75,2.75,0,0,0,.17.29c.05.08.1.17.16.25a2.68,2.68,0,0,0,.18.28l.19.26.21.28.2.25c.08.09.16.19.25.28s.15.17.23.26.18.19.28.28l.27.25.32.29.3.25.38.28.36.25c.15.1.3.2.45.28l.44.26c.18.1.37.19.56.28l.56.25a7.25,7.25,0,0,0,.78.28,9.07,9.07,0,0,0,.89.26,11.71,11.71,0,0,0,1.79.28c.31,0,.62,0,.94,0H717.6A2.31,2.31,0,0,1,719.24,364Z"/><path class="cls-12" d="M712.17,336.91H595.42A12.88,12.88,0,0,1,582.54,324h0a12.88,12.88,0,0,1,12.88-12.88H712.17A12.87,12.87,0,0,1,725,324h0A12.87,12.87,0,0,1,712.17,336.91Z"/><rect class="cls-21" x="596.64" y="311.16" width="8.43" height="25.76"/><rect class="cls-21" x="609.9" y="311.16" width="8.43" height="25.76"/><polygon class="cls-5" points="671.74 361.4 667.84 357.83 663.94 361.4 663.94 346.16 671.74 346.16 671.74 361.4"/><path class="cls-21" d="M716.39,394.38V411H668a8.33,8.33,0,0,1,0-16.66Z"/><path class="cls-26" d="M668,394.38c-7.27,0-12.4,9.36-4,16.66h52.37v3.29H579.47a3.55,3.55,0,0,1-3.55-3.54V394.64a3.55,3.55,0,0,1,3.55-3.55H716.39v3.29Z"/><path class="cls-27" d="M659.65,402.71A8.33,8.33,0,0,0,668,411h48.41v3.29H668a11.62,11.62,0,0,1,0-23.24h48.41v3.29H668A8.34,8.34,0,0,0,659.65,402.71Z"/><rect class="cls-21" x="625" y="391.09" width="3.12" height="23.24"/><rect class="cls-21" x="617.2" y="391.09" width="3.12" height="23.24"/><polygon class="cls-26" points="671.13 400.34 671.13 407.57 674.81 405.02 678.49 407.57 678.49 400.34 671.13 400.34"/><path class="cls-21" d="M634.87,404a6.76,6.76,0,1,1,6.75,6.75A6.75,6.75,0,0,1,634.87,404Z"/><path class="cls-21" d="M589.22,371.15V387.8h48.41a8.33,8.33,0,1,0,0-16.65Z"/><path class="cls-5" d="M637.63,371.15c7.27,0,12.4,9.36,4,16.65H589.22v3.29H727.1a2.59,2.59,0,0,0,2.59-2.58V370.45a2.59,2.59,0,0,0-2.59-2.59H589.22v3.29Z"/><path class="cls-25" d="M646,379.48a8.33,8.33,0,0,1-8.33,8.32H589.22v3.29h48.41a11.62,11.62,0,1,0,0-23.23H589.22v3.29h48.41A8.34,8.34,0,0,1,646,379.48Z"/><rect class="cls-21" x="677.5" y="367.86" width="3.12" height="23.24" transform="translate(1358.11 758.95) rotate(180)"/><rect class="cls-21" x="685.29" y="367.86" width="3.12" height="23.24" transform="translate(1373.7 758.95) rotate(180)"/><polygon class="cls-5" points="634.48 377.11 634.48 384.34 630.8 381.78 627.13 384.34 627.13 377.11 634.48 377.11"/><path class="cls-21" d="M657.19,379.48a6.38,6.38,0,1,1,6.38,6.37A6.38,6.38,0,0,1,657.19,379.48Z"/><path class="cls-21" d="M627.78,324a6.7,6.7,0,1,1,6.7,6.69A6.7,6.7,0,0,1,627.78,324Z"/><path class="cls-28" d="M172.57,81.35V282.92H113.43l19.83-21.27V81.35A19.66,19.66,0,0,1,152.92,61.7a19.35,19.35,0,0,1,3.67.35,19.66,19.66,0,0,1,16,19.3Z"/><path class="cls-29" d="M114.49,283h0a18.81,18.81,0,0,1-18.81-18.8v-116l-19.94-18.6h57.55V264.19A18.8,18.8,0,0,1,114.49,283Z"/><path class="cls-30" d="M615.21,67.56H146.75a7,7,0,0,0-7,7V384.72a7,7,0,0,0,7,7H615.21a7,7,0,0,0,7-7V74.59A7,7,0,0,0,615.21,67.56Zm2.34,310.59a7.59,7.59,0,0,1-7.57,7.61H153.43a7.6,7.6,0,0,1-7.58-7.61V101a7.6,7.6,0,0,1,7.58-7.61H610a7.59,7.59,0,0,1,7.57,7.61Z"/><path class="cls-31" d="M609.52,100.9V375a7.42,7.42,0,0,1-7.31,7.53h-441a7.43,7.43,0,0,1-7.32-7.53V100.9a7.43,7.43,0,0,1,7.32-7.53h441A7.42,7.42,0,0,1,609.52,100.9Z"/><path class="cls-32" d="M617.55,89.76V377.85a7.75,7.75,0,0,1-7.57,7.91H153.43a7.75,7.75,0,0,1-7.58-7.91V89.76a7.75,7.75,0,0,1,7.58-7.91H610A7.75,7.75,0,0,1,617.55,89.76Z"/><path class="cls-33" d="M646.83,414.73H117.71c-3.3,0-6-5.14-6-11.48h0c0-6.35,2.68-11.49,6-11.49H646.83c3.3,0,6,5.14,6,11.49h0C652.81,409.59,650.13,414.73,646.83,414.73Z"/><g class="cls-34"><path class="cls-35" d="M294,67.56H149.31a19.64,19.64,0,0,1,16,19.31V315.42l152.22-.83V91.09A23.54,23.54,0,0,0,294,67.56Z"/></g><path class="cls-29" d="M301.25,62.05H156.59a19.66,19.66,0,0,1,16,19.3V309.91l152.21-.83V85.58A23.54,23.54,0,0,0,301.25,62.05Z"/><path class="cls-21" d="M308.72,87.74l-78-.12c-.47,0-.85-.73-.85-1.63h0c0-.9.38-1.63.85-1.63l78,.12c.47,0,.85.73.85,1.63h0C309.57,87,309.19,87.74,308.72,87.74Z"/><path class="cls-21" d="M286.06,107.09,230.47,107c-.33,0-.6-.73-.6-1.63h0c0-.9.28-1.63.61-1.63l55.59.09c.33,0,.6.73.6,1.63h0C286.67,106.37,286.4,107.09,286.06,107.09Z"/><path class="cls-21" d="M262.29,97.06l-31.56,0c-.47,0-.84-.73-.84-1.63h0c0-.9.38-1.63.85-1.62l31.55,0c.47,0,.85.73.85,1.63h0C263.13,96.33,262.75,97.06,262.29,97.06Z"/><path class="cls-21" d="M277.08,97.08h-9.37c-.47,0-.85-.73-.85-1.63h0c0-.9.39-1.63.85-1.63h9.37c.47,0,.85.74.85,1.63h0C277.93,96.35,277.54,97.08,277.08,97.08Z"/><path class="cls-21" d="M308.65,133.42l-78-.12c-.47,0-.85-.73-.85-1.63h0c0-.9.39-1.63.85-1.63l78,.12c.46,0,.84.73.84,1.63h0C309.5,132.69,309.12,133.42,308.65,133.42Z"/><path class="cls-21" d="M286,152.77l-55.59-.08c-.34,0-.61-.73-.61-1.63h0c0-.9.28-1.63.61-1.63l55.59.08c.33,0,.6.74.6,1.64h0C286.6,152,286.33,152.77,286,152.77Z"/><path class="cls-21" d="M262.22,142.74l-31.55-.05c-.47,0-.85-.73-.85-1.63h0c0-.9.38-1.63.85-1.63l31.55,0c.47,0,.85.73.85,1.63h0C263.07,142,262.69,142.74,262.22,142.74Z"/><path class="cls-21" d="M277,142.76h-9.37c-.47,0-.85-.73-.84-1.63h0c0-.9.38-1.63.85-1.63H277c.47,0,.85.73.85,1.63h0C277.86,142,277.48,142.76,277,142.76Z"/><path class="cls-21" d="M308.58,179.09l-78-.11c-.47,0-.85-.73-.84-1.63h0c0-.9.38-1.63.85-1.63l78,.12c.47,0,.84.73.84,1.63h0C309.43,178.37,309.05,179.1,308.58,179.09Z"/><path class="cls-21" d="M285.93,198.45l-55.59-.08c-.34,0-.6-.73-.6-1.63h0c0-.9.27-1.63.6-1.63l55.59.08c.34,0,.61.73.6,1.63h0C286.53,197.72,286.26,198.45,285.93,198.45Z"/><path class="cls-21" d="M262.15,188.42l-31.55,0c-.47,0-.85-.73-.85-1.63h0c0-.9.38-1.63.85-1.63l31.55,0c.47,0,.85.73.85,1.63h0C263,187.69,262.62,188.42,262.15,188.42Z"/><path class="cls-21" d="M276.94,188.44h-9.37c-.46,0-.84-.73-.84-1.63h0c0-.9.38-1.63.85-1.63H277c.46,0,.84.73.84,1.63h0C277.79,187.71,277.41,188.44,276.94,188.44Z"/><path class="cls-21" d="M308.52,224.77l-78-.11c-.47,0-.84-.73-.84-1.63h0c0-.9.38-1.63.85-1.63l78,.12c.47,0,.85.73.85,1.63h0C309.36,224.05,309,224.77,308.52,224.77Z"/><path class="cls-21" d="M285.86,244.13l-55.59-.08c-.33,0-.6-.73-.6-1.63h0c0-.9.27-1.63.61-1.63l55.58.08c.34,0,.61.73.61,1.63h0C286.47,243.4,286.19,244.13,285.86,244.13Z"/><path class="cls-21" d="M262.08,234.1l-31.55,0c-.47,0-.85-.73-.85-1.63h0c0-.9.39-1.63.85-1.63l31.56.05c.46,0,.84.73.84,1.63h0C262.93,233.37,262.55,234.1,262.08,234.1Z"/><path class="cls-21" d="M276.87,234.12h-9.36c-.47,0-.85-.73-.85-1.63h0c0-.9.38-1.63.85-1.63h9.37c.47,0,.84.73.84,1.63h0C277.72,233.39,277.34,234.12,276.87,234.12Z"/><path class="cls-21" d="M308.45,270.45l-78-.11c-.46,0-.84-.73-.84-1.63h0c0-.9.38-1.63.85-1.63l78,.11c.47,0,.85.74.85,1.64h0C309.3,269.72,308.92,270.45,308.45,270.45Z"/><path class="cls-21" d="M285.79,289.81l-55.59-.08c-.33,0-.6-.73-.6-1.63h0c0-.9.27-1.63.61-1.63l55.59.08c.33,0,.6.73.6,1.63h0C286.4,289.08,286.13,289.81,285.79,289.81Z"/><path class="cls-21" d="M262,279.78l-31.55,0c-.47,0-.85-.73-.84-1.63h0c0-.9.38-1.63.85-1.63l31.55,0c.47,0,.85.73.84,1.63h0C262.86,279.05,262.48,279.78,262,279.78Z"/><path class="cls-21" d="M276.8,279.8h-9.36c-.47,0-.85-.74-.85-1.63h0c0-.9.38-1.63.85-1.63h9.37c.47,0,.85.73.84,1.63h0C277.65,279.07,277.27,279.8,276.8,279.8Z"/><path class="cls-21" d="M202.36,109.11A11.67,11.67,0,0,1,201,109a.59.59,0,1,1,.12-1.17,12,12,0,0,0,2.47,0,.59.59,0,1,1,.13,1.17A13,13,0,0,1,202.36,109.11Zm-3.8-.59a.57.57,0,0,1-.18,0,13.47,13.47,0,0,1-2.49-1.1.59.59,0,0,1-.21-.81.58.58,0,0,1,.8-.21,11.92,11.92,0,0,0,2.26,1,.6.6,0,0,1,.38.75A.59.59,0,0,1,198.56,108.52Zm7.67,0a.59.59,0,0,1-.56-.4.6.6,0,0,1,.38-.75,11.64,11.64,0,0,0,2.25-1,.59.59,0,0,1,.6,1,12.79,12.79,0,0,1-2.48,1.11A.63.63,0,0,1,206.23,108.49ZM194.08,106a.58.58,0,0,1-.39-.15,13.4,13.4,0,0,1-1.83-2A.6.6,0,0,1,192,103a.59.59,0,0,1,.83.13,11.49,11.49,0,0,0,1.66,1.83.59.59,0,0,1,0,.83A.57.57,0,0,1,194.08,106Zm16.61,0a.57.57,0,0,1-.43-.2.59.59,0,0,1,0-.83A12,12,0,0,0,212,103a.58.58,0,0,1,.82-.13.57.57,0,0,1,.13.82,12.94,12.94,0,0,1-1.81,2A.59.59,0,0,1,210.69,105.9ZM191,101.79a.6.6,0,0,1-.54-.35,13.92,13.92,0,0,1-.85-2.58.61.61,0,0,1,.46-.71.59.59,0,0,1,.7.46,11.45,11.45,0,0,0,.77,2.34.59.59,0,0,1-.29.78A.57.57,0,0,1,191,101.79Zm22.69-.07a.69.69,0,0,1-.24,0,.6.6,0,0,1-.3-.78,12.26,12.26,0,0,0,.76-2.36.59.59,0,0,1,.7-.45.58.58,0,0,1,.45.7,12.33,12.33,0,0,1-.83,2.58A.58.58,0,0,1,213.72,101.72Zm-23.78-5a.59.59,0,0,1-.59-.59V96.1a13.52,13.52,0,0,1,.28-2.7.59.59,0,0,1,1.16.24,11.88,11.88,0,0,0-.26,2.46v.05A.58.58,0,0,1,189.94,96.74Zm24.84-.08a.58.58,0,0,1-.59-.58,11.88,11.88,0,0,0-.26-2.46.59.59,0,1,1,1.15-.25,12.83,12.83,0,0,1,.29,2.7.58.58,0,0,1-.59.59Zm-23.77-5a.69.69,0,0,1-.24,0,.59.59,0,0,1-.3-.78,13.07,13.07,0,0,1,1.36-2.35.59.59,0,0,1,1,.69,12,12,0,0,0-1.24,2.14A.59.59,0,0,1,191,91.64Zm22.69,0a.59.59,0,0,1-.54-.35,12,12,0,0,0-1.24-2.14.59.59,0,0,1,.13-.82.58.58,0,0,1,.82.13,12.54,12.54,0,0,1,1.37,2.35.6.6,0,0,1-.3.78A.69.69,0,0,1,213.7,91.62Zm-19.65-4.15a.59.59,0,0,1-.4-1,12.74,12.74,0,0,1,2.2-1.6.58.58,0,0,1,.8.21.59.59,0,0,1-.21.81,12.27,12.27,0,0,0-2,1.45A.54.54,0,0,1,194.05,87.47Zm16.61,0a.62.62,0,0,1-.4-.15,11.47,11.47,0,0,0-2-1.45.59.59,0,0,1,.59-1,12.89,12.89,0,0,1,2.2,1.6.59.59,0,0,1-.39,1Zm-12.15-2.57a.59.59,0,0,1-.18-1.15,13.41,13.41,0,0,1,2.66-.57.59.59,0,0,1,.12,1.18,11.62,11.62,0,0,0-2.41.51A.63.63,0,0,1,198.51,84.88Zm7.68,0a.63.63,0,0,1-.19,0,12.3,12.3,0,0,0-2.41-.51.59.59,0,1,1,.12-1.17,12.72,12.72,0,0,1,2.66.56.59.59,0,0,1,.38.74A.6.6,0,0,1,206.19,84.87Z"/><path class="cls-21" d="M220.91,81.23c-7.5,3.63-13.5,9.37-18.77,15.67a41.59,41.59,0,0,0-9.22-4.66l-.26.3c2.93,2.75,7.15,6.55,10.18,9.29,5.95-6.4,12.61-13.78,18.37-20.33Z"/><path class="cls-21" d="M202.36,155.45q-.66,0-1.32-.06a.59.59,0,0,1,.12-1.18,12,12,0,0,0,2.47,0,.59.59,0,0,1,.13,1.18A13,13,0,0,1,202.36,155.45Zm-3.8-.59-.18,0a12.84,12.84,0,0,1-2.49-1.1.59.59,0,0,1,.59-1,12,12,0,0,0,2.26,1,.59.59,0,0,1-.18,1.15Zm7.67,0a.6.6,0,0,1-.56-.41.59.59,0,0,1,.38-.74,11.68,11.68,0,0,0,2.25-1,.59.59,0,0,1,.81.22.59.59,0,0,1-.21.8,13.47,13.47,0,0,1-2.48,1.12A.63.63,0,0,1,206.23,154.84Zm-12.15-2.55a.58.58,0,0,1-.39-.15,12.93,12.93,0,0,1-1.83-2,.59.59,0,0,1,1-.7,11.49,11.49,0,0,0,1.66,1.83.59.59,0,0,1,0,.83A.54.54,0,0,1,194.08,152.29Zm16.61,0a.56.56,0,0,1-.43-.19.6.6,0,0,1,0-.84,12,12,0,0,0,1.65-1.84.59.59,0,0,1,.82-.13.57.57,0,0,1,.13.82,12.94,12.94,0,0,1-1.81,2A.59.59,0,0,1,210.69,152.24ZM191,148.13a.6.6,0,0,1-.54-.35,13.92,13.92,0,0,1-.85-2.58.6.6,0,0,1,.46-.7.59.59,0,0,1,.7.45,11.75,11.75,0,0,0,.77,2.35.6.6,0,0,1-.29.78A.74.74,0,0,1,191,148.13Zm22.69-.07a.69.69,0,0,1-.24-.05.59.59,0,0,1-.3-.78,12.16,12.16,0,0,0,.76-2.35.59.59,0,0,1,.7-.46.59.59,0,0,1,.45.7,12.41,12.41,0,0,1-.83,2.59A.59.59,0,0,1,213.72,148.06Zm-23.78-5a.59.59,0,0,1-.59-.59v-.05a13.52,13.52,0,0,1,.28-2.7.59.59,0,1,1,1.16.24,12,12,0,0,0-.26,2.46v.05A.58.58,0,0,1,189.94,143.08Zm24.84-.07a.59.59,0,0,1-.59-.59,11.88,11.88,0,0,0-.26-2.46.59.59,0,1,1,1.15-.25,13,13,0,0,1,.29,2.71.59.59,0,0,1-.59.59ZM191,138a.52.52,0,0,1-.24,0,.59.59,0,0,1-.3-.78,13.42,13.42,0,0,1,1.36-2.35.6.6,0,0,1,.83-.13.59.59,0,0,1,.13.82,12,12,0,0,0-1.24,2.14A.59.59,0,0,1,191,138Zm22.69,0a.59.59,0,0,1-.54-.35,11.61,11.61,0,0,0-1.24-2.13.6.6,0,0,1,.13-.83.59.59,0,0,1,.82.13,12.54,12.54,0,0,1,1.37,2.35.59.59,0,0,1-.3.78A.52.52,0,0,1,213.7,138Zm-19.65-4.15a.59.59,0,0,1-.4-1,12.74,12.74,0,0,1,2.2-1.6.59.59,0,0,1,.59,1,11.76,11.76,0,0,0-2,1.46A.58.58,0,0,1,194.05,133.81Zm16.61,0a.62.62,0,0,1-.4-.15,11.47,11.47,0,0,0-2-1.45.59.59,0,0,1-.21-.81.58.58,0,0,1,.8-.21,12.84,12.84,0,0,1,2.2,1.59.61.61,0,0,1,0,.84A.59.59,0,0,1,210.66,133.79Zm-12.15-2.57a.59.59,0,0,1-.18-1.15,12.72,12.72,0,0,1,2.66-.56.59.59,0,1,1,.12,1.17,12.3,12.3,0,0,0-2.41.51A.63.63,0,0,1,198.51,131.22Zm7.68,0a.63.63,0,0,1-.19,0,11,11,0,0,0-2.41-.51.59.59,0,1,1,.12-1.18,13.39,13.39,0,0,1,2.66.56.59.59,0,0,1-.18,1.16Z"/><path class="cls-21" d="M220.91,127.58c-7.5,3.62-13.5,9.37-18.77,15.66a42,42,0,0,0-9.22-4.66l-.26.3c2.93,2.76,7.15,6.56,10.18,9.29,5.95-6.4,12.61-13.78,18.37-20.32Z"/><path class="cls-21" d="M202.36,201.8c-.44,0-.88,0-1.32-.07a.6.6,0,0,1-.53-.65.61.61,0,0,1,.65-.53,12,12,0,0,0,2.47,0,.59.59,0,0,1,.13,1.17A13,13,0,0,1,202.36,201.8Zm-3.8-.6-.18,0a13.47,13.47,0,0,1-2.49-1.1.59.59,0,0,1,.59-1,12,12,0,0,0,2.26,1,.59.59,0,0,1-.18,1.15Zm7.67,0a.6.6,0,0,1-.56-.41.59.59,0,0,1,.38-.74,12.28,12.28,0,0,0,2.25-1,.59.59,0,0,1,.81.21.6.6,0,0,1-.21.81,13.43,13.43,0,0,1-2.48,1.11A.63.63,0,0,1,206.23,201.18Zm-12.15-2.54a.54.54,0,0,1-.39-.16,12.93,12.93,0,0,1-1.83-2,.59.59,0,0,1,1-.7,11.07,11.07,0,0,0,1.66,1.83.6.6,0,0,1,0,.84A.57.57,0,0,1,194.08,198.64Zm16.61-.06a.56.56,0,0,1-.43-.19.59.59,0,0,1,0-.83,13.07,13.07,0,0,0,1.65-1.84.59.59,0,1,1,1,.69,13.34,13.34,0,0,1-1.81,2A.59.59,0,0,1,210.69,198.58ZM191,194.47a.6.6,0,0,1-.54-.35,13.45,13.45,0,0,1-.85-2.58.6.6,0,0,1,.46-.7.59.59,0,0,1,.7.45,11.34,11.34,0,0,0,.77,2.35.59.59,0,0,1-.29.78A.56.56,0,0,1,191,194.47Zm22.69-.07a.52.52,0,0,1-.24-.05.59.59,0,0,1-.3-.78,11.94,11.94,0,0,0,.76-2.35.6.6,0,0,1,.7-.46.59.59,0,0,1,.45.7,12.41,12.41,0,0,1-.83,2.59A.59.59,0,0,1,213.72,194.4Zm-23.78-5a.6.6,0,0,1-.59-.59v-.05a13.7,13.7,0,0,1,.28-2.71.59.59,0,0,1,.7-.45.59.59,0,0,1,.46.7,11.88,11.88,0,0,0-.26,2.46v.05A.59.59,0,0,1,189.94,189.43Zm24.84-.08a.58.58,0,0,1-.59-.59,12,12,0,0,0-.26-2.46.59.59,0,1,1,1.15-.24,12.83,12.83,0,0,1,.29,2.7.58.58,0,0,1-.59.59Zm-23.77-5a.69.69,0,0,1-.24-.05.6.6,0,0,1-.3-.78,13.51,13.51,0,0,1,1.36-2.36.59.59,0,0,1,1,.7,12,12,0,0,0-1.24,2.14A.59.59,0,0,1,191,184.33Zm22.69,0a.59.59,0,0,1-.54-.35,12,12,0,0,0-1.24-2.14.6.6,0,0,1,.13-.83.59.59,0,0,1,.82.13,13.21,13.21,0,0,1,1.37,2.35.59.59,0,0,1-.3.78A.53.53,0,0,1,213.7,184.31Zm-19.65-4.16a.58.58,0,0,1-.44-.19.6.6,0,0,1,0-.84,13.9,13.9,0,0,1,2.2-1.6.59.59,0,0,1,.8.22.58.58,0,0,1-.21.8,13,13,0,0,0-2,1.46A.58.58,0,0,1,194.05,180.15Zm16.61,0a.62.62,0,0,1-.4-.15,11,11,0,0,0-2-1.46.59.59,0,0,1,.59-1,12.37,12.37,0,0,1,2.2,1.6.6.6,0,0,1,0,.83A.6.6,0,0,1,210.66,180.14Zm-12.15-2.57a.59.59,0,0,1-.56-.41.6.6,0,0,1,.38-.75,12.72,12.72,0,0,1,2.66-.56.6.6,0,0,1,.65.53.58.58,0,0,1-.53.64,11.64,11.64,0,0,0-2.41.52A.63.63,0,0,1,198.51,177.57Zm7.68,0a.63.63,0,0,1-.19,0,12.3,12.3,0,0,0-2.41-.51.59.59,0,0,1-.53-.65.58.58,0,0,1,.65-.52,12.72,12.72,0,0,1,2.66.56.59.59,0,0,1,.38.74A.6.6,0,0,1,206.19,177.56Z"/><path class="cls-21" d="M202.36,248.14a11.67,11.67,0,0,1-1.32-.07.59.59,0,0,1-.53-.64.6.6,0,0,1,.65-.53,12,12,0,0,0,2.47,0,.59.59,0,0,1,.13,1.17A13,13,0,0,1,202.36,248.14Zm-3.8-.59-.18,0a13.47,13.47,0,0,1-2.49-1.1.59.59,0,0,1-.21-.81.58.58,0,0,1,.8-.21,11.92,11.92,0,0,0,2.26,1,.6.6,0,0,1,.38.75A.59.59,0,0,1,198.56,247.55Zm7.67,0a.59.59,0,0,1-.56-.4.6.6,0,0,1,.38-.75,11.64,11.64,0,0,0,2.25-1,.59.59,0,0,1,.6,1,12.79,12.79,0,0,1-2.48,1.11A.63.63,0,0,1,206.23,247.52ZM194.08,245a.58.58,0,0,1-.39-.15,13.4,13.4,0,0,1-1.83-2A.6.6,0,0,1,192,242a.59.59,0,0,1,.83.13,11.49,11.49,0,0,0,1.66,1.83.59.59,0,0,1,0,.83A.57.57,0,0,1,194.08,245Zm16.61,0a.57.57,0,0,1-.43-.2.59.59,0,0,1,0-.83,12,12,0,0,0,1.65-1.84.58.58,0,0,1,.82-.13.57.57,0,0,1,.13.82,12.94,12.94,0,0,1-1.81,2A.59.59,0,0,1,210.69,244.93ZM191,240.82a.6.6,0,0,1-.54-.35,13.92,13.92,0,0,1-.85-2.58.61.61,0,0,1,.46-.71.59.59,0,0,1,.7.46,11.45,11.45,0,0,0,.77,2.34.59.59,0,0,1-.29.78A.57.57,0,0,1,191,240.82Zm22.69-.07a.69.69,0,0,1-.24-.05.6.6,0,0,1-.3-.78,12.26,12.26,0,0,0,.76-2.36.59.59,0,0,1,.7-.45.58.58,0,0,1,.45.7,12.33,12.33,0,0,1-.83,2.58A.58.58,0,0,1,213.72,240.75Zm-23.78-5a.59.59,0,0,1-.59-.59v-.05a13.52,13.52,0,0,1,.28-2.7.59.59,0,1,1,1.16.24,11.88,11.88,0,0,0-.26,2.46v.05A.58.58,0,0,1,189.94,235.77Zm24.84-.07a.59.59,0,0,1-.59-.59,11.88,11.88,0,0,0-.26-2.46.59.59,0,1,1,1.15-.25,12.83,12.83,0,0,1,.29,2.7.6.6,0,0,1-.59.6Zm-23.77-5a.52.52,0,0,1-.24,0,.59.59,0,0,1-.3-.78,13.07,13.07,0,0,1,1.36-2.35.59.59,0,0,1,1,.69,12,12,0,0,0-1.24,2.14A.59.59,0,0,1,191,230.67Zm22.69,0a.59.59,0,0,1-.54-.35,12,12,0,0,0-1.24-2.14.59.59,0,0,1,.13-.82.58.58,0,0,1,.82.13,12.54,12.54,0,0,1,1.37,2.35.6.6,0,0,1-.3.78A.69.69,0,0,1,213.7,230.65Zm-19.65-4.15a.59.59,0,0,1-.4-1,12.74,12.74,0,0,1,2.2-1.6.58.58,0,0,1,.8.21.59.59,0,0,1-.21.81,12.27,12.27,0,0,0-2,1.45A.54.54,0,0,1,194.05,226.5Zm16.61,0a.62.62,0,0,1-.4-.15,11.47,11.47,0,0,0-2-1.45.59.59,0,0,1,.59-1,12.89,12.89,0,0,1,2.2,1.6.59.59,0,0,1-.39,1Zm-12.15-2.57a.59.59,0,0,1-.18-1.15,13.41,13.41,0,0,1,2.66-.57.59.59,0,0,1,.12,1.18,11.62,11.62,0,0,0-2.41.51A.63.63,0,0,1,198.51,223.91Zm7.68,0a.63.63,0,0,1-.19,0,12.3,12.3,0,0,0-2.41-.51.59.59,0,1,1,.12-1.17,12.72,12.72,0,0,1,2.66.56.59.59,0,0,1,.38.74A.6.6,0,0,1,206.19,223.9Z"/><path class="cls-21" d="M202.81,292.52c-.44,0-.89,0-1.32-.07a.59.59,0,0,1-.53-.65.58.58,0,0,1,.65-.52,12,12,0,0,0,2.47,0,.59.59,0,0,1,.13,1.17A13.29,13.29,0,0,1,202.81,292.52Zm-3.8-.6a.55.55,0,0,1-.18,0,13.19,13.19,0,0,1-2.49-1.1.59.59,0,0,1,.59-1,11.43,11.43,0,0,0,2.26,1,.59.59,0,0,1,.38.74A.58.58,0,0,1,199,291.92Zm7.67,0a.59.59,0,0,1-.56-.4.6.6,0,0,1,.38-.75,12.28,12.28,0,0,0,2.25-1,.59.59,0,1,1,.59,1,12.86,12.86,0,0,1-2.48,1.11Zm-12.15-2.54a.58.58,0,0,1-.39-.15,13.47,13.47,0,0,1-1.83-2,.58.58,0,0,1,.13-.82.59.59,0,0,1,.82.12,12.11,12.11,0,0,0,1.66,1.84.58.58,0,0,1,.05.83A.6.6,0,0,1,194.53,289.36Zm16.61-.05a.6.6,0,0,1-.44-.2.59.59,0,0,1,0-.83,11.94,11.94,0,0,0,1.65-1.84.6.6,0,0,1,.83-.14.6.6,0,0,1,.13.83,13.34,13.34,0,0,1-1.81,2A.58.58,0,0,1,211.14,289.31Zm-19.66-4.12a.6.6,0,0,1-.54-.34,13.09,13.09,0,0,1-.85-2.59.59.59,0,0,1,.45-.7.6.6,0,0,1,.71.45,11.34,11.34,0,0,0,.77,2.35.59.59,0,0,1-.3.78A.52.52,0,0,1,191.48,285.19Zm22.69-.07a.52.52,0,0,1-.24-.05.59.59,0,0,1-.3-.78,11.94,11.94,0,0,0,.76-2.35.58.58,0,0,1,.69-.45.58.58,0,0,1,.46.69,13,13,0,0,1-.83,2.59A.6.6,0,0,1,214.17,285.12Zm-23.78-5a.58.58,0,0,1-.59-.59v-.05a13,13,0,0,1,.28-2.71.59.59,0,0,1,.7-.45.6.6,0,0,1,.46.7,11.88,11.88,0,0,0-.26,2.46v.05A.58.58,0,0,1,190.39,280.15Zm24.84-.08a.58.58,0,0,1-.59-.59,12.5,12.5,0,0,0-.26-2.45.59.59,0,1,1,1.15-.25,12.83,12.83,0,0,1,.29,2.7.59.59,0,0,1-.59.59Zm-23.77-5a.69.69,0,0,1-.24-.05.59.59,0,0,1-.3-.78,13.51,13.51,0,0,1,1.36-2.36.59.59,0,0,1,.82-.13.6.6,0,0,1,.14.83A11.45,11.45,0,0,0,192,274.7.6.6,0,0,1,191.46,275.05Zm22.69,0a.59.59,0,0,1-.54-.35,12.68,12.68,0,0,0-1.24-2.14.57.57,0,0,1,.13-.82.58.58,0,0,1,.82.12,13.21,13.21,0,0,1,1.37,2.35.59.59,0,0,1-.3.78A.53.53,0,0,1,214.15,275Zm-19.66-4.16a.59.59,0,0,1-.44-.19.61.61,0,0,1,0-.84,13.81,13.81,0,0,1,2.19-1.6.6.6,0,0,1,.81.22.59.59,0,0,1-.21.81,11.47,11.47,0,0,0-2,1.45A.6.6,0,0,1,194.49,270.87Zm16.61,0a.58.58,0,0,1-.39-.15,11.91,11.91,0,0,0-2-1.46.59.59,0,0,1-.22-.8.6.6,0,0,1,.81-.22,13.14,13.14,0,0,1,2.2,1.6.59.59,0,0,1,0,.83A.57.57,0,0,1,211.1,270.86ZM199,268.29a.59.59,0,0,1-.18-1.15,12,12,0,0,1,2.66-.57.6.6,0,0,1,.65.53.59.59,0,0,1-.53.64,11.87,11.87,0,0,0-2.42.52Zm7.67,0-.18,0a12.4,12.4,0,0,0-2.42-.51.59.59,0,0,1,.12-1.17,12.59,12.59,0,0,1,2.66.56.59.59,0,0,1-.18,1.15Z"/><path class="cls-21" d="M221.36,264.64c-7.5,3.62-13.5,9.37-18.78,15.66a41.73,41.73,0,0,0-9.21-4.66l-.27.3c2.94,2.76,7.15,6.56,10.18,9.29,6-6.4,12.62-13.77,18.37-20.32Z"/><path class="cls-21" d="M207,196.19,209,194q-2.59-2.26-5.18-4.54l5.1-4.63c-.7-.74-1.41-1.47-2.11-2.2l-4.5,5.31-4.5-5.22-2.07,2.23,5.08,4.54-5,4.64,2.11,2.2,4.41-5.32Z"/><path class="cls-21" d="M207,242.46l2.07-2.24-5.18-4.54L209,231l-2.11-2.19-4.5,5.31-4.5-5.23-2.07,2.24,5.08,4.54-5,4.64,2.11,2.19,4.41-5.31Z"/><path class="cls-28" d="M95.77,182.7H55.15V150a20.31,20.31,0,0,1,20.31-20.31h0A20.31,20.31,0,0,1,95.74,148.8c0,.1,0,.21,0,.32,0,.29,0,.57,0,.85Z"/><path class="cls-36" d="M576.81,145.14,535,145.08a3.62,3.62,0,0,0-3.42-2.68L492,142.34V136.6a7.18,7.18,0,1,0-14.32,0v5.74l-39.56-.06a3.63,3.63,0,0,0-3.43,2.67l-40-.06c-7.4,0-13.41,5.37-13.42,12L381,401.31c0,6.65,6,12.06,13.38,12.07l182.07.27c7.4,0,13.41-5.37,13.42-12l.36-244.41C590.2,150.56,584.21,145.15,576.81,145.14Zm-91.94-12.09a3.22,3.22,0,1,1-3,3.2A3.11,3.11,0,0,1,484.87,133.05Z"/><path class="cls-21" d="M584.7,145.14l-182.07-.27c-7.4,0-13.41,5.37-13.42,12l-.36,244.41c0,6.65,6,12.06,13.38,12.07l182.07.27c7.4,0,13.41-5.37,13.42-12l.36-244.41C598.09,150.56,592.1,145.15,584.7,145.14Z"/><path class="cls-29" d="M594,157.2l-.3,202.16v8.28l0,34c0,4.38-4.18,7.94-9.3,7.94L545,409.5l-10.59,0H533l-130.79-.2c-5.13,0-9.3-3.58-9.29-8l.36-244.4c0-4.38,4.18-7.94,9.3-7.94l182.09.27a9.93,9.93,0,0,1,6.72,2.49A7.29,7.29,0,0,1,594,157.2Z"/><path class="cls-37" d="M593.68,363.83v3.81l0,34c0,4.38-4.18,7.94-9.3,7.94L545,409.5l-10.59,0C554.11,398.62,581.24,383.91,593.68,363.83Z"/><path class="cls-38" d="M537,145.47l0,16.17a5.28,5.28,0,0,1-5.11,5.45L453.53,167a5.31,5.31,0,0,1-5.1-5.47l0-16.18h-2.62l0,16.69a7.51,7.51,0,0,0,7.23,7.76l79.33.11a7.5,7.5,0,0,0,7.25-7.73l0-16.69Z"/><path class="cls-38" d="M492.77,128.93h0a7.43,7.43,0,0,0-7.18,7.65l0,13.42,14.33,0,0-13.42A7.43,7.43,0,0,0,492.77,128.93Zm0,10.54a3.22,3.22,0,1,1,3-3.21A3.11,3.11,0,0,1,492.75,139.47Z"/><path class="cls-38" d="M539.46,150.08,446,149.94a3.73,3.73,0,0,1-3.59-3.85h0a3.72,3.72,0,0,1,3.6-3.83l93.45.14a3.72,3.72,0,0,1,3.59,3.84h0A3.72,3.72,0,0,1,539.46,150.08Z"/><rect class="cls-38" x="480.85" y="165.28" width="25.57" height="5.6" rx="0.43" transform="translate(0.25 -0.74) rotate(0.09)"/><path class="cls-21" d="M570,192.3l-115.61-.17a1.44,1.44,0,0,1-1.25-1.57h0a1.43,1.43,0,0,1,1.26-1.56l115.61.17a1.44,1.44,0,0,1,1.25,1.57h0A1.43,1.43,0,0,1,570,192.3Z"/><path class="cls-21" d="M536.44,210.88,454,210.76c-.49,0-.89-.7-.89-1.57h0c0-.86.4-1.56.9-1.56l82.42.12c.5,0,.9.7.9,1.57h0C537.33,210.18,536.93,210.88,536.44,210.88Z"/><path class="cls-21" d="M501.17,201.22l-46.78-.07a1.44,1.44,0,0,1-1.26-1.56h0a1.45,1.45,0,0,1,1.26-1.57l46.79.07a1.44,1.44,0,0,1,1.25,1.57h0A1.43,1.43,0,0,1,501.17,201.22Z"/><path class="cls-21" d="M523.1,201.26l-13.88,0a1.43,1.43,0,0,1-1.26-1.56h0a1.44,1.44,0,0,1,1.26-1.57l13.89,0a1.45,1.45,0,0,1,1.25,1.57h0A1.44,1.44,0,0,1,523.1,201.26Z"/><path class="cls-21" d="M570,236.19,454.34,236a1.44,1.44,0,0,1-1.26-1.57h0a1.44,1.44,0,0,1,1.26-1.56l115.61.17a1.44,1.44,0,0,1,1.26,1.57h0A1.44,1.44,0,0,1,570,236.19Z"/><path class="cls-21" d="M536.37,254.77,454,254.65c-.5,0-.9-.7-.89-1.57h0c0-.86.4-1.56.89-1.56l82.43.12c.49,0,.89.7.89,1.57h0C537.27,254.07,536.87,254.77,536.37,254.77Z"/><path class="cls-21" d="M501.11,245.11,454.32,245a1.43,1.43,0,0,1-1.25-1.56h0a1.44,1.44,0,0,1,1.26-1.57l46.78.07a1.44,1.44,0,0,1,1.26,1.57h0A1.44,1.44,0,0,1,501.11,245.11Z"/><path class="cls-21" d="M523,245.15l-13.89,0a1.43,1.43,0,0,1-1.25-1.56h0a1.44,1.44,0,0,1,1.26-1.57L523,242a1.45,1.45,0,0,1,1.26,1.57h0A1.44,1.44,0,0,1,523,245.15Z"/><path class="cls-21" d="M569.88,280.08l-115.61-.17a1.44,1.44,0,0,1-1.25-1.57h0a1.43,1.43,0,0,1,1.26-1.56l115.61.17a1.44,1.44,0,0,1,1.25,1.57h0A1.43,1.43,0,0,1,569.88,280.08Z"/><path class="cls-21" d="M536.31,298.66l-82.43-.12c-.49,0-.89-.7-.89-1.57h0c0-.86.4-1.56.9-1.56l82.42.12c.5,0,.9.7.9,1.57h0C537.2,298,536.8,298.66,536.31,298.66Z"/><path class="cls-21" d="M501,289l-46.78-.07a1.43,1.43,0,0,1-1.26-1.56h0a1.45,1.45,0,0,1,1.26-1.57l46.79.07a1.44,1.44,0,0,1,1.25,1.57h0A1.43,1.43,0,0,1,501,289Z"/><path class="cls-21" d="M523,289l-13.88,0a1.43,1.43,0,0,1-1.26-1.56h0a1.44,1.44,0,0,1,1.26-1.57l13.89,0a1.45,1.45,0,0,1,1.25,1.57h0A1.44,1.44,0,0,1,523,289Z"/><path class="cls-21" d="M569.82,324l-115.61-.17a1.44,1.44,0,0,1-1.26-1.57h0a1.44,1.44,0,0,1,1.26-1.56l115.61.17a1.44,1.44,0,0,1,1.26,1.57h0A1.44,1.44,0,0,1,569.82,324Z"/><path class="cls-21" d="M536.24,342.55l-82.42-.12c-.5,0-.9-.7-.9-1.57h0c0-.86.41-1.56.9-1.56l82.43.12c.49,0,.89.7.89,1.57h0C537.14,341.85,536.74,342.55,536.24,342.55Z"/><path class="cls-21" d="M501,332.89l-46.79-.07a1.43,1.43,0,0,1-1.25-1.56h0a1.44,1.44,0,0,1,1.26-1.57l46.78.07a1.44,1.44,0,0,1,1.26,1.57h0A1.44,1.44,0,0,1,501,332.89Z"/><path class="cls-21" d="M522.91,332.93l-13.89,0a1.44,1.44,0,0,1-1.26-1.56h0a1.45,1.45,0,0,1,1.26-1.57l13.89,0a1.45,1.45,0,0,1,1.26,1.57h0A1.44,1.44,0,0,1,522.91,332.93Z"/><path class="cls-21" d="M569.75,367.86l-115.61-.17a1.44,1.44,0,0,1-1.25-1.57h0a1.43,1.43,0,0,1,1.26-1.56l115.61.17A1.44,1.44,0,0,1,571,366.3h0A1.43,1.43,0,0,1,569.75,367.86Z"/><path class="cls-21" d="M536.18,386.44l-82.43-.12c-.49,0-.89-.7-.89-1.57h0c0-.86.4-1.56.9-1.56l82.42.12c.5,0,.9.7.89,1.57h0C537.07,385.74,536.67,386.44,536.18,386.44Z"/><path class="cls-21" d="M500.91,376.78l-46.78-.07a1.43,1.43,0,0,1-1.26-1.56h0a1.44,1.44,0,0,1,1.26-1.57l46.79.07a1.44,1.44,0,0,1,1.25,1.57h0A1.43,1.43,0,0,1,500.91,376.78Z"/><path class="cls-21" d="M522.84,376.81l-13.89,0a1.43,1.43,0,0,1-1.25-1.56h0a1.44,1.44,0,0,1,1.26-1.57l13.89,0a1.45,1.45,0,0,1,1.25,1.57h0A1.42,1.42,0,0,1,522.84,376.81Z"/><path class="cls-21" d="M426.69,212.78c-.43,0-.85,0-1.27-.07a.57.57,0,0,1,.11-1.13,11.83,11.83,0,0,0,2.38,0,.56.56,0,0,1,.12,1.12A12,12,0,0,1,426.69,212.78Zm-3.65-.57-.18,0a12.43,12.43,0,0,1-2.39-1.06.57.57,0,1,1,.57-1,11.37,11.37,0,0,0,2.17,1,.57.57,0,0,1,.37.71A.58.58,0,0,1,423,212.21Zm7.37,0a.57.57,0,0,1-.54-.39.56.56,0,0,1,.36-.71,11.74,11.74,0,0,0,2.17-1,.57.57,0,0,1,.57,1,13.84,13.84,0,0,1-2.39,1.07A.47.47,0,0,1,430.41,212.18Zm-11.68-2.44a.53.53,0,0,1-.37-.15,12.37,12.37,0,0,1-1.76-1.93.57.57,0,0,1,.92-.67,11,11,0,0,0,1.59,1.76.56.56,0,0,1,.05.8A.61.61,0,0,1,418.73,209.74Zm16-.05a.55.55,0,0,1-.42-.19.57.57,0,0,1,0-.8,11.17,11.17,0,0,0,1.59-1.77.56.56,0,0,1,.79-.12.57.57,0,0,1,.13.79,12.38,12.38,0,0,1-1.75,1.94A.54.54,0,0,1,434.69,209.69Zm-18.89-3.95a.59.59,0,0,1-.52-.34,12.41,12.41,0,0,1-.81-2.48.57.57,0,0,1,1.11-.24,10.49,10.49,0,0,0,.74,2.26.57.57,0,0,1-.29.75A.59.59,0,0,1,415.8,205.74Zm21.8-.07a.48.48,0,0,1-.23,0,.56.56,0,0,1-.29-.74,11.46,11.46,0,0,0,.73-2.26.57.57,0,0,1,1.11.23,12.59,12.59,0,0,1-.8,2.48A.55.55,0,0,1,437.6,205.67Zm-22.85-4.78a.56.56,0,0,1-.56-.56v-.05a12.54,12.54,0,0,1,.27-2.6.56.56,0,0,1,.67-.44.57.57,0,0,1,.44.67,11.09,11.09,0,0,0-.25,2.37v.05A.56.56,0,0,1,414.75,200.89Zm23.87-.07a.57.57,0,0,1-.57-.57,11,11,0,0,0-.25-2.36.56.56,0,0,1,.44-.67.56.56,0,0,1,.67.43,13.35,13.35,0,0,1,.28,2.6.58.58,0,0,1-.57.57ZM415.78,196a.48.48,0,0,1-.23-.05.57.57,0,0,1-.29-.75,13.42,13.42,0,0,1,1.31-2.26.57.57,0,0,1,.92.67,10.82,10.82,0,0,0-1.19,2.06A.56.56,0,0,1,415.78,196Zm21.8,0a.56.56,0,0,1-.52-.34,11.06,11.06,0,0,0-1.19-2,.57.57,0,0,1,.92-.67,13.42,13.42,0,0,1,1.31,2.26.56.56,0,0,1-.29.75A.59.59,0,0,1,437.58,196Zm-18.88-4a.54.54,0,0,1-.42-.19.57.57,0,0,1,0-.8,13.25,13.25,0,0,1,2.11-1.54.57.57,0,0,1,.57,1,10.92,10.92,0,0,0-1.92,1.39A.57.57,0,0,1,418.7,192Zm16,0a.54.54,0,0,1-.38-.14,11.94,11.94,0,0,0-1.92-1.4.55.55,0,0,1-.21-.77.56.56,0,0,1,.77-.21A12.34,12.34,0,0,1,435,191a.57.57,0,0,1,0,.8A.58.58,0,0,1,434.66,192ZM423,189.5a.58.58,0,0,1-.54-.4.57.57,0,0,1,.36-.71,12.41,12.41,0,0,1,2.56-.54.56.56,0,0,1,.62.5.56.56,0,0,1-.5.62,11.66,11.66,0,0,0-2.33.5A.47.47,0,0,1,423,189.5Zm7.37,0a.47.47,0,0,1-.17,0,11.64,11.64,0,0,0-2.33-.49.56.56,0,0,1-.5-.62.57.57,0,0,1,.62-.51,12.41,12.41,0,0,1,2.56.54.57.57,0,0,1-.18,1.11Z"/><path class="cls-21" d="M444.51,186c-7.2,3.48-13,9-18,15a40.22,40.22,0,0,0-8.85-4.48l-.26.29c2.83,2.65,6.87,6.3,9.78,8.93,5.72-6.15,12.12-13.24,17.65-19.53Z"/><path class="cls-21" d="M426.69,257.3c-.43,0-.85,0-1.27-.06a.57.57,0,0,1,.11-1.13,11.14,11.14,0,0,0,2.38,0,.57.57,0,0,1,.62.51.56.56,0,0,1-.5.62A12,12,0,0,1,426.69,257.3Zm-3.65-.57a.55.55,0,0,1-.18,0,12.43,12.43,0,0,1-2.39-1.06.57.57,0,1,1,.57-1,11.37,11.37,0,0,0,2.17,1,.56.56,0,0,1-.17,1.1Zm7.37,0a.57.57,0,0,1-.54-.39.55.55,0,0,1,.36-.71,11.74,11.74,0,0,0,2.17-1,.57.57,0,0,1,.77.21.56.56,0,0,1-.2.77,12.47,12.47,0,0,1-2.39,1.07A.47.47,0,0,1,430.41,256.71Zm-11.68-2.44a.53.53,0,0,1-.37-.15,12.37,12.37,0,0,1-1.76-1.93.57.57,0,0,1,.12-.79.56.56,0,0,1,.8.12,11,11,0,0,0,1.59,1.76.56.56,0,0,1,.05.8A.61.61,0,0,1,418.73,254.27Zm16-.05a.55.55,0,0,1-.42-.19.57.57,0,0,1,0-.8,11.62,11.62,0,0,0,1.59-1.77.57.57,0,0,1,.79-.13.58.58,0,0,1,.13.8,12.38,12.38,0,0,1-1.75,1.94A.54.54,0,0,1,434.69,254.22Zm-18.89-3.95a.59.59,0,0,1-.52-.34,12.62,12.62,0,0,1-.81-2.48.56.56,0,0,1,.43-.67.57.57,0,0,1,.68.43,10.68,10.68,0,0,0,.74,2.26.57.57,0,0,1-.29.75A.59.59,0,0,1,415.8,250.27Zm21.8-.07a.64.64,0,0,1-.23,0,.57.57,0,0,1-.29-.75,11,11,0,0,0,.73-2.26.57.57,0,1,1,1.11.24,12.59,12.59,0,0,1-.8,2.48A.57.57,0,0,1,437.6,250.2Zm-22.85-4.78a.56.56,0,0,1-.56-.57v0a12.51,12.51,0,0,1,.27-2.59.56.56,0,0,1,.67-.44.57.57,0,0,1,.44.67,11,11,0,0,0-.25,2.36v0A.56.56,0,0,1,414.75,245.42Zm23.87-.07a.58.58,0,0,1-.57-.57,10.93,10.93,0,0,0-.25-2.36.56.56,0,0,1,.44-.67.56.56,0,0,1,.67.43,13.27,13.27,0,0,1,.28,2.6.58.58,0,0,1-.57.57Zm-22.84-4.83a.64.64,0,0,1-.23-.05.57.57,0,0,1-.29-.75,13.42,13.42,0,0,1,1.31-2.26.57.57,0,1,1,.92.67,11.06,11.06,0,0,0-1.19,2.05A.57.57,0,0,1,415.78,240.52Zm21.8,0a.58.58,0,0,1-.52-.34,11.06,11.06,0,0,0-1.19-2,.57.57,0,0,1,.92-.67,13.42,13.42,0,0,1,1.31,2.26.57.57,0,0,1-.29.75A.59.59,0,0,1,437.58,240.5Zm-18.88-4a.57.57,0,0,1-.38-1,13.25,13.25,0,0,1,2.11-1.54.57.57,0,0,1,.57,1,11.51,11.51,0,0,0-1.92,1.4A.57.57,0,0,1,418.7,236.51Zm16,0a.59.59,0,0,1-.38-.14,11.94,11.94,0,0,0-1.92-1.4.55.55,0,0,1-.21-.77.56.56,0,0,1,.77-.21A12.28,12.28,0,0,1,435,235.5a.57.57,0,0,1,0,.8A.55.55,0,0,1,434.66,236.49ZM423,234a.57.57,0,0,1-.54-.39.56.56,0,0,1,.36-.71,12.43,12.43,0,0,1,2.56-.55.57.57,0,0,1,.62.51.56.56,0,0,1-.5.62,11,11,0,0,0-2.33.5Zm7.37,0a.47.47,0,0,1-.17,0,11,11,0,0,0-2.33-.49.56.56,0,0,1-.5-.62.57.57,0,0,1,.62-.51,12.41,12.41,0,0,1,2.56.54.56.56,0,0,1,.36.71A.58.58,0,0,1,430.36,234Z"/><path class="cls-21" d="M444.51,230.52c-7.2,3.48-13,9-18,15a40.22,40.22,0,0,0-8.85-4.48l-.26.29c2.83,2.65,6.87,6.3,9.78,8.93,5.72-6.15,12.12-13.24,17.65-19.53Z"/><path class="cls-21" d="M426.69,301.83c-.43,0-.85,0-1.27-.06a.57.57,0,0,1,.11-1.13,11.14,11.14,0,0,0,2.38,0,.56.56,0,0,1,.62.51.56.56,0,0,1-.5.62A12,12,0,0,1,426.69,301.83Zm-3.65-.57-.18,0a13.08,13.08,0,0,1-2.39-1.06.57.57,0,0,1-.21-.77.56.56,0,0,1,.78-.21,12,12,0,0,0,2.17,1,.56.56,0,0,1-.17,1.1Zm7.37,0a.57.57,0,0,1-.18-1.11,11.07,11.07,0,0,0,2.17-1,.57.57,0,0,1,.57,1,12.47,12.47,0,0,1-2.39,1.07A.47.47,0,0,1,430.41,301.24Zm-11.68-2.44a.53.53,0,0,1-.37-.15,12.37,12.37,0,0,1-1.76-1.93.58.58,0,0,1,.12-.8.58.58,0,0,1,.8.13,11,11,0,0,0,1.59,1.75.57.57,0,0,1,.05.81A.61.61,0,0,1,418.73,298.8Zm16-.05a.59.59,0,0,1-.42-.19.57.57,0,0,1,0-.8A11.62,11.62,0,0,0,435.9,296a.57.57,0,0,1,.79-.13.58.58,0,0,1,.13.8,12.84,12.84,0,0,1-1.75,1.94A.54.54,0,0,1,434.69,298.75ZM415.8,294.8a.59.59,0,0,1-.52-.34,12.62,12.62,0,0,1-.81-2.48.56.56,0,0,1,.43-.67.56.56,0,0,1,.68.43,10.87,10.87,0,0,0,.74,2.26.57.57,0,0,1-.29.75A.59.59,0,0,1,415.8,294.8Zm21.8-.07a.64.64,0,0,1-.23-.05.57.57,0,0,1-.29-.75,11,11,0,0,0,.73-2.26.57.57,0,1,1,1.11.23,12.69,12.69,0,0,1-.8,2.49A.57.57,0,0,1,437.6,294.73ZM414.75,290a.57.57,0,0,1-.56-.57v-.05a12.44,12.44,0,0,1,.27-2.59.56.56,0,0,1,.67-.44.56.56,0,0,1,.44.67,11,11,0,0,0-.25,2.36v.05A.57.57,0,0,1,414.75,290Zm23.87-.07a.58.58,0,0,1-.57-.57,10.93,10.93,0,0,0-.25-2.36.58.58,0,0,1,.44-.68.56.56,0,0,1,.67.44,13.27,13.27,0,0,1,.28,2.6.58.58,0,0,1-.57.57Zm-22.84-4.83a.64.64,0,0,1-.23-.05.57.57,0,0,1-.29-.75,13,13,0,0,1,1.31-2.26.56.56,0,0,1,.79-.13.58.58,0,0,1,.13.8,11.06,11.06,0,0,0-1.19,2A.57.57,0,0,1,415.78,285.05Zm21.8,0a.58.58,0,0,1-.52-.34,11.06,11.06,0,0,0-1.19-2.05.57.57,0,0,1,.92-.67,12.68,12.68,0,0,1,1.31,2.26.57.57,0,0,1-.29.75A.59.59,0,0,1,437.58,285Zm-18.88-4a.57.57,0,0,1-.38-1,12.66,12.66,0,0,1,2.11-1.54.57.57,0,0,1,.57,1,11.51,11.51,0,0,0-1.92,1.4A.57.57,0,0,1,418.7,281Zm16,0a.59.59,0,0,1-.38-.14,11.94,11.94,0,0,0-1.92-1.4.56.56,0,0,1,.56-1A12.28,12.28,0,0,1,435,280a.57.57,0,0,1,0,.8A.55.55,0,0,1,434.66,281ZM423,278.55a.57.57,0,0,1-.54-.39.58.58,0,0,1,.36-.72,13.1,13.1,0,0,1,2.56-.54.57.57,0,0,1,.62.51.56.56,0,0,1-.5.62,11.64,11.64,0,0,0-2.33.49A.47.47,0,0,1,423,278.55Zm7.37,0a.47.47,0,0,1-.17,0,11,11,0,0,0-2.33-.49.56.56,0,0,1-.5-.62.56.56,0,0,1,.62-.51,12.41,12.41,0,0,1,2.56.54.56.56,0,0,1,.36.71A.57.57,0,0,1,430.36,278.54Z"/><path class="cls-21" d="M444.51,275.05c-7.2,3.48-13,9-18,15.05a40.22,40.22,0,0,0-8.85-4.48l-.26.29c2.83,2.65,6.87,6.3,9.78,8.92,5.72-6.15,12.12-13.23,17.65-19.52Z"/><path class="cls-21" d="M426.69,346.36c-.43,0-.85,0-1.27-.06a.57.57,0,0,1-.51-.62.56.56,0,0,1,.62-.51,11.83,11.83,0,0,0,2.38,0,.57.57,0,0,1,.12,1.13A12,12,0,0,1,426.69,346.36Zm-3.65-.57-.18,0a12.39,12.39,0,0,1-2.39-1.05.57.57,0,1,1,.57-1,10.78,10.78,0,0,0,2.17,1,.58.58,0,0,1,.37.72A.57.57,0,0,1,423,345.79Zm7.37,0a.57.57,0,0,1-.18-1.11,11.07,11.07,0,0,0,2.17-1,.56.56,0,0,1,.77.2.57.57,0,0,1-.2.78,12.47,12.47,0,0,1-2.39,1.07A.47.47,0,0,1,430.41,345.77Zm-11.68-2.45a.52.52,0,0,1-.37-.14,12,12,0,0,1-1.76-1.94.57.57,0,0,1,.12-.79.58.58,0,0,1,.8.12,11,11,0,0,0,1.59,1.76.56.56,0,0,1,.05.8A.57.57,0,0,1,418.73,343.32Zm16-.05a.58.58,0,0,1-.42-.18.57.57,0,0,1,0-.8,12.12,12.12,0,0,0,1.59-1.77.56.56,0,0,1,.79-.13.57.57,0,0,1,.13.79,12.45,12.45,0,0,1-1.75,1.95A.53.53,0,0,1,434.69,343.27Zm-18.89-3.95a.58.58,0,0,1-.52-.33,12.84,12.84,0,0,1-.81-2.48.57.57,0,0,1,.43-.68.58.58,0,0,1,.68.44,10.59,10.59,0,0,0,.74,2.25.56.56,0,0,1-.29.75A.46.46,0,0,1,415.8,339.32Zm21.8-.06a.64.64,0,0,1-.23-.05.57.57,0,0,1-.29-.75,11,11,0,0,0,.73-2.26.57.57,0,0,1,.67-.44.56.56,0,0,1,.44.67,12.69,12.69,0,0,1-.8,2.49A.57.57,0,0,1,437.6,339.26Zm-22.85-4.78a.57.57,0,0,1-.56-.57v-.05a12.61,12.61,0,0,1,.27-2.6.56.56,0,0,1,.67-.43.56.56,0,0,1,.44.67,10.93,10.93,0,0,0-.25,2.36v.05A.57.57,0,0,1,414.75,334.48Zm23.87-.08a.57.57,0,0,1-.57-.56,10.93,10.93,0,0,0-.25-2.36.58.58,0,0,1,.44-.68.56.56,0,0,1,.67.44,13.25,13.25,0,0,1,.28,2.59.57.57,0,0,1-.57.57Zm-22.84-4.82a.64.64,0,0,1-.23-.05.58.58,0,0,1-.29-.75,12.68,12.68,0,0,1,1.31-2.26.57.57,0,1,1,.92.66,11.47,11.47,0,0,0-1.19,2.06A.57.57,0,0,1,415.78,329.58Zm21.8,0a.57.57,0,0,1-.52-.33,11.06,11.06,0,0,0-1.19-2.05.58.58,0,0,1,.12-.8.58.58,0,0,1,.8.13,12.68,12.68,0,0,1,1.31,2.26.55.55,0,0,1-.29.74A.46.46,0,0,1,437.58,329.55Zm-18.88-4a.56.56,0,0,1-.42-.18.57.57,0,0,1,0-.8,12.12,12.12,0,0,1,2.11-1.54.56.56,0,0,1,.77.2.57.57,0,0,1-.2.78,11.51,11.51,0,0,0-1.92,1.4A.56.56,0,0,1,418.7,325.56Zm16,0a.55.55,0,0,1-.38-.15,11.3,11.3,0,0,0-1.92-1.39.56.56,0,0,1-.21-.78.56.56,0,0,1,.77-.2,12.28,12.28,0,0,1,2.12,1.53.57.57,0,0,1,0,.8A.55.55,0,0,1,434.66,325.55ZM423,323.08a.57.57,0,0,1-.54-.39.58.58,0,0,1,.36-.72,12.41,12.41,0,0,1,2.56-.54.57.57,0,0,1,.12,1.13,11.64,11.64,0,0,0-2.33.49A.47.47,0,0,1,423,323.08Zm7.37,0a.47.47,0,0,1-.17,0,11.62,11.62,0,0,0-2.33-.48.57.57,0,0,1,.12-1.13,13.08,13.08,0,0,1,2.56.53.58.58,0,0,1,.36.72A.57.57,0,0,1,430.36,323.07Z"/><path class="cls-21" d="M444.51,319.58c-7.2,3.48-13,9-18,15.05a39.79,39.79,0,0,0-8.85-4.48l-.26.29c2.83,2.64,6.87,6.3,9.78,8.92,5.72-6.15,12.12-13.23,17.65-19.52Z"/><path class="cls-21" d="M427.12,389c-.43,0-.85,0-1.27-.06a.58.58,0,0,1-.51-.63.56.56,0,0,1,.62-.5,11.83,11.83,0,0,0,2.38,0,.57.57,0,0,1,.12,1.13A12,12,0,0,1,427.12,389Zm-3.66-.57-.17,0a12.39,12.39,0,0,1-2.39-1,.57.57,0,0,1,.57-1,10.54,10.54,0,0,0,2.17,1,.57.57,0,0,1,.36.72A.56.56,0,0,1,423.46,388.43Zm7.38,0a.57.57,0,0,1-.18-1.11,11.07,11.07,0,0,0,2.17-1,.56.56,0,0,1,.77.2.57.57,0,0,1-.2.78,12.47,12.47,0,0,1-2.39,1.07ZM419.16,386a.56.56,0,0,1-.38-.14,12,12,0,0,1-1.75-1.94.56.56,0,0,1,.12-.79.57.57,0,0,1,.79.12,11.62,11.62,0,0,0,1.6,1.76.58.58,0,0,1,0,.8A.57.57,0,0,1,419.16,386Zm16,0a.58.58,0,0,1-.42-.18.57.57,0,0,1,0-.8,12.12,12.12,0,0,0,1.59-1.77.56.56,0,0,1,.79-.13.57.57,0,0,1,.13.79,12.45,12.45,0,0,1-1.75,1.95A.54.54,0,0,1,435.12,385.91Zm-18.89-4a.57.57,0,0,1-.52-.33,12.84,12.84,0,0,1-.81-2.48.57.57,0,0,1,.43-.68.58.58,0,0,1,.68.44,10.59,10.59,0,0,0,.74,2.25.56.56,0,0,1-.29.75A.46.46,0,0,1,416.23,382Zm21.8-.06a.64.64,0,0,1-.23,0,.56.56,0,0,1-.29-.75,11.25,11.25,0,0,0,.73-2.26.57.57,0,0,1,1.11.23,12.69,12.69,0,0,1-.8,2.49A.57.57,0,0,1,438,381.9Zm-22.85-4.78a.57.57,0,0,1-.56-.57v-.05a12.61,12.61,0,0,1,.27-2.6.56.56,0,0,1,.67-.43.56.56,0,0,1,.44.67,10.93,10.93,0,0,0-.25,2.36v.05A.57.57,0,0,1,415.18,377.12Zm23.87-.08a.56.56,0,0,1-.57-.56,11.6,11.6,0,0,0-.25-2.36.57.57,0,1,1,1.11-.24,13.25,13.25,0,0,1,.28,2.59.57.57,0,0,1-.57.57Zm-22.84-4.82a.64.64,0,0,1-.23-.05.58.58,0,0,1-.29-.75,12.68,12.68,0,0,1,1.31-2.26.57.57,0,1,1,.92.66,11.47,11.47,0,0,0-1.19,2.06A.57.57,0,0,1,416.21,372.22Zm21.8,0a.57.57,0,0,1-.52-.33,11.06,11.06,0,0,0-1.19-2.05.58.58,0,0,1,.12-.8.58.58,0,0,1,.8.13,13,13,0,0,1,1.31,2.25.56.56,0,0,1-.29.75A.46.46,0,0,1,438,372.19Zm-18.88-4a.56.56,0,0,1-.38-1,11.41,11.41,0,0,1,2.11-1.54.56.56,0,0,1,.77.2.57.57,0,0,1-.2.78,11.51,11.51,0,0,0-1.92,1.4A.56.56,0,0,1,419.13,368.2Zm16,0a.55.55,0,0,1-.38-.15,11.3,11.3,0,0,0-1.92-1.39.56.56,0,0,1-.21-.78.56.56,0,0,1,.77-.2,12.28,12.28,0,0,1,2.12,1.53.57.57,0,0,1,0,.8A.55.55,0,0,1,435.09,368.19Zm-11.67-2.47a.57.57,0,0,1-.18-1.11,12.41,12.41,0,0,1,2.56-.54.57.57,0,0,1,.12,1.13,11.64,11.64,0,0,0-2.33.49A.47.47,0,0,1,423.42,365.72Zm7.37,0a.47.47,0,0,1-.17,0,11.62,11.62,0,0,0-2.33-.48.57.57,0,0,1-.5-.63.56.56,0,0,1,.62-.5,12.84,12.84,0,0,1,2.55.53.57.57,0,0,1-.17,1.11Z"/><path class="cls-21" d="M444.94,362.22c-7.2,3.48-13,9-18,15a40.41,40.41,0,0,0-8.85-4.47l-.26.29c2.82,2.64,6.87,6.3,9.78,8.92,5.72-6.15,12.12-13.23,17.65-19.52Z"/><path class="cls-39" d="M593.68,359.36v8.28C585.41,388,566.61,403.84,545,409.5l-10.59,0H533c11.75-10.72,20.49-28.09,21.29-46.14.21-4.66,4.32-8,8.56-6.89C574,359.32,584.8,361.67,593.68,359.36Z"/><path class="cls-40" d="M343.1,383.29H303.82a3.3,3.3,0,0,1-3.3-3.3h0a3.3,3.3,0,0,1,3.3-3.3H343.1a3.3,3.3,0,0,1,3.3,3.3h0A3.3,3.3,0,0,1,343.1,383.29Z"/><path class="cls-41" d="M303.35,378.53h39.28a3.29,3.29,0,0,1,3.29,3.16,3.29,3.29,0,0,0-2.82-5H303.82a3.3,3.3,0,0,0-3.3,3.3c0,.05,0,.09,0,.14A3.28,3.28,0,0,1,303.35,378.53Z"/><polygon class="cls-23" points="340.36 413.66 336.23 409.52 322.98 409.52 322.98 380.08 324.39 380.08 324.39 408.12 336.81 408.12 341.36 412.66 340.36 413.66"/><polygon class="cls-23" points="307 413.66 306.01 412.66 310.55 408.12 322.98 408.12 322.98 380.08 324.39 380.08 324.39 409.52 311.14 409.52 307 413.66"/><path class="cls-23" d="M338.52,411.93a1.73,1.73,0,1,1,1.72,1.72A1.72,1.72,0,0,1,338.52,411.93Z"/><path class="cls-23" d="M305.75,412.2a1.73,1.73,0,1,1,1.73,1.72A1.74,1.74,0,0,1,305.75,412.2Z"/><path class="cls-42" d="M308.45,405.48c1.29-6.32,2-11.49,1.82-16.05-.13-3.34-.47-6.4-.75-9.48l20-11.09,6.36-3.53H323.7s-17.37,5.46-20.32,10.21c-2,3.2-1.57,10.41-.64,16.95,1,6.86,2.54,13,2.54,13Z"/><path class="cls-43" d="M308.5,405.34l1,3.24-.64,5.05-1,.05-.94-4.42-1.66,2.93a2.84,2.84,0,0,1-2.05,1.56c-2.43.3-7.19.38-7.39-1.17s4.41-1.65,5.76-3.4,2.87-3.91,2.87-3.91Z"/><path class="cls-44" d="M302.74,392.49l4.14.66,3.39-3.72,15-16.42,4.3-4.15,3.65-3.53H323.7s-17.37,5.46-20.32,10.21C301.4,378.74,301.81,386,302.74,392.49Z"/><path class="cls-45" d="M304.86,405.66a29,29,0,0,0,7.95-11.2,59.07,59.07,0,0,0,3-9s18.54-1.52,23.42-8.38c3.32-4.69.66-11.74.66-11.74-3.17.1-7.33-.57-9.95.25-9.88,3.09-20.5,7.17-23,13.8a91.51,91.51,0,0,0-3.46,13c-.83,4-1.58,8.57-2.68,13.2Z"/><path class="cls-8" d="M303.48,392.4l6.18,1.36,3.15.7a59.07,59.07,0,0,0,3-9s10.92-.89,18.2-4.41a13.65,13.65,0,0,0,5.22-4c3-4.29,1.07-10.56.71-11.59a1,1,0,0,1-.05-.15h0c-3.16.09-7.67-.86-10.29,0-9.88,3.09-20.6,7.33-23.07,13.95C305,383.15,304.48,387.61,303.48,392.4Z"/><path class="cls-44" d="M334,381a13.65,13.65,0,0,0,5.22-4c3-4.29,1.07-10.56.71-11.59a1,1,0,0,1-.05-.15h0l-3.09,1.25C338.94,372,337.68,376.75,334,381Z"/><path class="cls-8" d="M328.78,328.54a3.24,3.24,0,0,1,3.79-.54c.87.52,1.39,1.49,2.26,2,1.33.78,3.07.31,4.56.74a3.72,3.72,0,0,1,2.62,3.14c.09,1-.27,2.13.18,3.06a3.66,3.66,0,0,0,2,1.54c2,.81,4.22,1.32,5.69,2.84a2.18,2.18,0,0,1,.75,1.65c-.07.63-.56,1.15-.63,1.78a2,2,0,0,0,1,1.78,13.71,13.71,0,0,0,1.9,1c1.79.93,3.61,4.3.57,6.53-1.29.95-4.41-1.62-5.18.76a7,7,0,0,1-2.6,2.29c-5.39,1.14-10.62-6.78-11.83-10.12-3.37-3.82-3.92-7.05-2.85-10.79-1-.91-2.95-2.63-3.23-3.94A4.06,4.06,0,0,1,328.78,328.54Z"/><path class="cls-46" d="M327.39,352.84c-2.08,2.43-5.34,5.34-7.47,7.73-1.05-.88-2.28-1.32-3.16-2.44,3.58-5.26,7.28-12.2,12.46-15.47C328.37,346.09,328.39,349.46,327.39,352.84Z"/><path class="cls-47" d="M322.82,365.62c4.9-.63,8.92,1.34,13.92,1a15.22,15.22,0,0,0,1.84-.24,2.22,2.22,0,0,0,1.85-2.39l-1.64-15.55-1.45-4.79-.34-1.09-2.6-1.35-2.85.09c-4.26,1.79-7.2,6.64-4.61,12C329.44,358.45,322.82,365.62,322.82,365.62Z"/><path class="cls-45" d="M331.42,341.31c0,1.56,1.5,1.56,3,0l-.35-1.9-.22-1.17-2.27,1.09-.16,1.93Z"/><path class="cls-48" d="M335.26,352.33c1.14,3,2.3,10.15,1.48,14.25a15.22,15.22,0,0,0,1.84-.24,2.22,2.22,0,0,0,1.85-2.39l-1.64-15.55-1.45-4.79a9,9,0,0,0-2,2.18A8.57,8.57,0,0,0,335.26,352.33Z"/><path class="cls-45" d="M321.52,360.29c1.3,1.92,2.1,1.57,3.84,1.67,2.27-.12,4.7.22,7,0,2.77-.21,6.84.66,9.09-1.12s-.6-10.57-1.27-12.54c-.88-2.63-1.87-3.77-3.17-5.85.58,2,1.16,3.93,1.75,5.91-.37,3.06-.68,6.14-1,9.2-2.24.29-3.92.48-6.28.87-2.09.34-4.94.81-7.11,1.39C322.46,358.85,320.22,358.38,321.52,360.29Z"/><path class="cls-46" d="M331.55,358.45c.23,1.23.48,2.35.81,3.62,2.93.13,6.48.95,9.21-1.28s.89-11.24-.21-13.7a7.89,7.89,0,0,0-4.36-4.61c-4.18,4.07.21,9.72.75,15.12C335.67,357.85,333.61,358.13,331.55,358.45Z"/><path class="cls-49" d="M331.48,340.65a7.4,7.4,0,0,0,.9.13c.95,0,1.87-.15,1.7-1.37l-.22-1.17-2.27,1.09Z"/><path class="cls-45" d="M329.59,331.29s1.17,2.39,5.09,3.28c0,0,1.23-1.29,1.76-.48s-.76,2.23-.76,2.23c-.14,2.35-1.89,4.22-3.7,3.78C327.87,339.1,329.59,331.29,329.59,331.29Z"/><path class="cls-8" d="M304.86,405.66l1,3.25-.65,5-1,.05-.94-4.42-1.67,2.93a2.79,2.79,0,0,1-2,1.55c-2.44.31-7.2.39-7.39-1.16s4.41-1.66,5.76-3.4,2.87-3.91,2.87-3.91Z"/><path class="cls-23" d="M319,414.59h0a1.38,1.38,0,0,1-1.15-.44l-29-49.8h2.52l28.8,49.43C320.4,414.19,319.82,414.59,319,414.59Z"/><path class="cls-23" d="M293.27,414.59h0a1.38,1.38,0,0,0,1.15-.44l29-49.8h-2.52l-28.8,49.43C291.88,414.19,292.46,414.59,293.27,414.59Z"/><path class="cls-41" d="M334.82,367.31H277.45a2.56,2.56,0,0,1-2.72-2.37h0a2.56,2.56,0,0,1,2.72-2.37h57.37a2.57,2.57,0,0,1,2.73,2.37h0A2.57,2.57,0,0,1,334.82,367.31Z"/><path class="cls-40" d="M335.55,362.7a1.88,1.88,0,0,1,.23.9c0,1.31-1.35,2.38-3,2.38H276a3.68,3.68,0,0,1-1-.14,3.09,3.09,0,0,0,2.78,1.47h56.82c1.66,0,3-1.06,3-2.37A2.49,2.49,0,0,0,335.55,362.7Z"/><rect class="cls-23" x="294.26" y="369.79" width="24.66" height="2.08"/><path class="cls-23" d="M332.68,415.93H279.6a1.05,1.05,0,0,1-1.07-1h0a1.05,1.05,0,0,1,1.07-1h53.08a1.05,1.05,0,0,1,1.07,1h0A1.05,1.05,0,0,1,332.68,415.93Z"/><path class="cls-23" d="M330.65,357.22H307a1.29,1.29,0,0,1-1.27-1.07l-2.54-14.5a1.3,1.3,0,0,1,1.28-1.52h23.62a1.31,1.31,0,0,1,1.28,1.08l2.54,14.49A1.31,1.31,0,0,1,330.65,357.22Z"/><path class="cls-23" d="M331.63,356.19H308a1.3,1.3,0,0,1-1.28-1.07l-2.54-14.49a1.42,1.42,0,0,1,0-.46,1.29,1.29,0,0,0-1,1.48l2.54,14.5a1.29,1.29,0,0,0,1.27,1.07h23.63a1.3,1.3,0,0,0,1.27-1.06A1.36,1.36,0,0,1,331.63,356.19Z"/><rect class="cls-23" x="316.12" y="355.3" width="4.27" height="6.02"/><path class="cls-23" d="M325.75,362.7H310.23a1.8,1.8,0,0,1,1.8-1.79H324a1.79,1.79,0,0,1,1.8,1.79Z"/><path class="cls-21" d="M315.74,348.68a1.57,1.57,0,1,1,1.57,1.57A1.57,1.57,0,0,1,315.74,348.68Z"/><path class="cls-12" d="M365.29,295.38H339.64a4.77,4.77,0,0,0-4.77,4.77V312.8a4.77,4.77,0,0,0,4.77,4.76v3.76l4.63-3.76h21a4.76,4.76,0,0,0,4.76-4.76V300.15A4.76,4.76,0,0,0,365.29,295.38Z"/><path class="cls-21" d="M338.21,305.91a1.93,1.93,0,1,1,1.93,1.93A1.93,1.93,0,0,1,338.21,305.91Z"/><path class="cls-21" d="M344.38,305.91a1.93,1.93,0,1,1,1.92,1.93A1.92,1.92,0,0,1,344.38,305.91Z"/><path class="cls-21" d="M350.54,305.91a1.93,1.93,0,1,1,1.92,1.93A1.92,1.92,0,0,1,350.54,305.91Z"/><path class="cls-21" d="M356.7,305.84a1.93,1.93,0,1,1,1.93,1.92A1.92,1.92,0,0,1,356.7,305.84Z"/><path class="cls-21" d="M362.86,305.84a1.93,1.93,0,1,1,1.93,1.92A1.92,1.92,0,0,1,362.86,305.84Z"/><path class="cls-8" d="M650.67,269.86a3.79,3.79,0,0,0,1-5.09c-1.86-3-6-2.18-6.75-.59a3.57,3.57,0,0,0-3.39,1.72c-.52.76-1.15,2.27-.38,5.21s-3.45,4.63-4,6.62c-.37,1.29.2,2.67,2.81,3s9.57-2.52,9.57-2.52C650.3,278.18,653.38,275.11,650.67,269.86Z"/><path class="cls-50" d="M668.52,334a64.46,64.46,0,0,1-1.59-14.52c.11-3,.41-5.79.66-8.58l-17.53-10-5.57-3.18h10.67s15.23,4.93,17.81,9.23c1.73,2.9,1.37,9.42.56,15.34-.86,6.2-2.23,11.75-2.23,11.75Z"/><path class="cls-44" d="M668.48,333.9l-.9,2.94.56,4.56.91.05.82-4,1.46,2.66a2.49,2.49,0,0,0,1.79,1.4c2.14.28,6.3.35,6.48-1.05s-3.87-1.5-5.05-3.08-2.51-3.54-2.51-3.54Z"/><path class="cls-51" d="M673.53,322.28l-3.63.6-3-3.37-13.1-14.85-3.77-3.77-3.19-3.18h8.29s15.23,4.93,17.81,9.23C674.7,309.84,674.34,316.36,673.53,322.28Z"/><path class="cls-52" d="M671.67,334.2a26.24,26.24,0,0,1-7-10.14,54.28,54.28,0,0,1-2.61-8.15s-16.24-1.37-20.51-7.59c-2.91-4.24-.58-10.61-.58-10.61,2.77.08,6.41-.53,8.71.22,8.66,2.8,18,6.49,20.12,12.48a84.14,84.14,0,0,1,3,11.79c.73,3.58,1.39,7.75,2.35,11.94Z"/><path class="cls-25" d="M672.88,322.2l-5.42,1.23-2.75.63a54.28,54.28,0,0,1-2.61-8.15s-9.56-.81-15.94-4a11.91,11.91,0,0,1-4.57-3.6c-2.66-3.88-.94-9.55-.62-10.48l0-.13h0c2.78.08,6.72-.79,9,0,8.66,2.79,18.05,6.63,20.21,12.62C671.54,313.83,672,317.86,672.88,322.2Z"/><path class="cls-53" d="M646.16,311.92a11.91,11.91,0,0,1-4.57-3.6c-2.66-3.88-.94-9.55-.62-10.48l0-.13h0l2.71,1.12C641.81,303.73,642.91,308,646.16,311.92Z"/><path class="cls-12" d="M651.53,286.47c1.83,2.2,5.08,4.76,7,6.92.92-.79,2-1.19,2.76-2.2a89.84,89.84,0,0,0-10.63-13.64C651.36,280.66,650.66,283.42,651.53,286.47Z"/><path class="cls-12" d="M655.93,298c-4.29-.57-7.81,1.21-12.19.87q-.78-.06-1.62-.21a2,2,0,0,1-1.62-2.17L642,282.38l1.27-4.33.29-1,2.28-1.22,2.5.09a7.87,7.87,0,0,1,4,10.84C650.13,291.48,655.93,298,655.93,298Z"/><path class="cls-52" d="M648.4,276c0,1.42-1.32,1.42-2.64,0l.31-1.71.2-1.06,2,1,.14,1.75Z"/><path class="cls-54" d="M645,285.94c-1,2.71-2,9.18-1.3,12.89q-.78-.06-1.62-.21a2,2,0,0,1-1.62-2.17L642,282.38l1.27-4.33a7.93,7.93,0,0,1,1.76,2A8,8,0,0,1,645,285.94Z"/><path class="cls-12" d="M657.07,293.14c-1.14,1.74-1.83,1.42-3.36,1.52-2-.12-4.12.19-6.13,0-2.43-.19-6,.6-8-1s.52-9.56,1.11-11.35a21.26,21.26,0,0,1,2.78-5.28c-.51,1.82-1,3.55-1.54,5.34.32,2.77.59,5.56.88,8.32,2,.27,3.43.44,5.5.79,1.83.31,4.32.74,6.23,1.26C656.25,291.84,658.21,291.41,657.07,293.14Z"/><path class="cls-12" d="M648.42,291.25c-.2,1.11-.58,2.58-.86,3.73-2.57.12-5.66.63-8-1.39s-.78-10.16.19-12.39a7,7,0,0,1,3.81-4.17c3.67,3.68-.18,8.79-.65,13.68C644.67,290.94,646.61,291,648.42,291.25Z"/><path class="cls-55" d="M648.35,275.37a4.5,4.5,0,0,1-.73.15,1.9,1.9,0,0,1-1.55-1.27l.2-1.06,2,1Z"/><path class="cls-52" d="M650.71,266s-1.08,2.29-4.71,3.14c0,0-1.13-1.23-1.62-.46s.7,2.14.7,2.14c.13,2.24,1.75,4,3.42,3.6C652.3,273.48,650.71,266,650.71,266Z"/><path class="cls-8" d="M671.67,334.2l-.9,2.93.56,4.57.91.05.82-4,1.46,2.65a2.48,2.48,0,0,0,1.79,1.41c2.14.27,6.31.34,6.48-1.06s-3.86-1.5-5-3.08-2.52-3.53-2.52-3.53Z"/><path class="cls-56" d="M651.13,299.66l3-8.89a1.71,1.71,0,0,1,1.5-.89h13.24a1.73,1.73,0,0,1,1.57,2.42L667,300.05a1.86,1.86,0,0,1-1.69,1.09H652.2A1.13,1.13,0,0,1,651.13,299.66Z"/><circle class="cls-21" cx="661.32" cy="296.11" r="1.26"/><path class="cls-12" d="M611.12,225.77h25.65a4.77,4.77,0,0,1,4.77,4.77v12.65a4.77,4.77,0,0,1-4.77,4.77v3.75L632.15,248h-21a4.77,4.77,0,0,1-4.76-4.77V230.54A4.77,4.77,0,0,1,611.12,225.77Z"/><path class="cls-21" d="M638.2,236.31a1.93,1.93,0,1,0-1.93,1.92A1.92,1.92,0,0,0,638.2,236.31Z"/><path class="cls-21" d="M632,236.31a1.93,1.93,0,1,0-1.93,1.92A1.92,1.92,0,0,0,632,236.31Z"/><circle class="cls-21" cx="623.95" cy="236.31" r="1.93"/><path class="cls-21" d="M619.71,236.23a1.93,1.93,0,1,0-1.92,1.92A1.93,1.93,0,0,0,619.71,236.23Z"/><path class="cls-21" d="M613.55,236.23a1.93,1.93,0,1,0-1.92,1.92A1.93,1.93,0,0,0,613.55,236.23Z"/><rect class="cls-23" y="412.97" width="733.01" height="2.72" rx="1.17"/><rect class="cls-23" x="229.25" y="426.7" width="180.64" height="2.72" rx="1.17"/><rect class="cls-23" x="747.92" y="412.97" width="35.47" height="2.72" rx="1.17"/><rect class="cls-23" x="176.05" y="426.7" width="35.47" height="2.72" rx="1.17"/><path class="cls-3" d="M103.57,96A4.6,4.6,0,1,1,110,97,4.6,4.6,0,0,1,103.57,96Z"/><path class="cls-3" d="M113.14,83.27a1.46,1.46,0,0,1-1.43.16,10.92,10.92,0,0,0-10.39,1.74,11.94,11.94,0,0,0-5.17,9.43,1.44,1.44,0,0,1-2.87.12,14.8,14.8,0,0,1,6.33-11.87,13.8,13.8,0,0,1,13.25-2.06,1.44,1.44,0,0,1,.74,1.9A1.47,1.47,0,0,1,113.14,83.27Z"/><path class="cls-3" d="M113.59,74.65a1.41,1.41,0,0,1-1.43.16c-.32-.14-8.11-3.37-16.38,2.7S87.7,92,87.71,92.34a1.44,1.44,0,0,1-1.38,1.49,1.42,1.42,0,0,1-1.49-1.37c0-.41-.36-10.22,9.24-17.27s18.85-3.18,19.24-3a1.43,1.43,0,0,1,.27,2.47Z"/><path class="cls-3" d="M113,67.06a1.46,1.46,0,0,1-1.43.16c-.41-.18-10.3-4.3-20.79,3.41S80.56,89,80.57,89.43a1.44,1.44,0,0,1-2.87.12c0-.5-.43-12.56,11.39-21.24s23.17-3.94,23.65-3.73a1.44,1.44,0,0,1,.74,1.9A1.49,1.49,0,0,1,113,67.06Z"/><path class="cls-3" d="M113.53,59a1.44,1.44,0,0,1-1.42.16C111.58,59,99,53.69,85.64,63.5s-13,23.77-13,23.91a1.44,1.44,0,0,1-2.87.13c0-.63-.54-15.57,14.15-26.36s28.73-4.9,29.32-4.64a1.44,1.44,0,0,1,.74,1.9A1.41,1.41,0,0,1,113.53,59Z"/><path class="cls-3" d="M701.19,251.34h-1a13.27,13.27,0,0,0-1.44-3.78l.86-.86a3.28,3.28,0,0,0-4.65-4.64l-.74.73a13.48,13.48,0,0,0-3.69-1.65h0v-1.21a3.29,3.29,0,1,0-6.57,0v1a13.84,13.84,0,0,0-3.78,1.45l-.86-.86a3.28,3.28,0,0,0-4.64,4.65l.73.73a13.79,13.79,0,0,0-1.65,3.69h-1.21a3.29,3.29,0,1,0,0,6.58h1A13.65,13.65,0,0,0,675,261l-.86.86a3.29,3.29,0,1,0,4.65,4.65l.73-.73h0a13.71,13.71,0,0,0,3.7,1.65v1.21a3.29,3.29,0,0,0,6.57,0v-1a13.34,13.34,0,0,0,3.77-1.45l.86.86a3.28,3.28,0,0,0,4.65-4.64l-.73-.74h0a13.79,13.79,0,0,0,1.65-3.69h1.21a3.29,3.29,0,1,0,0-6.57Zm-4.56,2.93a9.79,9.79,0,1,1-9.78-9.79A9.78,9.78,0,0,1,696.63,254.27Z"/><path class="cls-3" d="M680.66,254.27a6.19,6.19,0,1,0,6.19-6.19A6.19,6.19,0,0,0,680.66,254.27Z"/><path class="cls-3" d="M678.06,220h-.72a9.05,9.05,0,0,0-1-2.61l.6-.6a2.28,2.28,0,0,0-3.22-3.22l-.51.51a9.36,9.36,0,0,0-2.56-1.14h0v-.84a2.28,2.28,0,1,0-4.55,0v.72a9.23,9.23,0,0,0-2.62,1l-.59-.6a2.28,2.28,0,1,0-3.22,3.22l.5.51a9.36,9.36,0,0,0-1.14,2.56h-.84a2.28,2.28,0,1,0,0,4.55h.72a9.12,9.12,0,0,0,1,2.62l-.59.59a2.28,2.28,0,0,0,3.22,3.22l.5-.5h0a9.5,9.5,0,0,0,2.56,1.14V232a2.28,2.28,0,1,0,4.56,0v-.72a9.05,9.05,0,0,0,2.61-1l.6.59a2.28,2.28,0,1,0,3.22-3.22l-.51-.5h0a9.5,9.5,0,0,0,1.14-2.56h.84a2.28,2.28,0,1,0,0-4.56Zm-3.15,2a6.78,6.78,0,1,1-6.78-6.77A6.78,6.78,0,0,1,674.91,222Z"/><path class="cls-3" d="M663.84,222a4.29,4.29,0,1,0,4.29-4.28A4.29,4.29,0,0,0,663.84,222Z"/><path class="cls-57" d="M224.69,378.18c.67-4,5.5-.29,6.85,1.51a56.44,56.44,0,0,1-1.66-6.12c-10.88,1.36-7.51-9.1-.13-.63a50,50,0,0,1-.95-7.71c-10.78-.41-5.94-10.09,0-.76a21.83,21.83,0,0,1,1.11-8.31c-11-2.09-4.22-10.91.17-.44,1.17-3,2.89-5.69,4-8.67-11.13-2-4.3-11,.12-.34a13.19,13.19,0,0,0,.54-7.15c-11.38,1.05-7.21-9.63-.06-.31a16.91,16.91,0,0,0-3.48-7c-10.61-.12-6-9.57.15-.81a16.91,16.91,0,0,1,3.84,7.16c2.07-11,10.16-3.78.18.73a13.28,13.28,0,0,1-.48,7.49c6.85-9.08,11,1.17-.21.6-1.13,3.08-2.91,5.88-4.05,8.94,6.55-9.68,11.8.65-.08.2a22.36,22.36,0,0,0-1,8.13c5.31-9.85,11-.57,0,.66a47.83,47.83,0,0,0,1,7.54c2.81-11.06,10.86-3.3.1.47a55.48,55.48,0,0,0,1.71,6.31c2.89-10.85,10.69-3.16.19.55a41.78,41.78,0,0,0,2.5,5.79c-.44,2.23-2.88-5-3.14-5.56C229.49,380.69,225.79,380.57,224.69,378.18Z"/><path class="cls-58" d="M225.85,398.47c1.75-3.46,5.09,1.3,5.81,3.32a53.12,53.12,0,0,1,.23-6.05c-10.29-1.85-4.25-10.41.06-.6a46.06,46.06,0,0,1,1.33-7.29c-9.7-3.44-2.55-10.87.19-.7a20.78,20.78,0,0,1,3.37-7.24c-9.38-5-.73-11.14.29-.36,1.9-2.34,4.24-4.35,6.06-6.76-9.55-5-.78-11.25.21-.28a12.68,12.68,0,0,0,2.53-6.35c-10.66-2.28-3.83-10.82,0-.3a16.14,16.14,0,0,0-1.17-7.39c-9.58-3.06-2.73-10.42.37-.69a16.11,16.11,0,0,1,1.45,7.6c5-9.41,10.33-.55,0,.72a12.68,12.68,0,0,1-2.57,6.68c8.82-6.32,9.7,4.2-.36.48-1.9,2.49-4.32,4.53-6.23,7,8.72-6.95,10.56,3.95-.13.16a21.51,21.51,0,0,0-3.25,7.1c7.61-7.45,10.1,2.65-.16.62a44.22,44.22,0,0,0-1.28,7.13c5.7-9.27,10.81.08-.05.45a54,54,0,0,0-.24,6.23c5.72-9.05,10.63.17,0,.56a41.26,41.26,0,0,0,.63,6c-1,1.91-1.21-5.33-1.27-5.94C229.5,402.11,226.17,401,225.85,398.47Z"/><path class="cls-59" d="M245.4,385.45c-.11,1.42-2,25.3-2.16,27.52H226.7c-.2-2.33-2.26-26-2.39-27.52Z"/><path class="cls-60" d="M224.31,385.45l.17,1.91h6.37a9.93,9.93,0,0,1,9.89,10.7c-.43,5.53-.92,11.75-1.17,14.91h3.67c.17-2.22,2-26.1,2.16-27.52Z"/><path class="cls-59" d="M245,385.45H224.73a2.27,2.27,0,0,1-2.46-2h0a2.26,2.26,0,0,1,2.46-2H245a2.26,2.26,0,0,1,2.46,2h0A2.27,2.27,0,0,1,245,385.45Z"/><path class="cls-61" d="M563.48,25.1a1.49,1.49,0,0,1-.85,2.19l-5,1.45A1.48,1.48,0,0,1,555.82,27l1.23-5a1.47,1.47,0,0,1,2.46-.71l3.73,3.56A1.76,1.76,0,0,1,563.48,25.1ZM557,27.48a.17.17,0,0,0,.06.06.29.29,0,0,0,.3.08l4.95-1.45a.29.29,0,0,0,.22-.22.31.31,0,0,0-.09-.3l-3.73-3.57a.33.33,0,0,0-.3-.08.33.33,0,0,0-.22.23l-1.22,5A.3.3,0,0,0,557,27.48Z"/><path class="cls-61" d="M77,213.06a1.48,1.48,0,0,1,.18,1.13,1.47,1.47,0,0,1-1,1.07l-5,1.44a1.47,1.47,0,0,1-1.44-.35,1.45,1.45,0,0,1-.41-1.42l1.22-5a1.48,1.48,0,0,1,2.46-.72l3.73,3.57A2.17,2.17,0,0,1,77,213.06Zm-6.49,2.38a.22.22,0,0,0,.06.07.28.28,0,0,0,.3.07l5-1.44a.32.32,0,0,0,.21-.23.29.29,0,0,0-.09-.3L72.27,210A.31.31,0,0,0,72,210a.29.29,0,0,0-.21.22l-1.23,5A.28.28,0,0,0,70.55,215.44Z"/><path class="cls-61" d="M695.93,190.75l1.57-1.57a.92.92,0,0,0-1.29-1.3l-1.58,1.58-1.57-1.58a.94.94,0,0,0-1.3,0,.92.92,0,0,0,0,1.3l1.58,1.57-1.57,1.58a.91.91,0,0,0,0,1.29.89.89,0,0,0,.64.27.91.91,0,0,0,.65-.27l1.57-1.57,1.57,1.57a.92.92,0,0,0,.65.27.92.92,0,0,0,.65-1.56Z"/><path class="cls-61" d="M170.41,42.56,172,41a.92.92,0,0,0-1.29-1.3l-1.58,1.58-1.57-1.58a.92.92,0,1,0-1.3,1.3l1.58,1.57-1.57,1.58a.91.91,0,0,0,0,1.29.89.89,0,0,0,.64.27.91.91,0,0,0,.65-.27l1.57-1.57,1.58,1.57a.89.89,0,0,0,.64.27.92.92,0,0,0,.65-1.56Z"/><path class="cls-62" d="M692.21,295.77a3.53,3.53,0,1,1,3.53-3.53A3.54,3.54,0,0,1,692.21,295.77Zm0-6a2.43,2.43,0,1,0,2.42,2.43A2.43,2.43,0,0,0,692.21,289.81Z"/><path class="cls-62" d="M97.77,298.94a3.53,3.53,0,1,1,3.53-3.53A3.54,3.54,0,0,1,97.77,298.94Zm0-6a2.43,2.43,0,1,0,2.43,2.43A2.43,2.43,0,0,0,97.77,293Z"/></g></g></g></svg>